<?xml version="1.0" encoding="UTF-8"?>
<svg width="127px" height="47px" viewBox="0 0 127 47" version="1.1" xmlns="http://www.w3.org/2000/svg" xmlns:xlink="http://www.w3.org/1999/xlink">
    <!-- Generator: Sketch 52.3 (67297) - http://www.bohemiancoding.com/sketch -->
    <title>Circuit {14 nodes; #EEEEEE}</title>
    <desc>Created with Sketch.</desc>
    <defs>
        <rect id="path-1" x="0" y="0" width="148" height="57"></rect>
    </defs>
    <g id="Home-&amp;-Member-Directory" stroke="none" stroke-width="1" fill="none" fill-rule="evenodd">
        <g id="Home" transform="translate(-577.000000, -2633.000000)">
            <g id="Footer" transform="translate(0.000000, 2623.000000)">
                <g id="Circuit-{14-nodes;-#EEEEEE}" transform="translate(565.000000, 0.000000)">
                    <mask id="mask-2" fill="white">
                        <use xlink:href="#path-1"></use>
                    </mask>
                    <g id="Mask" fill-rule="nonzero"></g>
                    <g mask="url(#mask-2)" fill="#EEEEEE">
                        <g transform="translate(75.500000, 68.000000) rotate(-180.000000) translate(-75.500000, -68.000000) translate(12.000000, 10.000000)">
                            <path d="M5.3244,113.4143 C3.5624,113.4143 2.1294,111.9803 2.1294,110.2153 C2.1294,108.4533 3.5584,107.0233 5.3164,107.0193 L5.3324,107.0193 C7.0944,107.0233 8.5234,108.4533 8.5234,110.2153 C8.5234,111.9803 7.0904,113.4143 5.3244,113.4143 M6.6564,105.0623 L6.6564,0.8913 L3.9924,0.0003 L3.9924,105.0623 C1.6954,105.6563 0.0004,107.7343 0.0004,110.2153 C0.0004,113.1603 2.3834,115.5433 5.3284,115.5433 C8.2694,115.5433 10.6564,113.1603 10.6564,110.2153 C10.6564,107.7343 8.9534,105.6523 6.6564,105.0623" id="Fill-1"></path>
                            <path d="M120.7776,104.5315 C119.0156,104.5315 117.5826,103.0975 117.5826,101.3325 C117.5826,99.5705 119.0156,98.1365 120.7776,98.1365 C122.5436,98.1365 123.9766,99.5705 123.9766,101.3325 C123.9766,103.0975 122.5436,104.5315 120.7776,104.5315 M122.1096,96.1795 L122.1096,0.8905 L119.4456,0.0005 L119.4456,96.1795 C117.1486,96.7735 115.4536,98.8515 115.4536,101.3365 C115.4536,104.2775 117.8366,106.6645 120.7816,106.6645 C123.7226,106.6645 126.1096,104.2775 126.1096,101.3365 C126.1096,98.8515 124.4106,96.7735 122.1096,96.1795" id="Fill-4"></path>
                            <path d="M103.0159,104.5315 C101.2539,104.5315 99.8209,103.0975 99.8209,101.3325 C99.8209,99.5705 101.2539,98.1365 103.0159,98.1365 C104.7819,98.1365 106.2149,99.5705 106.2149,101.3325 C106.2149,103.0975 104.7819,104.5315 103.0159,104.5315 M104.3479,96.1795 L104.3479,0.8905 L101.6839,0.0005 L101.6839,96.1795 C99.3869,96.7735 97.6919,98.8515 97.6919,101.3365 C97.6919,104.2775 100.0749,106.6645 103.0199,106.6645 C105.9609,106.6645 108.3479,104.2775 108.3479,101.3365 C108.3479,98.8515 106.6449,96.7695 104.3479,96.1795" id="Fill-7"></path>
                            <path d="M85.2542,104.5315 C83.4922,104.5315 82.0592,103.0975 82.0592,101.3325 C82.0592,99.5705 83.4922,98.1365 85.2542,98.1365 C87.0202,98.1365 88.4532,99.5705 88.4532,101.3325 C88.4532,103.0975 87.0202,104.5315 85.2542,104.5315 M86.5862,96.1795 L86.5862,0.8905 L83.9222,0.0005 L83.9222,96.1795 C81.6252,96.7735 79.9302,98.8515 79.9302,101.3365 C79.9302,104.2775 82.3132,106.6645 85.2582,106.6645 C88.1992,106.6645 90.5862,104.2775 90.5862,101.3365 C90.5862,98.8515 88.8832,96.7735 86.5862,96.1795" id="Fill-15"></path>
                            <path d="M14.2073,104.5315 C12.4453,104.5315 11.0123,103.0975 11.0123,101.3325 C11.0123,99.5705 12.4453,98.1365 14.2073,98.1365 C15.9693,98.1365 17.4063,99.5705 17.4063,101.3325 C17.4063,103.0975 15.9693,104.5315 14.2073,104.5315 M15.5393,96.1795 L15.5393,0.8905 L12.8753,0.0005 L12.8753,96.1795 C10.5783,96.7735 8.8793,98.8515 8.8793,101.3365 C8.8793,104.2775 11.2663,106.6645 14.2073,106.6645 C17.1483,106.6645 19.5353,104.2775 19.5353,101.3365 C19.5353,98.8515 17.8363,96.7695 15.5393,96.1795" id="Fill-20"></path>
                            <path d="M49.7307,104.5315 C47.9687,104.5315 46.5357,103.0975 46.5357,101.3325 C46.5357,99.5705 47.9687,98.1365 49.7307,98.1365 C51.4967,98.1365 52.9297,99.5705 52.9297,101.3325 C52.9297,103.0975 51.4967,104.5315 49.7307,104.5315 M51.0627,96.1795 L51.0627,0.8905 L48.3987,0.0005 L48.3987,96.1795 C46.1017,96.7735 44.4027,98.8515 44.4027,101.3365 C44.4027,104.2775 46.7897,106.6645 49.7307,106.6645 C52.6757,106.6645 55.0627,104.2775 55.0627,101.3365 C55.0627,98.8515 53.3597,96.7735 51.0627,96.1795" id="Fill-22"></path>
                            <path d="M67.4924,104.5315 C65.7304,104.5315 64.2974,103.0975 64.2974,101.3325 C64.2974,99.5705 65.7304,98.1365 67.4924,98.1365 C69.2584,98.1365 70.6914,99.5705 70.6914,101.3325 C70.6914,103.0975 69.2584,104.5315 67.4924,104.5315 M68.8244,96.1795 L68.8244,0.8905 L66.1604,0.0005 L66.1604,96.1795 C63.8634,96.7735 62.1644,98.8515 62.1644,101.3365 C62.1644,104.2775 64.5514,106.6645 67.4924,106.6645 C70.4374,106.6645 72.8244,104.2775 72.8244,101.3365 C72.8244,98.8515 71.1214,96.7695 68.8244,96.1795" id="Fill-24"></path>
                            <path d="M111.8987,113.4143 C110.1367,113.4143 108.7037,111.9803 108.7037,110.2153 C108.7037,108.4533 110.1327,107.0233 111.8907,107.0193 L111.9067,107.0193 C113.6687,107.0233 115.0977,108.4533 115.0977,110.2153 C115.0977,111.9803 113.6607,113.4143 111.8987,113.4143 M113.2307,105.0623 L113.2307,0.8913 L110.5667,0.0003 L110.5667,105.0623 C108.2697,105.6563 106.5707,107.7343 106.5707,110.2153 C106.5707,113.1603 108.9577,115.5433 111.8987,115.5433 C114.8437,115.5433 117.2267,113.1603 117.2267,110.2153 C117.2267,107.7303 115.5277,105.6523 113.2307,105.0623" id="Fill-9"></path>
                            <path d="M94.137,113.4143 C92.375,113.4143 90.942,111.9803 90.942,110.2153 C90.942,108.4533 92.367,107.0233 94.125,107.0193 L94.145,107.0193 C95.903,107.0233 97.336,108.4533 97.336,110.2153 C97.336,111.9803 95.899,113.4143 94.137,113.4143 M95.469,105.0623 L95.469,0.8913 L92.805,0.0003 L92.805,105.0623 C90.508,105.6563 88.809,107.7343 88.809,110.2153 C88.809,113.1603 91.196,115.5433 94.137,115.5433 C97.078,115.5433 99.465,113.1603 99.465,110.2153 C99.465,107.7303 97.766,105.6523 95.469,105.0623" id="Fill-12"></path>
                            <path d="M76.3752,113.4143 C74.6092,113.4143 73.1762,111.9803 73.1762,110.2153 C73.1762,108.4533 74.6052,107.0233 76.3632,107.0193 L76.3832,107.0193 C78.1412,107.0233 79.5702,108.4533 79.5702,110.2153 C79.5702,111.9803 78.1372,113.4143 76.3752,113.4143 M77.7032,105.0623 L77.7032,0.8913 L75.0392,0.0003 L75.0392,105.0623 C72.7462,105.6563 71.0472,107.7343 71.0472,110.2153 C71.0472,113.1603 73.4302,115.5433 76.3752,115.5433 C79.3162,115.5433 81.7032,113.1603 81.7032,110.2153 C81.7032,107.7303 80.0042,105.6523 77.7032,105.0623" id="Fill-17"></path>
                            <path d="M23.0862,113.4143 C21.3242,113.4143 19.8912,111.9803 19.8912,110.2153 C19.8912,108.4533 21.3202,107.0233 23.0782,107.0193 L23.0942,107.0193 C24.8562,107.0233 26.2852,108.4533 26.2852,110.2153 C26.2852,111.9803 24.8522,113.4143 23.0862,113.4143 M24.4182,105.0623 L24.4182,0.8913 L21.7542,0.0003 L21.7542,105.0623 C19.4572,105.6563 17.7622,107.7343 17.7622,110.2153 C17.7622,113.1603 20.1452,115.5433 23.0902,115.5433 C26.0312,115.5433 28.4182,113.1603 28.4182,110.2153 C28.4182,107.7343 26.7192,105.6523 24.4182,105.0623" id="Fill-26"></path>
                            <path d="M58.6096,113.4143 C56.8476,113.4143 55.4146,111.9803 55.4146,110.2153 C55.4146,108.4533 56.8436,107.0233 58.6016,107.0193 L58.6216,107.0193 C60.3796,107.0233 61.8086,108.4533 61.8086,110.2153 C61.8086,111.9803 60.3756,113.4143 58.6096,113.4143 M59.9416,105.0623 L59.9416,0.8913 L57.2776,0.0003 L57.2776,105.0623 C54.9846,105.6563 53.2856,107.7343 53.2856,110.2153 C53.2856,113.1603 55.6686,115.5433 58.6136,115.5433 C61.5546,115.5433 63.9416,113.1603 63.9416,110.2153 C63.9416,107.7303 62.2426,105.6523 59.9416,105.0623" id="Fill-29"></path>
                            <path d="M40.8479,113.4143 C39.0859,113.4143 37.6529,111.9803 37.6529,110.2153 C37.6529,108.4533 39.0819,107.0233 40.8399,107.0193 L40.8599,107.0193 C42.6179,107.0233 44.0469,108.4533 44.0469,110.2153 C44.0469,111.9803 42.6139,113.4143 40.8479,113.4143 M42.1799,105.0623 L42.1799,0.8913 L39.5159,0.0003 L39.5159,105.0623 C37.2189,105.6563 35.5239,107.7343 35.5239,110.2153 C35.5239,113.1603 37.9069,115.5433 40.8519,115.5433 C43.7929,115.5433 46.1799,113.1603 46.1799,110.2153 C46.1799,107.7343 44.4809,105.6523 42.1799,105.0623" id="Fill-32"></path>
                            <path d="M31.969,104.5315 C30.207,104.5315 28.774,103.0975 28.774,101.3325 C28.774,99.5705 30.207,98.1365 31.969,98.1365 C33.731,98.1365 35.168,99.5705 35.168,101.3325 C35.168,103.0975 33.731,104.5315 31.969,104.5315 M33.301,96.1795 L33.297,0.8905 L30.637,0.0005 L30.637,96.1795 C28.34,96.7735 26.641,98.8515 26.641,101.3365 C26.641,104.2775 29.028,106.6645 31.969,106.6645 C34.914,106.6645 37.297,104.2775 37.297,101.3365 C37.297,98.8515 35.598,96.7735 33.301,96.1795" id="Fill-35"></path>
                        </g>
                    </g>
                </g>
            </g>
        </g>
    </g>
</svg>