<?xml version="1.0" encoding="UTF-8"?>
<svg width="267px" height="98px" viewBox="0 0 267 98" version="1.1" xmlns="http://www.w3.org/2000/svg" xmlns:xlink="http://www.w3.org/1999/xlink">
    <!-- Generator: Sketch 52.3 (67297) - http://www.bohemiancoding.com/sketch -->
    <title>Dots {3 column; 98px; Black 10%}</title>
    <desc>Created with t.</desc>
    <defs>
        <polygon id="path-1" points="0.8519 0.3383 7.5109 0.3383 7.5109 7 0.8519 7"></polygon>
        <polygon id="path-3" points="0.8851 0.3383 7.5471 0.3383 7.5471 7 0.8851 7"></polygon>
        <polygon id="path-5" points="0.8323 0.3383 7.4943 0.3383 7.4943 7 0.8323 7"></polygon>
        <polygon id="path-7" points="0.8587 0.3383 7.5207 0.3383 7.5207 7 0.8587 7"></polygon>
        <polygon id="path-9" points="0.8685 0.3383 7.5305 0.3383 7.5305 7 0.8685 7"></polygon>
        <polygon id="path-11" points="0.8783 0.3383 7.5373 0.3383 7.5373 7 0.8783 7"></polygon>
        <polygon id="path-13" points="0.8421 0.3383 7.5041 0.3383 7.5041 7 0.8421 7"></polygon>
        <polygon id="path-15" points="0.8256 0.3383 7.4846 0.3383 7.4846 7 0.8256 7"></polygon>
        <polygon id="path-17" points="0.7992 0.3383 7.4582 0.3383 7.4582 7 0.7992 7"></polygon>
        <polygon id="path-19" points="0.806 0.3383 7.468 0.3383 7.468 7 0.806 7"></polygon>
        <polygon id="path-21" points="0.8157 0.3383 7.4777 0.3383 7.4777 7 0.8157 7"></polygon>
        <polygon id="path-23" points="0.7894 0.3383 7.4514 0.3383 7.4514 7 0.7894 7"></polygon>
        <polygon id="path-25" points="0.9838 0.3383 7.6428 0.3383 7.6428 7 0.9838 7"></polygon>
        <polygon id="path-27" points="0.9739 0.3383 7.6359 0.3383 7.6359 7 0.9739 7"></polygon>
        <polygon id="path-29" points="0.9574 0.3383 7.6164 0.3383 7.6164 7 0.9574 7"></polygon>
        <polygon id="path-31" points="0.8948 0.3383 7.5568 0.3383 7.5568 7 0.8948 7"></polygon>
        <polygon id="path-33" points="0.9935 0.3383 7.6525 0.3383 7.6525 7 0.9935 7"></polygon>
        <polygon id="path-35" points="0.0003 0.3383 6.6623 0.3383 6.6623 7 0.0003 7"></polygon>
        <polygon id="path-37" points="0.9672 0.3383 7.6262 0.3383 7.6262 7 0.9672 7"></polygon>
        <polygon id="path-39" points="0.9114 0.3383 7.5734 0.3383 7.5734 7 0.9114 7"></polygon>
        <polygon id="path-41" points="0.9212 0.3383 7.5832 0.3383 7.5832 7 0.9212 7"></polygon>
        <polygon id="path-43" points="0.9047 0.3383 7.5637 0.3383 7.5637 7 0.9047 7"></polygon>
        <polygon id="path-45" points="0.9378 0.3383 7.5998 0.3383 7.5998 7 0.9378 7"></polygon>
        <polygon id="path-47" points="0.9476 0.3383 7.6096 0.3383 7.6096 7 0.9476 7"></polygon>
        <polygon id="path-49" points="0.931 0.3383 7.59 0.3383 7.59 7 0.931 7"></polygon>
        <polygon id="path-51" points="0.7698 0.3383 7.4318 0.3383 7.4318 7 0.7698 7"></polygon>
        <polygon id="path-53" points="0.7796 0.3383 7.4416 0.3383 7.4416 7 0.7796 7"></polygon>
    </defs>
    <g id="Home-&amp;-Member-Directory" stroke="none" stroke-width="1" fill="none" fill-rule="evenodd" opacity="0.1">
        <g id="Home" transform="translate(-155.000000, -601.000000)">
            <g id="Hero-{1170x450}" transform="translate(55.000000, 200.000000)">
                <g id="Dots-{3-column;-98px;-Black-10%}" transform="translate(100.000000, 401.000000)">
                    <path d="M176.5109,13.3216 C176.5109,11.4816 175.0199,9.9906 173.1829,9.9906 C171.3429,9.9906 169.8519,11.4816 169.8519,13.3216 C169.8519,15.1616 171.3429,16.6526 173.1829,16.6526 C175.0199,16.6526 176.5109,15.1616 176.5109,13.3216" id="Fill-1" fill="#231F20"></path>
                    <path d="M136.5471,13.3216 C136.5471,11.4816 135.0561,9.9906 133.2161,9.9906 C131.3761,9.9906 129.8851,11.4816 129.8851,13.3216 C129.8851,15.1616 131.3761,16.6526 133.2161,16.6526 C135.0561,16.6526 136.5471,15.1616 136.5471,13.3216" id="Fill-3" fill="#231F20"></path>
                    <path d="M196.4943,13.3216 C196.4943,11.4816 195.0033,9.9906 193.1633,9.9906 C191.3233,9.9906 189.8323,11.4816 189.8323,13.3216 C189.8323,15.1616 191.3233,16.6526 193.1633,16.6526 C195.0033,16.6526 196.4943,15.1616 196.4943,13.3216" id="Fill-5" fill="#231F20"></path>
                    <path d="M166.5207,13.3216 C166.5207,11.4816 165.0297,9.9906 163.1897,9.9906 C161.3497,9.9906 159.8587,11.4816 159.8587,13.3216 C159.8587,15.1616 161.3497,16.6526 163.1897,16.6526 C165.0297,16.6526 166.5207,15.1616 166.5207,13.3216" id="Fill-7" fill="#231F20"></path>
                    <path d="M156.5305,13.3216 C156.5305,11.4816 155.0395,9.9906 153.1995,9.9906 C151.3595,9.9906 149.8685,11.4816 149.8685,13.3216 C149.8685,15.1616 151.3595,16.6526 153.1995,16.6526 C155.0395,16.6526 156.5305,15.1616 156.5305,13.3216" id="Fill-9" fill="#231F20"></path>
                    <path d="M146.5373,13.3216 C146.5373,11.4816 145.0463,9.9906 143.2093,9.9906 C141.3693,9.9906 139.8783,11.4816 139.8783,13.3216 C139.8783,15.1616 141.3693,16.6526 143.2093,16.6526 C145.0463,16.6526 146.5373,15.1616 146.5373,13.3216" id="Fill-11" fill="#231F20"></path>
                    <path d="M186.5041,13.3216 C186.5041,11.4816 185.0131,9.9906 183.1731,9.9906 C181.3331,9.9906 179.8421,11.4816 179.8421,13.3216 C179.8421,15.1616 181.3331,16.6526 183.1731,16.6526 C185.0131,16.6526 186.5041,15.1616 186.5041,13.3216" id="Fill-13" fill="#231F20"></path>
                    <path d="M206.4846,13.3216 C206.4846,11.4816 204.9936,9.9906 203.1566,9.9906 C201.3166,9.9906 199.8256,11.4816 199.8256,13.3216 C199.8256,15.1616 201.3166,16.6526 203.1566,16.6526 C204.9936,16.6526 206.4846,15.1616 206.4846,13.3216" id="Fill-15" fill="#231F20"></path>
                    <path d="M236.4582,13.3216 C236.4582,11.4816 234.9672,9.9906 233.1302,9.9906 C231.2902,9.9906 229.7992,11.4816 229.7992,13.3216 C229.7992,15.1616 231.2902,16.6526 233.1302,16.6526 C234.9672,16.6526 236.4582,15.1616 236.4582,13.3216" id="Fill-17" fill="#231F20"></path>
                    <path d="M226.468,13.3216 C226.468,11.4816 224.977,9.9906 223.137,9.9906 C221.297,9.9906 219.806,11.4816 219.806,13.3216 C219.806,15.1616 221.297,16.6526 223.137,16.6526 C224.977,16.6526 226.468,15.1616 226.468,13.3216" id="Fill-19" fill="#231F20"></path>
                    <path d="M216.4777,13.3216 C216.4777,11.4816 214.9867,9.9906 213.1467,9.9906 C211.3067,9.9906 209.8157,11.4816 209.8157,13.3216 C209.8157,15.1616 211.3067,16.6526 213.1467,16.6526 C214.9867,16.6526 216.4777,15.1616 216.4777,13.3216" id="Fill-21" fill="#231F20"></path>
                    <path d="M246.4514,13.3216 C246.4514,11.4816 244.9604,9.9906 243.1204,9.9906 C241.2804,9.9906 239.7894,11.4816 239.7894,13.3216 C239.7894,15.1616 241.2804,16.6526 243.1204,16.6526 C244.9604,16.6526 246.4514,15.1616 246.4514,13.3216" id="Fill-23" fill="#231F20"></path>
                    <path d="M26.6428,13.3216 C26.6428,11.4816 25.1548,9.9906 23.3148,9.9906 C21.4748,9.9906 19.9838,11.4816 19.9838,13.3216 C19.9838,15.1616 21.4748,16.6526 23.3148,16.6526 C25.1548,16.6526 26.6428,15.1616 26.6428,13.3216" id="Fill-25" fill="#231F20"></path>
                    <path d="M36.6359,13.3216 C36.6359,11.4816 35.1449,9.9906 33.3049,9.9906 C31.4649,9.9906 29.9739,11.4816 29.9739,13.3216 C29.9739,15.1616 31.4649,16.6526 33.3049,16.6526 C35.1449,16.6526 36.6359,15.1616 36.6359,13.3216" id="Fill-27" fill="#231F20"></path>
                    <path d="M56.6164,13.3216 C56.6164,11.4816 55.1284,9.9906 53.2884,9.9906 C51.4484,9.9906 49.9574,11.4816 49.9574,13.3216 C49.9574,15.1616 51.4484,16.6526 53.2884,16.6526 C55.1284,16.6526 56.6164,15.1616 56.6164,13.3216" id="Fill-29" fill="#231F20"></path>
                    <path d="M126.5568,13.3216 C126.5568,11.4816 125.0658,9.9906 123.2258,9.9906 C121.3858,9.9906 119.8948,11.4816 119.8948,13.3216 C119.8948,15.1616 121.3858,16.6526 123.2258,16.6526 C125.0658,16.6526 126.5568,15.1616 126.5568,13.3216" id="Fill-31" fill="#231F20"></path>
                    <path d="M16.6525,13.3216 C16.6525,11.4816 15.1615,9.9906 13.3215,9.9906 C11.4815,9.9906 9.9935,11.4816 9.9935,13.3216 C9.9935,15.1616 11.4815,16.6526 13.3215,16.6526 C15.1615,16.6526 16.6525,15.1616 16.6525,13.3216" id="Fill-33" fill="#231F20"></path>
                    <path d="M6.6623,13.3216 C6.6623,11.4816 5.1713,9.9906 3.3313,9.9906 C1.4913,9.9906 0.0003,11.4816 0.0003,13.3216 C0.0003,15.1616 1.4913,16.6526 3.3313,16.6526 C5.1713,16.6526 6.6623,15.1616 6.6623,13.3216" id="Fill-35" fill="#231F20"></path>
                    <path d="M46.6262,13.3216 C46.6262,11.4816 45.1352,9.9906 43.2952,9.9906 C41.4552,9.9906 39.9672,11.4816 39.9672,13.3216 C39.9672,15.1616 41.4552,16.6526 43.2952,16.6526 C45.1352,16.6526 46.6262,15.1616 46.6262,13.3216" id="Fill-37" fill="#231F20"></path>
                    <path d="M106.5734,13.3216 C106.5734,11.4816 105.0824,9.9906 103.2424,9.9906 C101.4024,9.9906 99.9114,11.4816 99.9114,13.3216 C99.9114,15.1616 101.4024,16.6526 103.2424,16.6526 C105.0824,16.6526 106.5734,15.1616 106.5734,13.3216" id="Fill-39" fill="#231F20"></path>
                    <path d="M96.5832,13.3216 C96.5832,11.4816 95.0922,9.9906 93.2522,9.9906 C91.4122,9.9906 89.9212,11.4816 89.9212,13.3216 C89.9212,15.1616 91.4122,16.6526 93.2522,16.6526 C95.0922,16.6526 96.5832,15.1616 96.5832,13.3216" id="Fill-41" fill="#231F20"></path>
                    <path d="M116.5637,13.3216 C116.5637,11.4816 115.0727,9.9906 113.2357,9.9906 C111.3957,9.9906 109.9047,11.4816 109.9047,13.3216 C109.9047,15.1616 111.3957,16.6526 113.2357,16.6526 C115.0727,16.6526 116.5637,15.1616 116.5637,13.3216" id="Fill-43" fill="#231F20"></path>
                    <path d="M76.5998,13.3216 C76.5998,11.4816 75.1088,9.9906 73.2688,9.9906 C71.4288,9.9906 69.9378,11.4816 69.9378,13.3216 C69.9378,15.1616 71.4288,16.6526 73.2688,16.6526 C75.1088,16.6526 76.5998,15.1616 76.5998,13.3216" id="Fill-45" fill="#231F20"></path>
                    <path d="M66.6096,13.3216 C66.6096,11.4816 65.1186,9.9906 63.2786,9.9906 C61.4386,9.9906 59.9476,11.4816 59.9476,13.3216 C59.9476,15.1616 61.4386,16.6526 63.2786,16.6526 C65.1186,16.6526 66.6096,15.1616 66.6096,13.3216" id="Fill-47" fill="#231F20"></path>
                    <path d="M46.6262,3.3284 C46.6262,1.4914 45.1352,0.0004 43.2952,0.0004 C41.4552,0.0004 39.9672,1.4914 39.9672,3.3284 C39.9672,5.1684 41.4552,6.6594 43.2952,6.6594 C45.1352,6.6594 46.6262,5.1684 46.6262,3.3284" id="Fill-49" fill="#231F20"></path>
                    <path d="M26.6428,3.3284 C26.6428,1.4914 25.1548,0.0004 23.3148,0.0004 C21.4748,0.0004 19.9838,1.4914 19.9838,3.3284 C19.9838,5.1684 21.4748,6.6594 23.3148,6.6594 C25.1548,6.6594 26.6428,5.1684 26.6428,3.3284" id="Fill-51" fill="#231F20"></path>
                    <path d="M36.6359,3.3284 C36.6359,1.4914 35.1449,0.0004 33.3049,0.0004 C31.4649,0.0004 29.9739,1.4914 29.9739,3.3284 C29.9739,5.1684 31.4649,6.6594 33.3049,6.6594 C35.1449,6.6594 36.6359,5.1684 36.6359,3.3284" id="Fill-53" fill="#231F20"></path>
                    <path d="M56.6164,3.3284 C56.6164,1.4914 55.1284,0.0004 53.2884,0.0004 C51.4484,0.0004 49.9574,1.4914 49.9574,3.3284 C49.9574,5.1684 51.4484,6.6594 53.2884,6.6594 C55.1284,6.6594 56.6164,5.1684 56.6164,3.3284" id="Fill-55" fill="#231F20"></path>
                    <path d="M16.6525,3.3284 C16.6525,1.4914 15.1615,0.0004 13.3215,0.0004 C11.4815,0.0004 9.9935,1.4914 9.9935,3.3284 C9.9935,5.1684 11.4815,6.6594 13.3215,6.6594 C15.1615,6.6594 16.6525,5.1684 16.6525,3.3284" id="Fill-57" fill="#231F20"></path>
                    <path d="M6.6623,3.3284 C6.6623,1.4914 5.1713,0.0004 3.3313,0.0004 C1.4913,0.0004 0.0003,1.4914 0.0003,3.3284 C0.0003,5.1684 1.4913,6.6594 3.3313,6.6594 C5.1713,6.6594 6.6623,5.1684 6.6623,3.3284" id="Fill-59" fill="#231F20"></path>
                    <path d="M236.4582,3.3284 C236.4582,1.4914 234.9672,0.0004 233.1302,0.0004 C231.2902,0.0004 229.7992,1.4914 229.7992,3.3284 C229.7992,5.1684 231.2902,6.6594 233.1302,6.6594 C234.9672,6.6594 236.4582,5.1684 236.4582,3.3284" id="Fill-61" fill="#231F20"></path>
                    <path d="M246.4514,3.3284 C246.4514,1.4914 244.9604,0.0004 243.1204,0.0004 C241.2804,0.0004 239.7894,1.4914 239.7894,3.3284 C239.7894,5.1684 241.2804,6.6594 243.1204,6.6594 C244.9604,6.6594 246.4514,5.1684 246.4514,3.3284" id="Fill-63" fill="#231F20"></path>
                    <path d="M226.468,3.3284 C226.468,1.4914 224.977,0.0004 223.137,0.0004 C221.297,0.0004 219.806,1.4914 219.806,3.3284 C219.806,5.1684 221.297,6.6594 223.137,6.6594 C224.977,6.6594 226.468,5.1684 226.468,3.3284" id="Fill-65" fill="#231F20"></path>
                    <path d="M216.4777,3.3284 C216.4777,1.4914 214.9867,0.0004 213.1467,0.0004 C211.3067,0.0004 209.8157,1.4914 209.8157,3.3284 C209.8157,5.1684 211.3067,6.6594 213.1467,6.6594 C214.9867,6.6594 216.4777,5.1684 216.4777,3.3284" id="Fill-67" fill="#231F20"></path>
                    <path d="M196.4943,3.3284 C196.4943,1.4914 195.0033,0.0004 193.1633,0.0004 C191.3233,0.0004 189.8323,1.4914 189.8323,3.3284 C189.8323,5.1684 191.3233,6.6594 193.1633,6.6594 C195.0033,6.6594 196.4943,5.1684 196.4943,3.3284" id="Fill-69" fill="#231F20"></path>
                    <path d="M206.4846,3.3284 C206.4846,1.4914 204.9936,0.0004 203.1566,0.0004 C201.3166,0.0004 199.8256,1.4914 199.8256,3.3284 C199.8256,5.1684 201.3166,6.6594 203.1566,6.6594 C204.9936,6.6594 206.4846,5.1684 206.4846,3.3284" id="Fill-71" fill="#231F20"></path>
                    <path d="M156.5305,3.3284 C156.5305,1.4914 155.0395,0.0004 153.1995,0.0004 C151.3595,0.0004 149.8685,1.4914 149.8685,3.3284 C149.8685,5.1684 151.3595,6.6594 153.1995,6.6594 C155.0395,6.6594 156.5305,5.1684 156.5305,3.3284" id="Fill-73" fill="#231F20"></path>
                    <path d="M186.5041,3.3284 C186.5041,1.4914 185.0131,0.0004 183.1731,0.0004 C181.3331,0.0004 179.8421,1.4914 179.8421,3.3284 C179.8421,5.1684 181.3331,6.6594 183.1731,6.6594 C185.0131,6.6594 186.5041,5.1684 186.5041,3.3284" id="Fill-75" fill="#231F20"></path>
                    <path d="M116.5637,3.3284 C116.5637,1.4914 115.0727,0.0004 113.2357,0.0004 C111.3957,0.0004 109.9047,1.4914 109.9047,3.3284 C109.9047,5.1684 111.3957,6.6594 113.2357,6.6594 C115.0727,6.6594 116.5637,5.1684 116.5637,3.3284" id="Fill-77" fill="#231F20"></path>
                    <path d="M96.5832,3.3284 C96.5832,1.4914 95.0922,0.0004 93.2522,0.0004 C91.4122,0.0004 89.9212,1.4914 89.9212,3.3284 C89.9212,5.1684 91.4122,6.6594 93.2522,6.6594 C95.0922,6.6594 96.5832,5.1684 96.5832,3.3284" id="Fill-79" fill="#231F20"></path>
                    <path d="M126.5568,3.3284 C126.5568,1.4914 125.0658,0.0004 123.2258,0.0004 C121.3858,0.0004 119.8948,1.4914 119.8948,3.3284 C119.8948,5.1684 121.3858,6.6594 123.2258,6.6594 C125.0658,6.6594 126.5568,5.1684 126.5568,3.3284" id="Fill-81" fill="#231F20"></path>
                    <path d="M76.5998,3.3284 C76.5998,1.4914 75.1088,0.0004 73.2688,0.0004 C71.4288,0.0004 69.9378,1.4914 69.9378,3.3284 C69.9378,5.1684 71.4288,6.6594 73.2688,6.6594 C75.1088,6.6594 76.5998,5.1684 76.5998,3.3284" id="Fill-83" fill="#231F20"></path>
                    <path d="M86.59,3.3284 C86.59,1.4914 85.099,0.0004 83.262,0.0004 C81.422,0.0004 79.931,1.4914 79.931,3.3284 C79.931,5.1684 81.422,6.6594 83.262,6.6594 C85.099,6.6594 86.59,5.1684 86.59,3.3284" id="Fill-85" fill="#231F20"></path>
                    <path d="M106.5734,3.3284 C106.5734,1.4914 105.0824,0.0004 103.2424,0.0004 C101.4024,0.0004 99.9114,1.4914 99.9114,3.3284 C99.9114,5.1684 101.4024,6.6594 103.2424,6.6594 C105.0824,6.6594 106.5734,5.1684 106.5734,3.3284" id="Fill-87" fill="#231F20"></path>
                    <path d="M176.5109,3.3284 C176.5109,1.4914 175.0199,0.0004 173.1829,0.0004 C171.3429,0.0004 169.8519,1.4914 169.8519,3.3284 C169.8519,5.1684 171.3429,6.6594 173.1829,6.6594 C175.0199,6.6594 176.5109,5.1684 176.5109,3.3284" id="Fill-89" fill="#231F20"></path>
                    <path d="M166.5207,3.3284 C166.5207,1.4914 165.0297,0.0004 163.1897,0.0004 C161.3497,0.0004 159.8587,1.4914 159.8587,3.3284 C159.8587,5.1684 161.3497,6.6594 163.1897,6.6594 C165.0297,6.6594 166.5207,5.1684 166.5207,3.3284" id="Fill-91" fill="#231F20"></path>
                    <path d="M146.5373,3.3284 C146.5373,1.4914 145.0463,0.0004 143.2093,0.0004 C141.3693,0.0004 139.8783,1.4914 139.8783,3.3284 C139.8783,5.1684 141.3693,6.6594 143.2093,6.6594 C145.0463,6.6594 146.5373,5.1684 146.5373,3.3284" id="Fill-93" fill="#231F20"></path>
                    <path d="M66.6096,3.3284 C66.6096,1.4914 65.1186,0.0004 63.2786,0.0004 C61.4386,0.0004 59.9476,1.4914 59.9476,3.3284 C59.9476,5.1684 61.4386,6.6594 63.2786,6.6594 C65.1186,6.6594 66.6096,5.1684 66.6096,3.3284" id="Fill-95" fill="#231F20"></path>
                    <path d="M136.5471,3.3284 C136.5471,1.4914 135.0561,0.0004 133.2161,0.0004 C131.3761,0.0004 129.8851,1.4914 129.8851,3.3284 C129.8851,5.1684 131.3761,6.6594 133.2161,6.6594 C135.0561,6.6594 136.5471,5.1684 136.5471,3.3284" id="Fill-97" fill="#231F20"></path>
                    <path d="M86.59,13.3216 C86.59,11.4816 85.099,9.9906 83.262,9.9906 C81.422,9.9906 79.931,11.4816 79.931,13.3216 C79.931,15.1616 81.422,16.6526 83.262,16.6526 C85.099,16.6526 86.59,15.1616 86.59,13.3216" id="Fill-99" fill="#231F20"></path>
                    <path d="M266.4318,13.3216 C266.4318,11.4816 264.9408,9.9906 263.1008,9.9906 C261.2608,9.9906 259.7698,11.4816 259.7698,13.3216 C259.7698,15.1616 261.2608,16.6526 263.1008,16.6526 C264.9408,16.6526 266.4318,15.1616 266.4318,13.3216" id="Fill-101" fill="#231F20"></path>
                    <path d="M256.4416,13.3216 C256.4416,11.4816 254.9506,9.9906 253.1106,9.9906 C251.2706,9.9906 249.7796,11.4816 249.7796,13.3216 C249.7796,15.1616 251.2706,16.6526 253.1106,16.6526 C254.9506,16.6526 256.4416,15.1616 256.4416,13.3216" id="Fill-103" fill="#231F20"></path>
                    <path d="M256.4416,3.3284 C256.4416,1.4914 254.9506,0.0004 253.1106,0.0004 C251.2706,0.0004 249.7796,1.4914 249.7796,3.3284 C249.7796,5.1684 251.2706,6.6594 253.1106,6.6594 C254.9506,6.6594 256.4416,5.1684 256.4416,3.3284" id="Fill-105" fill="#231F20"></path>
                    <path d="M266.4318,3.3284 C266.4318,1.4914 264.9408,0.0004 263.1008,0.0004 C261.2608,0.0004 259.7698,1.4914 259.7698,3.3284 C259.7698,5.1684 261.2608,6.6594 263.1008,6.6594 C264.9408,6.6594 266.4318,5.1684 266.4318,3.3284" id="Fill-107" fill="#231F20"></path>
                    <path d="M176.5109,33.9027 C176.5109,32.0627 175.0199,30.5717 173.1829,30.5717 C171.3429,30.5717 169.8519,32.0627 169.8519,33.9027 C169.8519,35.7427 171.3429,37.2337 173.1829,37.2337 C175.0199,37.2337 176.5109,35.7427 176.5109,33.9027" id="Fill-109" fill="#231F20"></path>
                    <path d="M136.5471,33.9027 C136.5471,32.0627 135.0561,30.5717 133.2161,30.5717 C131.3761,30.5717 129.8851,32.0627 129.8851,33.9027 C129.8851,35.7427 131.3761,37.2337 133.2161,37.2337 C135.0561,37.2337 136.5471,35.7427 136.5471,33.9027" id="Fill-111" fill="#231F20"></path>
                    <path d="M196.4943,33.9027 C196.4943,32.0627 195.0033,30.5717 193.1633,30.5717 C191.3233,30.5717 189.8323,32.0627 189.8323,33.9027 C189.8323,35.7427 191.3233,37.2337 193.1633,37.2337 C195.0033,37.2337 196.4943,35.7427 196.4943,33.9027" id="Fill-113" fill="#231F20"></path>
                    <path d="M166.5207,33.9027 C166.5207,32.0627 165.0297,30.5717 163.1897,30.5717 C161.3497,30.5717 159.8587,32.0627 159.8587,33.9027 C159.8587,35.7427 161.3497,37.2337 163.1897,37.2337 C165.0297,37.2337 166.5207,35.7427 166.5207,33.9027" id="Fill-115" fill="#231F20"></path>
                    <path d="M156.5305,33.9027 C156.5305,32.0627 155.0395,30.5717 153.1995,30.5717 C151.3595,30.5717 149.8685,32.0627 149.8685,33.9027 C149.8685,35.7427 151.3595,37.2337 153.1995,37.2337 C155.0395,37.2337 156.5305,35.7427 156.5305,33.9027" id="Fill-117" fill="#231F20"></path>
                    <path d="M146.5373,33.9027 C146.5373,32.0627 145.0463,30.5717 143.2093,30.5717 C141.3693,30.5717 139.8783,32.0627 139.8783,33.9027 C139.8783,35.7427 141.3693,37.2337 143.2093,37.2337 C145.0463,37.2337 146.5373,35.7427 146.5373,33.9027" id="Fill-119" fill="#231F20"></path>
                    <path d="M186.5041,33.9027 C186.5041,32.0627 185.0131,30.5717 183.1731,30.5717 C181.3331,30.5717 179.8421,32.0627 179.8421,33.9027 C179.8421,35.7427 181.3331,37.2337 183.1731,37.2337 C185.0131,37.2337 186.5041,35.7427 186.5041,33.9027" id="Fill-121" fill="#231F20"></path>
                    <path d="M206.4846,33.9027 C206.4846,32.0627 204.9936,30.5717 203.1566,30.5717 C201.3166,30.5717 199.8256,32.0627 199.8256,33.9027 C199.8256,35.7427 201.3166,37.2337 203.1566,37.2337 C204.9936,37.2337 206.4846,35.7427 206.4846,33.9027" id="Fill-123" fill="#231F20"></path>
                    <path d="M236.4582,33.9027 C236.4582,32.0627 234.9672,30.5717 233.1302,30.5717 C231.2902,30.5717 229.7992,32.0627 229.7992,33.9027 C229.7992,35.7427 231.2902,37.2337 233.1302,37.2337 C234.9672,37.2337 236.4582,35.7427 236.4582,33.9027" id="Fill-125" fill="#231F20"></path>
                    <path d="M226.468,33.9027 C226.468,32.0627 224.977,30.5717 223.137,30.5717 C221.297,30.5717 219.806,32.0627 219.806,33.9027 C219.806,35.7427 221.297,37.2337 223.137,37.2337 C224.977,37.2337 226.468,35.7427 226.468,33.9027" id="Fill-127" fill="#231F20"></path>
                    <path d="M216.4777,33.9027 C216.4777,32.0627 214.9867,30.5717 213.1467,30.5717 C211.3067,30.5717 209.8157,32.0627 209.8157,33.9027 C209.8157,35.7427 211.3067,37.2337 213.1467,37.2337 C214.9867,37.2337 216.4777,35.7427 216.4777,33.9027" id="Fill-129" fill="#231F20"></path>
                    <path d="M246.4514,33.9027 C246.4514,32.0627 244.9604,30.5717 243.1204,30.5717 C241.2804,30.5717 239.7894,32.0627 239.7894,33.9027 C239.7894,35.7427 241.2804,37.2337 243.1204,37.2337 C244.9604,37.2337 246.4514,35.7427 246.4514,33.9027" id="Fill-131" fill="#231F20"></path>
                    <path d="M26.6428,33.9027 C26.6428,32.0627 25.1548,30.5717 23.3148,30.5717 C21.4748,30.5717 19.9838,32.0627 19.9838,33.9027 C19.9838,35.7427 21.4748,37.2337 23.3148,37.2337 C25.1548,37.2337 26.6428,35.7427 26.6428,33.9027" id="Fill-133" fill="#231F20"></path>
                    <path d="M36.6359,33.9027 C36.6359,32.0627 35.1449,30.5717 33.3049,30.5717 C31.4649,30.5717 29.9739,32.0627 29.9739,33.9027 C29.9739,35.7427 31.4649,37.2337 33.3049,37.2337 C35.1449,37.2337 36.6359,35.7427 36.6359,33.9027" id="Fill-135" fill="#231F20"></path>
                    <path d="M56.6164,33.9027 C56.6164,32.0627 55.1284,30.5717 53.2884,30.5717 C51.4484,30.5717 49.9574,32.0627 49.9574,33.9027 C49.9574,35.7427 51.4484,37.2337 53.2884,37.2337 C55.1284,37.2337 56.6164,35.7427 56.6164,33.9027" id="Fill-137" fill="#231F20"></path>
                    <path d="M126.5568,33.9027 C126.5568,32.0627 125.0658,30.5717 123.2258,30.5717 C121.3858,30.5717 119.8948,32.0627 119.8948,33.9027 C119.8948,35.7427 121.3858,37.2337 123.2258,37.2337 C125.0658,37.2337 126.5568,35.7427 126.5568,33.9027" id="Fill-139" fill="#231F20"></path>
                    <path d="M16.6525,33.9027 C16.6525,32.0627 15.1615,30.5717 13.3215,30.5717 C11.4815,30.5717 9.9935,32.0627 9.9935,33.9027 C9.9935,35.7427 11.4815,37.2337 13.3215,37.2337 C15.1615,37.2337 16.6525,35.7427 16.6525,33.9027" id="Fill-141" fill="#231F20"></path>
                    <path d="M6.6623,33.9027 C6.6623,32.0627 5.1713,30.5717 3.3313,30.5717 C1.4913,30.5717 0.0003,32.0627 0.0003,33.9027 C0.0003,35.7427 1.4913,37.2337 3.3313,37.2337 C5.1713,37.2337 6.6623,35.7427 6.6623,33.9027" id="Fill-143" fill="#231F20"></path>
                    <path d="M46.6262,33.9027 C46.6262,32.0627 45.1352,30.5717 43.2952,30.5717 C41.4552,30.5717 39.9672,32.0627 39.9672,33.9027 C39.9672,35.7427 41.4552,37.2337 43.2952,37.2337 C45.1352,37.2337 46.6262,35.7427 46.6262,33.9027" id="Fill-145" fill="#231F20"></path>
                    <path d="M106.5734,33.9027 C106.5734,32.0627 105.0824,30.5717 103.2424,30.5717 C101.4024,30.5717 99.9114,32.0627 99.9114,33.9027 C99.9114,35.7427 101.4024,37.2337 103.2424,37.2337 C105.0824,37.2337 106.5734,35.7427 106.5734,33.9027" id="Fill-147" fill="#231F20"></path>
                    <path d="M96.5832,33.9027 C96.5832,32.0627 95.0922,30.5717 93.2522,30.5717 C91.4122,30.5717 89.9212,32.0627 89.9212,33.9027 C89.9212,35.7427 91.4122,37.2337 93.2522,37.2337 C95.0922,37.2337 96.5832,35.7427 96.5832,33.9027" id="Fill-149" fill="#231F20"></path>
                    <path d="M116.5637,33.9027 C116.5637,32.0627 115.0727,30.5717 113.2357,30.5717 C111.3957,30.5717 109.9047,32.0627 109.9047,33.9027 C109.9047,35.7427 111.3957,37.2337 113.2357,37.2337 C115.0727,37.2337 116.5637,35.7427 116.5637,33.9027" id="Fill-151" fill="#231F20"></path>
                    <path d="M76.5998,33.9027 C76.5998,32.0627 75.1088,30.5717 73.2688,30.5717 C71.4288,30.5717 69.9378,32.0627 69.9378,33.9027 C69.9378,35.7427 71.4288,37.2337 73.2688,37.2337 C75.1088,37.2337 76.5998,35.7427 76.5998,33.9027" id="Fill-153" fill="#231F20"></path>
                    <path d="M66.6096,33.9027 C66.6096,32.0627 65.1186,30.5717 63.2786,30.5717 C61.4386,30.5717 59.9476,32.0627 59.9476,33.9027 C59.9476,35.7427 61.4386,37.2337 63.2786,37.2337 C65.1186,37.2337 66.6096,35.7427 66.6096,33.9027" id="Fill-155" fill="#231F20"></path>
                    <path d="M46.6262,23.9095 C46.6262,22.0725 45.1352,20.5815 43.2952,20.5815 C41.4552,20.5815 39.9672,22.0725 39.9672,23.9095 C39.9672,25.7495 41.4552,27.2405 43.2952,27.2405 C45.1352,27.2405 46.6262,25.7495 46.6262,23.9095" id="Fill-157" fill="#231F20"></path>
                    <path d="M26.6428,23.9095 C26.6428,22.0725 25.1548,20.5815 23.3148,20.5815 C21.4748,20.5815 19.9838,22.0725 19.9838,23.9095 C19.9838,25.7495 21.4748,27.2405 23.3148,27.2405 C25.1548,27.2405 26.6428,25.7495 26.6428,23.9095" id="Fill-159" fill="#231F20"></path>
                    <path d="M36.6359,23.9095 C36.6359,22.0725 35.1449,20.5815 33.3049,20.5815 C31.4649,20.5815 29.9739,22.0725 29.9739,23.9095 C29.9739,25.7495 31.4649,27.2405 33.3049,27.2405 C35.1449,27.2405 36.6359,25.7495 36.6359,23.9095" id="Fill-161" fill="#231F20"></path>
                    <path d="M56.6164,23.9095 C56.6164,22.0725 55.1284,20.5815 53.2884,20.5815 C51.4484,20.5815 49.9574,22.0725 49.9574,23.9095 C49.9574,25.7495 51.4484,27.2405 53.2884,27.2405 C55.1284,27.2405 56.6164,25.7495 56.6164,23.9095" id="Fill-163" fill="#231F20"></path>
                    <path d="M16.6525,23.9095 C16.6525,22.0725 15.1615,20.5815 13.3215,20.5815 C11.4815,20.5815 9.9935,22.0725 9.9935,23.9095 C9.9935,25.7495 11.4815,27.2405 13.3215,27.2405 C15.1615,27.2405 16.6525,25.7495 16.6525,23.9095" id="Fill-165" fill="#231F20"></path>
                    <path d="M6.6623,23.9095 C6.6623,22.0725 5.1713,20.5815 3.3313,20.5815 C1.4913,20.5815 0.0003,22.0725 0.0003,23.9095 C0.0003,25.7495 1.4913,27.2405 3.3313,27.2405 C5.1713,27.2405 6.6623,25.7495 6.6623,23.9095" id="Fill-167" fill="#231F20"></path>
                    <path d="M236.4582,23.9095 C236.4582,22.0725 234.9672,20.5815 233.1302,20.5815 C231.2902,20.5815 229.7992,22.0725 229.7992,23.9095 C229.7992,25.7495 231.2902,27.2405 233.1302,27.2405 C234.9672,27.2405 236.4582,25.7495 236.4582,23.9095" id="Fill-169" fill="#231F20"></path>
                    <path d="M246.4514,23.9095 C246.4514,22.0725 244.9604,20.5815 243.1204,20.5815 C241.2804,20.5815 239.7894,22.0725 239.7894,23.9095 C239.7894,25.7495 241.2804,27.2405 243.1204,27.2405 C244.9604,27.2405 246.4514,25.7495 246.4514,23.9095" id="Fill-171" fill="#231F20"></path>
                    <path d="M226.468,23.9095 C226.468,22.0725 224.977,20.5815 223.137,20.5815 C221.297,20.5815 219.806,22.0725 219.806,23.9095 C219.806,25.7495 221.297,27.2405 223.137,27.2405 C224.977,27.2405 226.468,25.7495 226.468,23.9095" id="Fill-173" fill="#231F20"></path>
                    <path d="M216.4777,23.9095 C216.4777,22.0725 214.9867,20.5815 213.1467,20.5815 C211.3067,20.5815 209.8157,22.0725 209.8157,23.9095 C209.8157,25.7495 211.3067,27.2405 213.1467,27.2405 C214.9867,27.2405 216.4777,25.7495 216.4777,23.9095" id="Fill-175" fill="#231F20"></path>
                    <path d="M196.4943,23.9095 C196.4943,22.0725 195.0033,20.5815 193.1633,20.5815 C191.3233,20.5815 189.8323,22.0725 189.8323,23.9095 C189.8323,25.7495 191.3233,27.2405 193.1633,27.2405 C195.0033,27.2405 196.4943,25.7495 196.4943,23.9095" id="Fill-177" fill="#231F20"></path>
                    <path d="M206.4846,23.9095 C206.4846,22.0725 204.9936,20.5815 203.1566,20.5815 C201.3166,20.5815 199.8256,22.0725 199.8256,23.9095 C199.8256,25.7495 201.3166,27.2405 203.1566,27.2405 C204.9936,27.2405 206.4846,25.7495 206.4846,23.9095" id="Fill-179" fill="#231F20"></path>
                    <path d="M156.5305,23.9095 C156.5305,22.0725 155.0395,20.5815 153.1995,20.5815 C151.3595,20.5815 149.8685,22.0725 149.8685,23.9095 C149.8685,25.7495 151.3595,27.2405 153.1995,27.2405 C155.0395,27.2405 156.5305,25.7495 156.5305,23.9095" id="Fill-181" fill="#231F20"></path>
                    <path d="M186.5041,23.9095 C186.5041,22.0725 185.0131,20.5815 183.1731,20.5815 C181.3331,20.5815 179.8421,22.0725 179.8421,23.9095 C179.8421,25.7495 181.3331,27.2405 183.1731,27.2405 C185.0131,27.2405 186.5041,25.7495 186.5041,23.9095" id="Fill-183" fill="#231F20"></path>
                    <path d="M116.5637,23.9095 C116.5637,22.0725 115.0727,20.5815 113.2357,20.5815 C111.3957,20.5815 109.9047,22.0725 109.9047,23.9095 C109.9047,25.7495 111.3957,27.2405 113.2357,27.2405 C115.0727,27.2405 116.5637,25.7495 116.5637,23.9095" id="Fill-185" fill="#231F20"></path>
                    <path d="M96.5832,23.9095 C96.5832,22.0725 95.0922,20.5815 93.2522,20.5815 C91.4122,20.5815 89.9212,22.0725 89.9212,23.9095 C89.9212,25.7495 91.4122,27.2405 93.2522,27.2405 C95.0922,27.2405 96.5832,25.7495 96.5832,23.9095" id="Fill-187" fill="#231F20"></path>
                    <path d="M126.5568,23.9095 C126.5568,22.0725 125.0658,20.5815 123.2258,20.5815 C121.3858,20.5815 119.8948,22.0725 119.8948,23.9095 C119.8948,25.7495 121.3858,27.2405 123.2258,27.2405 C125.0658,27.2405 126.5568,25.7495 126.5568,23.9095" id="Fill-189" fill="#231F20"></path>
                    <path d="M76.5998,23.9095 C76.5998,22.0725 75.1088,20.5815 73.2688,20.5815 C71.4288,20.5815 69.9378,22.0725 69.9378,23.9095 C69.9378,25.7495 71.4288,27.2405 73.2688,27.2405 C75.1088,27.2405 76.5998,25.7495 76.5998,23.9095" id="Fill-191" fill="#231F20"></path>
                    <path d="M86.59,23.9095 C86.59,22.0725 85.099,20.5815 83.262,20.5815 C81.422,20.5815 79.931,22.0725 79.931,23.9095 C79.931,25.7495 81.422,27.2405 83.262,27.2405 C85.099,27.2405 86.59,25.7495 86.59,23.9095" id="Fill-193" fill="#231F20"></path>
                    <path d="M106.5734,23.9095 C106.5734,22.0725 105.0824,20.5815 103.2424,20.5815 C101.4024,20.5815 99.9114,22.0725 99.9114,23.9095 C99.9114,25.7495 101.4024,27.2405 103.2424,27.2405 C105.0824,27.2405 106.5734,25.7495 106.5734,23.9095" id="Fill-195" fill="#231F20"></path>
                    <path d="M176.5109,23.9095 C176.5109,22.0725 175.0199,20.5815 173.1829,20.5815 C171.3429,20.5815 169.8519,22.0725 169.8519,23.9095 C169.8519,25.7495 171.3429,27.2405 173.1829,27.2405 C175.0199,27.2405 176.5109,25.7495 176.5109,23.9095" id="Fill-197" fill="#231F20"></path>
                    <path d="M166.5207,23.9095 C166.5207,22.0725 165.0297,20.5815 163.1897,20.5815 C161.3497,20.5815 159.8587,22.0725 159.8587,23.9095 C159.8587,25.7495 161.3497,27.2405 163.1897,27.2405 C165.0297,27.2405 166.5207,25.7495 166.5207,23.9095" id="Fill-199" fill="#231F20"></path>
                    <path d="M146.5373,23.9095 C146.5373,22.0725 145.0463,20.5815 143.2093,20.5815 C141.3693,20.5815 139.8783,22.0725 139.8783,23.9095 C139.8783,25.7495 141.3693,27.2405 143.2093,27.2405 C145.0463,27.2405 146.5373,25.7495 146.5373,23.9095" id="Fill-201" fill="#231F20"></path>
                    <path d="M66.6096,23.9095 C66.6096,22.0725 65.1186,20.5815 63.2786,20.5815 C61.4386,20.5815 59.9476,22.0725 59.9476,23.9095 C59.9476,25.7495 61.4386,27.2405 63.2786,27.2405 C65.1186,27.2405 66.6096,25.7495 66.6096,23.9095" id="Fill-203" fill="#231F20"></path>
                    <path d="M136.5471,23.9095 C136.5471,22.0725 135.0561,20.5815 133.2161,20.5815 C131.3761,20.5815 129.8851,22.0725 129.8851,23.9095 C129.8851,25.7495 131.3761,27.2405 133.2161,27.2405 C135.0561,27.2405 136.5471,25.7495 136.5471,23.9095" id="Fill-205" fill="#231F20"></path>
                    <path d="M86.59,33.9027 C86.59,32.0627 85.099,30.5717 83.262,30.5717 C81.422,30.5717 79.931,32.0627 79.931,33.9027 C79.931,35.7427 81.422,37.2337 83.262,37.2337 C85.099,37.2337 86.59,35.7427 86.59,33.9027" id="Fill-207" fill="#231F20"></path>
                    <path d="M176.5109,73.8753 C176.5109,72.0353 175.0199,70.5443 173.1829,70.5443 C171.3429,70.5443 169.8519,72.0353 169.8519,73.8753 C169.8519,75.7153 171.3429,77.2063 173.1829,77.2063 C175.0199,77.2063 176.5109,75.7153 176.5109,73.8753" id="Fill-209" fill="#231F20"></path>
                    <path d="M136.5471,73.8753 C136.5471,72.0353 135.0561,70.5443 133.2161,70.5443 C131.3761,70.5443 129.8851,72.0353 129.8851,73.8753 C129.8851,75.7153 131.3761,77.2063 133.2161,77.2063 C135.0561,77.2063 136.5471,75.7153 136.5471,73.8753" id="Fill-211" fill="#231F20"></path>
                    <path d="M196.4943,73.8753 C196.4943,72.0353 195.0033,70.5443 193.1633,70.5443 C191.3233,70.5443 189.8323,72.0353 189.8323,73.8753 C189.8323,75.7153 191.3233,77.2063 193.1633,77.2063 C195.0033,77.2063 196.4943,75.7153 196.4943,73.8753" id="Fill-213" fill="#231F20"></path>
                    <path d="M166.5207,73.8753 C166.5207,72.0353 165.0297,70.5443 163.1897,70.5443 C161.3497,70.5443 159.8587,72.0353 159.8587,73.8753 C159.8587,75.7153 161.3497,77.2063 163.1897,77.2063 C165.0297,77.2063 166.5207,75.7153 166.5207,73.8753" id="Fill-215" fill="#231F20"></path>
                    <path d="M156.5305,73.8753 C156.5305,72.0353 155.0395,70.5443 153.1995,70.5443 C151.3595,70.5443 149.8685,72.0353 149.8685,73.8753 C149.8685,75.7153 151.3595,77.2063 153.1995,77.2063 C155.0395,77.2063 156.5305,75.7153 156.5305,73.8753" id="Fill-217" fill="#231F20"></path>
                    <path d="M146.5373,73.8753 C146.5373,72.0353 145.0463,70.5443 143.2093,70.5443 C141.3693,70.5443 139.8783,72.0353 139.8783,73.8753 C139.8783,75.7153 141.3693,77.2063 143.2093,77.2063 C145.0463,77.2063 146.5373,75.7153 146.5373,73.8753" id="Fill-219" fill="#231F20"></path>
                    <path d="M186.5041,73.8753 C186.5041,72.0353 185.0131,70.5443 183.1731,70.5443 C181.3331,70.5443 179.8421,72.0353 179.8421,73.8753 C179.8421,75.7153 181.3331,77.2063 183.1731,77.2063 C185.0131,77.2063 186.5041,75.7153 186.5041,73.8753" id="Fill-221" fill="#231F20"></path>
                    <path d="M206.4846,73.8753 C206.4846,72.0353 204.9936,70.5443 203.1566,70.5443 C201.3166,70.5443 199.8256,72.0353 199.8256,73.8753 C199.8256,75.7153 201.3166,77.2063 203.1566,77.2063 C204.9936,77.2063 206.4846,75.7153 206.4846,73.8753" id="Fill-223" fill="#231F20"></path>
                    <path d="M236.4582,73.8753 C236.4582,72.0353 234.9672,70.5443 233.1302,70.5443 C231.2902,70.5443 229.7992,72.0353 229.7992,73.8753 C229.7992,75.7153 231.2902,77.2063 233.1302,77.2063 C234.9672,77.2063 236.4582,75.7153 236.4582,73.8753" id="Fill-225" fill="#231F20"></path>
                    <path d="M226.468,73.8753 C226.468,72.0353 224.977,70.5443 223.137,70.5443 C221.297,70.5443 219.806,72.0353 219.806,73.8753 C219.806,75.7153 221.297,77.2063 223.137,77.2063 C224.977,77.2063 226.468,75.7153 226.468,73.8753" id="Fill-227" fill="#231F20"></path>
                    <path d="M216.4777,73.8753 C216.4777,72.0353 214.9867,70.5443 213.1467,70.5443 C211.3067,70.5443 209.8157,72.0353 209.8157,73.8753 C209.8157,75.7153 211.3067,77.2063 213.1467,77.2063 C214.9867,77.2063 216.4777,75.7153 216.4777,73.8753" id="Fill-229" fill="#231F20"></path>
                    <path d="M246.4514,73.8753 C246.4514,72.0353 244.9604,70.5443 243.1204,70.5443 C241.2804,70.5443 239.7894,72.0353 239.7894,73.8753 C239.7894,75.7153 241.2804,77.2063 243.1204,77.2063 C244.9604,77.2063 246.4514,75.7153 246.4514,73.8753" id="Fill-231" fill="#231F20"></path>
                    <path d="M26.6428,73.8753 C26.6428,72.0353 25.1548,70.5443 23.3148,70.5443 C21.4748,70.5443 19.9838,72.0353 19.9838,73.8753 C19.9838,75.7153 21.4748,77.2063 23.3148,77.2063 C25.1548,77.2063 26.6428,75.7153 26.6428,73.8753" id="Fill-233" fill="#231F20"></path>
                    <path d="M36.6359,73.8753 C36.6359,72.0353 35.1449,70.5443 33.3049,70.5443 C31.4649,70.5443 29.9739,72.0353 29.9739,73.8753 C29.9739,75.7153 31.4649,77.2063 33.3049,77.2063 C35.1449,77.2063 36.6359,75.7153 36.6359,73.8753" id="Fill-235" fill="#231F20"></path>
                    <path d="M56.6164,73.8753 C56.6164,72.0353 55.1284,70.5443 53.2884,70.5443 C51.4484,70.5443 49.9574,72.0353 49.9574,73.8753 C49.9574,75.7153 51.4484,77.2063 53.2884,77.2063 C55.1284,77.2063 56.6164,75.7153 56.6164,73.8753" id="Fill-237" fill="#231F20"></path>
                    <path d="M126.5568,73.8753 C126.5568,72.0353 125.0658,70.5443 123.2258,70.5443 C121.3858,70.5443 119.8948,72.0353 119.8948,73.8753 C119.8948,75.7153 121.3858,77.2063 123.2258,77.2063 C125.0658,77.2063 126.5568,75.7153 126.5568,73.8753" id="Fill-239" fill="#231F20"></path>
                    <path d="M16.6525,73.8753 C16.6525,72.0353 15.1615,70.5443 13.3215,70.5443 C11.4815,70.5443 9.9935,72.0353 9.9935,73.8753 C9.9935,75.7153 11.4815,77.2063 13.3215,77.2063 C15.1615,77.2063 16.6525,75.7153 16.6525,73.8753" id="Fill-241" fill="#231F20"></path>
                    <path d="M6.6623,73.8753 C6.6623,72.0353 5.1713,70.5443 3.3313,70.5443 C1.4913,70.5443 0.0003,72.0353 0.0003,73.8753 C0.0003,75.7153 1.4913,77.2063 3.3313,77.2063 C5.1713,77.2063 6.6623,75.7153 6.6623,73.8753" id="Fill-243" fill="#231F20"></path>
                    <path d="M46.6262,73.8753 C46.6262,72.0353 45.1352,70.5443 43.2952,70.5443 C41.4552,70.5443 39.9672,72.0353 39.9672,73.8753 C39.9672,75.7153 41.4552,77.2063 43.2952,77.2063 C45.1352,77.2063 46.6262,75.7153 46.6262,73.8753" id="Fill-245" fill="#231F20"></path>
                    <path d="M106.5734,73.8753 C106.5734,72.0353 105.0824,70.5443 103.2424,70.5443 C101.4024,70.5443 99.9114,72.0353 99.9114,73.8753 C99.9114,75.7153 101.4024,77.2063 103.2424,77.2063 C105.0824,77.2063 106.5734,75.7153 106.5734,73.8753" id="Fill-247" fill="#231F20"></path>
                    <path d="M96.5832,73.8753 C96.5832,72.0353 95.0922,70.5443 93.2522,70.5443 C91.4122,70.5443 89.9212,72.0353 89.9212,73.8753 C89.9212,75.7153 91.4122,77.2063 93.2522,77.2063 C95.0922,77.2063 96.5832,75.7153 96.5832,73.8753" id="Fill-249" fill="#231F20"></path>
                    <path d="M116.5637,73.8753 C116.5637,72.0353 115.0727,70.5443 113.2357,70.5443 C111.3957,70.5443 109.9047,72.0353 109.9047,73.8753 C109.9047,75.7153 111.3957,77.2063 113.2357,77.2063 C115.0727,77.2063 116.5637,75.7153 116.5637,73.8753" id="Fill-251" fill="#231F20"></path>
                    <path d="M76.5998,73.8753 C76.5998,72.0353 75.1088,70.5443 73.2688,70.5443 C71.4288,70.5443 69.9378,72.0353 69.9378,73.8753 C69.9378,75.7153 71.4288,77.2063 73.2688,77.2063 C75.1088,77.2063 76.5998,75.7153 76.5998,73.8753" id="Fill-253" fill="#231F20"></path>
                    <path d="M66.6096,73.8753 C66.6096,72.0353 65.1186,70.5443 63.2786,70.5443 C61.4386,70.5443 59.9476,72.0353 59.9476,73.8753 C59.9476,75.7153 61.4386,77.2063 63.2786,77.2063 C65.1186,77.2063 66.6096,75.7153 66.6096,73.8753" id="Fill-255" fill="#231F20"></path>
                    <path d="M46.6262,63.8821 C46.6262,62.0451 45.1352,60.5541 43.2952,60.5541 C41.4552,60.5541 39.9672,62.0451 39.9672,63.8821 C39.9672,65.7221 41.4552,67.2131 43.2952,67.2131 C45.1352,67.2131 46.6262,65.7221 46.6262,63.8821" id="Fill-257" fill="#231F20"></path>
                    <path d="M26.6428,63.8821 C26.6428,62.0451 25.1548,60.5541 23.3148,60.5541 C21.4748,60.5541 19.9838,62.0451 19.9838,63.8821 C19.9838,65.7221 21.4748,67.2131 23.3148,67.2131 C25.1548,67.2131 26.6428,65.7221 26.6428,63.8821" id="Fill-259" fill="#231F20"></path>
                    <path d="M36.6359,63.8821 C36.6359,62.0451 35.1449,60.5541 33.3049,60.5541 C31.4649,60.5541 29.9739,62.0451 29.9739,63.8821 C29.9739,65.7221 31.4649,67.2131 33.3049,67.2131 C35.1449,67.2131 36.6359,65.7221 36.6359,63.8821" id="Fill-261" fill="#231F20"></path>
                    <path d="M56.6164,63.8821 C56.6164,62.0451 55.1284,60.5541 53.2884,60.5541 C51.4484,60.5541 49.9574,62.0451 49.9574,63.8821 C49.9574,65.7221 51.4484,67.2131 53.2884,67.2131 C55.1284,67.2131 56.6164,65.7221 56.6164,63.8821" id="Fill-263" fill="#231F20"></path>
                    <path d="M16.6525,63.8821 C16.6525,62.0451 15.1615,60.5541 13.3215,60.5541 C11.4815,60.5541 9.9935,62.0451 9.9935,63.8821 C9.9935,65.7221 11.4815,67.2131 13.3215,67.2131 C15.1615,67.2131 16.6525,65.7221 16.6525,63.8821" id="Fill-265" fill="#231F20"></path>
                    <path d="M6.6623,63.8821 C6.6623,62.0451 5.1713,60.5541 3.3313,60.5541 C1.4913,60.5541 0.0003,62.0451 0.0003,63.8821 C0.0003,65.7221 1.4913,67.2131 3.3313,67.2131 C5.1713,67.2131 6.6623,65.7221 6.6623,63.8821" id="Fill-267" fill="#231F20"></path>
                    <path d="M236.4582,63.8821 C236.4582,62.0451 234.9672,60.5541 233.1302,60.5541 C231.2902,60.5541 229.7992,62.0451 229.7992,63.8821 C229.7992,65.7221 231.2902,67.2131 233.1302,67.2131 C234.9672,67.2131 236.4582,65.7221 236.4582,63.8821" id="Fill-269" fill="#231F20"></path>
                    <path d="M246.4514,63.8821 C246.4514,62.0451 244.9604,60.5541 243.1204,60.5541 C241.2804,60.5541 239.7894,62.0451 239.7894,63.8821 C239.7894,65.7221 241.2804,67.2131 243.1204,67.2131 C244.9604,67.2131 246.4514,65.7221 246.4514,63.8821" id="Fill-271" fill="#231F20"></path>
                    <path d="M226.468,63.8821 C226.468,62.0451 224.977,60.5541 223.137,60.5541 C221.297,60.5541 219.806,62.0451 219.806,63.8821 C219.806,65.7221 221.297,67.2131 223.137,67.2131 C224.977,67.2131 226.468,65.7221 226.468,63.8821" id="Fill-273" fill="#231F20"></path>
                    <path d="M216.4777,63.8821 C216.4777,62.0451 214.9867,60.5541 213.1467,60.5541 C211.3067,60.5541 209.8157,62.0451 209.8157,63.8821 C209.8157,65.7221 211.3067,67.2131 213.1467,67.2131 C214.9867,67.2131 216.4777,65.7221 216.4777,63.8821" id="Fill-275" fill="#231F20"></path>
                    <path d="M196.4943,63.8821 C196.4943,62.0451 195.0033,60.5541 193.1633,60.5541 C191.3233,60.5541 189.8323,62.0451 189.8323,63.8821 C189.8323,65.7221 191.3233,67.2131 193.1633,67.2131 C195.0033,67.2131 196.4943,65.7221 196.4943,63.8821" id="Fill-277" fill="#231F20"></path>
                    <path d="M206.4846,63.8821 C206.4846,62.0451 204.9936,60.5541 203.1566,60.5541 C201.3166,60.5541 199.8256,62.0451 199.8256,63.8821 C199.8256,65.7221 201.3166,67.2131 203.1566,67.2131 C204.9936,67.2131 206.4846,65.7221 206.4846,63.8821" id="Fill-279" fill="#231F20"></path>
                    <path d="M156.5305,63.8821 C156.5305,62.0451 155.0395,60.5541 153.1995,60.5541 C151.3595,60.5541 149.8685,62.0451 149.8685,63.8821 C149.8685,65.7221 151.3595,67.2131 153.1995,67.2131 C155.0395,67.2131 156.5305,65.7221 156.5305,63.8821" id="Fill-281" fill="#231F20"></path>
                    <path d="M186.5041,63.8821 C186.5041,62.0451 185.0131,60.5541 183.1731,60.5541 C181.3331,60.5541 179.8421,62.0451 179.8421,63.8821 C179.8421,65.7221 181.3331,67.2131 183.1731,67.2131 C185.0131,67.2131 186.5041,65.7221 186.5041,63.8821" id="Fill-283" fill="#231F20"></path>
                    <path d="M116.5637,63.8821 C116.5637,62.0451 115.0727,60.5541 113.2357,60.5541 C111.3957,60.5541 109.9047,62.0451 109.9047,63.8821 C109.9047,65.7221 111.3957,67.2131 113.2357,67.2131 C115.0727,67.2131 116.5637,65.7221 116.5637,63.8821" id="Fill-285" fill="#231F20"></path>
                    <path d="M96.5832,63.8821 C96.5832,62.0451 95.0922,60.5541 93.2522,60.5541 C91.4122,60.5541 89.9212,62.0451 89.9212,63.8821 C89.9212,65.7221 91.4122,67.2131 93.2522,67.2131 C95.0922,67.2131 96.5832,65.7221 96.5832,63.8821" id="Fill-287" fill="#231F20"></path>
                    <path d="M126.5568,63.8821 C126.5568,62.0451 125.0658,60.5541 123.2258,60.5541 C121.3858,60.5541 119.8948,62.0451 119.8948,63.8821 C119.8948,65.7221 121.3858,67.2131 123.2258,67.2131 C125.0658,67.2131 126.5568,65.7221 126.5568,63.8821" id="Fill-289" fill="#231F20"></path>
                    <path d="M76.5998,63.8821 C76.5998,62.0451 75.1088,60.5541 73.2688,60.5541 C71.4288,60.5541 69.9378,62.0451 69.9378,63.8821 C69.9378,65.7221 71.4288,67.2131 73.2688,67.2131 C75.1088,67.2131 76.5998,65.7221 76.5998,63.8821" id="Fill-291" fill="#231F20"></path>
                    <path d="M86.59,63.8821 C86.59,62.0451 85.099,60.5541 83.262,60.5541 C81.422,60.5541 79.931,62.0451 79.931,63.8821 C79.931,65.7221 81.422,67.2131 83.262,67.2131 C85.099,67.2131 86.59,65.7221 86.59,63.8821" id="Fill-293" fill="#231F20"></path>
                    <path d="M106.5734,63.8821 C106.5734,62.0451 105.0824,60.5541 103.2424,60.5541 C101.4024,60.5541 99.9114,62.0451 99.9114,63.8821 C99.9114,65.7221 101.4024,67.2131 103.2424,67.2131 C105.0824,67.2131 106.5734,65.7221 106.5734,63.8821" id="Fill-295" fill="#231F20"></path>
                    <path d="M176.5109,63.8821 C176.5109,62.0451 175.0199,60.5541 173.1829,60.5541 C171.3429,60.5541 169.8519,62.0451 169.8519,63.8821 C169.8519,65.7221 171.3429,67.2131 173.1829,67.2131 C175.0199,67.2131 176.5109,65.7221 176.5109,63.8821" id="Fill-297" fill="#231F20"></path>
                    <path d="M166.5207,63.8821 C166.5207,62.0451 165.0297,60.5541 163.1897,60.5541 C161.3497,60.5541 159.8587,62.0451 159.8587,63.8821 C159.8587,65.7221 161.3497,67.2131 163.1897,67.2131 C165.0297,67.2131 166.5207,65.7221 166.5207,63.8821" id="Fill-299" fill="#231F20"></path>
                    <path d="M146.5373,63.8821 C146.5373,62.0451 145.0463,60.5541 143.2093,60.5541 C141.3693,60.5541 139.8783,62.0451 139.8783,63.8821 C139.8783,65.7221 141.3693,67.2131 143.2093,67.2131 C145.0463,67.2131 146.5373,65.7221 146.5373,63.8821" id="Fill-301" fill="#231F20"></path>
                    <path d="M66.6096,63.8821 C66.6096,62.0451 65.1186,60.5541 63.2786,60.5541 C61.4386,60.5541 59.9476,62.0451 59.9476,63.8821 C59.9476,65.7221 61.4386,67.2131 63.2786,67.2131 C65.1186,67.2131 66.6096,65.7221 66.6096,63.8821" id="Fill-303" fill="#231F20"></path>
                    <path d="M136.5471,63.8821 C136.5471,62.0451 135.0561,60.5541 133.2161,60.5541 C131.3761,60.5541 129.8851,62.0451 129.8851,63.8821 C129.8851,65.7221 131.3761,67.2131 133.2161,67.2131 C135.0561,67.2131 136.5471,65.7221 136.5471,63.8821" id="Fill-305" fill="#231F20"></path>
                    <path d="M86.59,73.8753 C86.59,72.0353 85.099,70.5443 83.262,70.5443 C81.422,70.5443 79.931,72.0353 79.931,73.8753 C79.931,75.7153 81.422,77.2063 83.262,77.2063 C85.099,77.2063 86.59,75.7153 86.59,73.8753" id="Fill-307" fill="#231F20"></path>
                    <path d="M46.6262,53.889 C46.6262,52.052 45.1352,50.561 43.2952,50.561 C41.4552,50.561 39.9672,52.052 39.9672,53.889 C39.9672,55.729 41.4552,57.22 43.2952,57.22 C45.1352,57.22 46.6262,55.729 46.6262,53.889" id="Fill-309" fill="#231F20"></path>
                    <path d="M26.6428,53.889 C26.6428,52.052 25.1548,50.561 23.3148,50.561 C21.4748,50.561 19.9838,52.052 19.9838,53.889 C19.9838,55.729 21.4748,57.22 23.3148,57.22 C25.1548,57.22 26.6428,55.729 26.6428,53.889" id="Fill-311" fill="#231F20"></path>
                    <path d="M36.6359,53.889 C36.6359,52.052 35.1449,50.561 33.3049,50.561 C31.4649,50.561 29.9739,52.052 29.9739,53.889 C29.9739,55.729 31.4649,57.22 33.3049,57.22 C35.1449,57.22 36.6359,55.729 36.6359,53.889" id="Fill-313" fill="#231F20"></path>
                    <path d="M56.6164,53.889 C56.6164,52.052 55.1284,50.561 53.2884,50.561 C51.4484,50.561 49.9574,52.052 49.9574,53.889 C49.9574,55.729 51.4484,57.22 53.2884,57.22 C55.1284,57.22 56.6164,55.729 56.6164,53.889" id="Fill-315" fill="#231F20"></path>
                    <path d="M16.6525,53.889 C16.6525,52.052 15.1615,50.561 13.3215,50.561 C11.4815,50.561 9.9935,52.052 9.9935,53.889 C9.9935,55.729 11.4815,57.22 13.3215,57.22 C15.1615,57.22 16.6525,55.729 16.6525,53.889" id="Fill-317" fill="#231F20"></path>
                    <path d="M6.6623,53.889 C6.6623,52.052 5.1713,50.561 3.3313,50.561 C1.4913,50.561 0.0003,52.052 0.0003,53.889 C0.0003,55.729 1.4913,57.22 3.3313,57.22 C5.1713,57.22 6.6623,55.729 6.6623,53.889" id="Fill-319" fill="#231F20"></path>
                    <path d="M236.4582,53.889 C236.4582,52.052 234.9672,50.561 233.1302,50.561 C231.2902,50.561 229.7992,52.052 229.7992,53.889 C229.7992,55.729 231.2902,57.22 233.1302,57.22 C234.9672,57.22 236.4582,55.729 236.4582,53.889" id="Fill-321" fill="#231F20"></path>
                    <path d="M246.4514,53.889 C246.4514,52.052 244.9604,50.561 243.1204,50.561 C241.2804,50.561 239.7894,52.052 239.7894,53.889 C239.7894,55.729 241.2804,57.22 243.1204,57.22 C244.9604,57.22 246.4514,55.729 246.4514,53.889" id="Fill-323" fill="#231F20"></path>
                    <path d="M226.468,53.889 C226.468,52.052 224.977,50.561 223.137,50.561 C221.297,50.561 219.806,52.052 219.806,53.889 C219.806,55.729 221.297,57.22 223.137,57.22 C224.977,57.22 226.468,55.729 226.468,53.889" id="Fill-325" fill="#231F20"></path>
                    <path d="M216.4777,53.889 C216.4777,52.052 214.9867,50.561 213.1467,50.561 C211.3067,50.561 209.8157,52.052 209.8157,53.889 C209.8157,55.729 211.3067,57.22 213.1467,57.22 C214.9867,57.22 216.4777,55.729 216.4777,53.889" id="Fill-327" fill="#231F20"></path>
                    <path d="M196.4943,53.889 C196.4943,52.052 195.0033,50.561 193.1633,50.561 C191.3233,50.561 189.8323,52.052 189.8323,53.889 C189.8323,55.729 191.3233,57.22 193.1633,57.22 C195.0033,57.22 196.4943,55.729 196.4943,53.889" id="Fill-329" fill="#231F20"></path>
                    <path d="M206.4846,53.889 C206.4846,52.052 204.9936,50.561 203.1566,50.561 C201.3166,50.561 199.8256,52.052 199.8256,53.889 C199.8256,55.729 201.3166,57.22 203.1566,57.22 C204.9936,57.22 206.4846,55.729 206.4846,53.889" id="Fill-331" fill="#231F20"></path>
                    <path d="M156.5305,53.889 C156.5305,52.052 155.0395,50.561 153.1995,50.561 C151.3595,50.561 149.8685,52.052 149.8685,53.889 C149.8685,55.729 151.3595,57.22 153.1995,57.22 C155.0395,57.22 156.5305,55.729 156.5305,53.889" id="Fill-333" fill="#231F20"></path>
                    <path d="M186.5041,53.889 C186.5041,52.052 185.0131,50.561 183.1731,50.561 C181.3331,50.561 179.8421,52.052 179.8421,53.889 C179.8421,55.729 181.3331,57.22 183.1731,57.22 C185.0131,57.22 186.5041,55.729 186.5041,53.889" id="Fill-335" fill="#231F20"></path>
                    <path d="M116.5637,53.889 C116.5637,52.052 115.0727,50.561 113.2357,50.561 C111.3957,50.561 109.9047,52.052 109.9047,53.889 C109.9047,55.729 111.3957,57.22 113.2357,57.22 C115.0727,57.22 116.5637,55.729 116.5637,53.889" id="Fill-337" fill="#231F20"></path>
                    <path d="M96.5832,53.889 C96.5832,52.052 95.0922,50.561 93.2522,50.561 C91.4122,50.561 89.9212,52.052 89.9212,53.889 C89.9212,55.729 91.4122,57.22 93.2522,57.22 C95.0922,57.22 96.5832,55.729 96.5832,53.889" id="Fill-339" fill="#231F20"></path>
                    <path d="M126.5568,53.889 C126.5568,52.052 125.0658,50.561 123.2258,50.561 C121.3858,50.561 119.8948,52.052 119.8948,53.889 C119.8948,55.729 121.3858,57.22 123.2258,57.22 C125.0658,57.22 126.5568,55.729 126.5568,53.889" id="Fill-341" fill="#231F20"></path>
                    <path d="M76.5998,53.889 C76.5998,52.052 75.1088,50.561 73.2688,50.561 C71.4288,50.561 69.9378,52.052 69.9378,53.889 C69.9378,55.729 71.4288,57.22 73.2688,57.22 C75.1088,57.22 76.5998,55.729 76.5998,53.889" id="Fill-343" fill="#231F20"></path>
                    <path d="M86.59,53.889 C86.59,52.052 85.099,50.561 83.262,50.561 C81.422,50.561 79.931,52.052 79.931,53.889 C79.931,55.729 81.422,57.22 83.262,57.22 C85.099,57.22 86.59,55.729 86.59,53.889" id="Fill-345" fill="#231F20"></path>
                    <path d="M106.5734,53.889 C106.5734,52.052 105.0824,50.561 103.2424,50.561 C101.4024,50.561 99.9114,52.052 99.9114,53.889 C99.9114,55.729 101.4024,57.22 103.2424,57.22 C105.0824,57.22 106.5734,55.729 106.5734,53.889" id="Fill-347" fill="#231F20"></path>
                    <path d="M176.5109,53.889 C176.5109,52.052 175.0199,50.561 173.1829,50.561 C171.3429,50.561 169.8519,52.052 169.8519,53.889 C169.8519,55.729 171.3429,57.22 173.1829,57.22 C175.0199,57.22 176.5109,55.729 176.5109,53.889" id="Fill-349" fill="#231F20"></path>
                    <path d="M166.5207,53.889 C166.5207,52.052 165.0297,50.561 163.1897,50.561 C161.3497,50.561 159.8587,52.052 159.8587,53.889 C159.8587,55.729 161.3497,57.22 163.1897,57.22 C165.0297,57.22 166.5207,55.729 166.5207,53.889" id="Fill-351" fill="#231F20"></path>
                    <path d="M146.5373,53.889 C146.5373,52.052 145.0463,50.561 143.2093,50.561 C141.3693,50.561 139.8783,52.052 139.8783,53.889 C139.8783,55.729 141.3693,57.22 143.2093,57.22 C145.0463,57.22 146.5373,55.729 146.5373,53.889" id="Fill-353" fill="#231F20"></path>
                    <path d="M66.6096,53.889 C66.6096,52.052 65.1186,50.561 63.2786,50.561 C61.4386,50.561 59.9476,52.052 59.9476,53.889 C59.9476,55.729 61.4386,57.22 63.2786,57.22 C65.1186,57.22 66.6096,55.729 66.6096,53.889" id="Fill-355" fill="#231F20"></path>
                    <path d="M136.5471,53.889 C136.5471,52.052 135.0561,50.561 133.2161,50.561 C131.3761,50.561 129.8851,52.052 129.8851,53.889 C129.8851,55.729 131.3761,57.22 133.2161,57.22 C135.0561,57.22 136.5471,55.729 136.5471,53.889" id="Fill-357" fill="#231F20"></path>
                    <path d="M46.6262,43.8958 C46.6262,42.0588 45.1352,40.5678 43.2952,40.5678 C41.4552,40.5678 39.9672,42.0588 39.9672,43.8958 C39.9672,45.7358 41.4552,47.2268 43.2952,47.2268 C45.1352,47.2268 46.6262,45.7358 46.6262,43.8958" id="Fill-359" fill="#231F20"></path>
                    <path d="M26.6428,43.8958 C26.6428,42.0588 25.1548,40.5678 23.3148,40.5678 C21.4748,40.5678 19.9838,42.0588 19.9838,43.8958 C19.9838,45.7358 21.4748,47.2268 23.3148,47.2268 C25.1548,47.2268 26.6428,45.7358 26.6428,43.8958" id="Fill-361" fill="#231F20"></path>
                    <path d="M36.6359,43.8958 C36.6359,42.0588 35.1449,40.5678 33.3049,40.5678 C31.4649,40.5678 29.9739,42.0588 29.9739,43.8958 C29.9739,45.7358 31.4649,47.2268 33.3049,47.2268 C35.1449,47.2268 36.6359,45.7358 36.6359,43.8958" id="Fill-363" fill="#231F20"></path>
                    <path d="M56.6164,43.8958 C56.6164,42.0588 55.1284,40.5678 53.2884,40.5678 C51.4484,40.5678 49.9574,42.0588 49.9574,43.8958 C49.9574,45.7358 51.4484,47.2268 53.2884,47.2268 C55.1284,47.2268 56.6164,45.7358 56.6164,43.8958" id="Fill-365" fill="#231F20"></path>
                    <path d="M16.6525,43.8958 C16.6525,42.0588 15.1615,40.5678 13.3215,40.5678 C11.4815,40.5678 9.9935,42.0588 9.9935,43.8958 C9.9935,45.7358 11.4815,47.2268 13.3215,47.2268 C15.1615,47.2268 16.6525,45.7358 16.6525,43.8958" id="Fill-367" fill="#231F20"></path>
                    <path d="M6.6623,43.8958 C6.6623,42.0588 5.1713,40.5678 3.3313,40.5678 C1.4913,40.5678 0.0003,42.0588 0.0003,43.8958 C0.0003,45.7358 1.4913,47.2268 3.3313,47.2268 C5.1713,47.2268 6.6623,45.7358 6.6623,43.8958" id="Fill-369" fill="#231F20"></path>
                    <path d="M236.4582,43.8958 C236.4582,42.0588 234.9672,40.5678 233.1302,40.5678 C231.2902,40.5678 229.7992,42.0588 229.7992,43.8958 C229.7992,45.7358 231.2902,47.2268 233.1302,47.2268 C234.9672,47.2268 236.4582,45.7358 236.4582,43.8958" id="Fill-371" fill="#231F20"></path>
                    <path d="M246.4514,43.8958 C246.4514,42.0588 244.9604,40.5678 243.1204,40.5678 C241.2804,40.5678 239.7894,42.0588 239.7894,43.8958 C239.7894,45.7358 241.2804,47.2268 243.1204,47.2268 C244.9604,47.2268 246.4514,45.7358 246.4514,43.8958" id="Fill-373" fill="#231F20"></path>
                    <path d="M226.468,43.8958 C226.468,42.0588 224.977,40.5678 223.137,40.5678 C221.297,40.5678 219.806,42.0588 219.806,43.8958 C219.806,45.7358 221.297,47.2268 223.137,47.2268 C224.977,47.2268 226.468,45.7358 226.468,43.8958" id="Fill-375" fill="#231F20"></path>
                    <path d="M216.4777,43.8958 C216.4777,42.0588 214.9867,40.5678 213.1467,40.5678 C211.3067,40.5678 209.8157,42.0588 209.8157,43.8958 C209.8157,45.7358 211.3067,47.2268 213.1467,47.2268 C214.9867,47.2268 216.4777,45.7358 216.4777,43.8958" id="Fill-377" fill="#231F20"></path>
                    <path d="M196.4943,43.8958 C196.4943,42.0588 195.0033,40.5678 193.1633,40.5678 C191.3233,40.5678 189.8323,42.0588 189.8323,43.8958 C189.8323,45.7358 191.3233,47.2268 193.1633,47.2268 C195.0033,47.2268 196.4943,45.7358 196.4943,43.8958" id="Fill-379" fill="#231F20"></path>
                    <path d="M206.4846,43.8958 C206.4846,42.0588 204.9936,40.5678 203.1566,40.5678 C201.3166,40.5678 199.8256,42.0588 199.8256,43.8958 C199.8256,45.7358 201.3166,47.2268 203.1566,47.2268 C204.9936,47.2268 206.4846,45.7358 206.4846,43.8958" id="Fill-381" fill="#231F20"></path>
                    <path d="M156.5305,43.8958 C156.5305,42.0588 155.0395,40.5678 153.1995,40.5678 C151.3595,40.5678 149.8685,42.0588 149.8685,43.8958 C149.8685,45.7358 151.3595,47.2268 153.1995,47.2268 C155.0395,47.2268 156.5305,45.7358 156.5305,43.8958" id="Fill-383" fill="#231F20"></path>
                    <path d="M186.5041,43.8958 C186.5041,42.0588 185.0131,40.5678 183.1731,40.5678 C181.3331,40.5678 179.8421,42.0588 179.8421,43.8958 C179.8421,45.7358 181.3331,47.2268 183.1731,47.2268 C185.0131,47.2268 186.5041,45.7358 186.5041,43.8958" id="Fill-385" fill="#231F20"></path>
                    <path d="M116.5637,43.8958 C116.5637,42.0588 115.0727,40.5678 113.2357,40.5678 C111.3957,40.5678 109.9047,42.0588 109.9047,43.8958 C109.9047,45.7358 111.3957,47.2268 113.2357,47.2268 C115.0727,47.2268 116.5637,45.7358 116.5637,43.8958" id="Fill-387" fill="#231F20"></path>
                    <path d="M96.5832,43.8958 C96.5832,42.0588 95.0922,40.5678 93.2522,40.5678 C91.4122,40.5678 89.9212,42.0588 89.9212,43.8958 C89.9212,45.7358 91.4122,47.2268 93.2522,47.2268 C95.0922,47.2268 96.5832,45.7358 96.5832,43.8958" id="Fill-389" fill="#231F20"></path>
                    <path d="M126.5568,43.8958 C126.5568,42.0588 125.0658,40.5678 123.2258,40.5678 C121.3858,40.5678 119.8948,42.0588 119.8948,43.8958 C119.8948,45.7358 121.3858,47.2268 123.2258,47.2268 C125.0658,47.2268 126.5568,45.7358 126.5568,43.8958" id="Fill-391" fill="#231F20"></path>
                    <path d="M76.5998,43.8958 C76.5998,42.0588 75.1088,40.5678 73.2688,40.5678 C71.4288,40.5678 69.9378,42.0588 69.9378,43.8958 C69.9378,45.7358 71.4288,47.2268 73.2688,47.2268 C75.1088,47.2268 76.5998,45.7358 76.5998,43.8958" id="Fill-393" fill="#231F20"></path>
                    <path d="M86.59,43.8958 C86.59,42.0588 85.099,40.5678 83.262,40.5678 C81.422,40.5678 79.931,42.0588 79.931,43.8958 C79.931,45.7358 81.422,47.2268 83.262,47.2268 C85.099,47.2268 86.59,45.7358 86.59,43.8958" id="Fill-395" fill="#231F20"></path>
                    <path d="M106.5734,43.8958 C106.5734,42.0588 105.0824,40.5678 103.2424,40.5678 C101.4024,40.5678 99.9114,42.0588 99.9114,43.8958 C99.9114,45.7358 101.4024,47.2268 103.2424,47.2268 C105.0824,47.2268 106.5734,45.7358 106.5734,43.8958" id="Fill-397" fill="#231F20"></path>
                    <path d="M176.5109,43.8958 C176.5109,42.0588 175.0199,40.5678 173.1829,40.5678 C171.3429,40.5678 169.8519,42.0588 169.8519,43.8958 C169.8519,45.7358 171.3429,47.2268 173.1829,47.2268 C175.0199,47.2268 176.5109,45.7358 176.5109,43.8958" id="Fill-399" fill="#231F20"></path>
                    <path d="M166.5207,43.8958 C166.5207,42.0588 165.0297,40.5678 163.1897,40.5678 C161.3497,40.5678 159.8587,42.0588 159.8587,43.8958 C159.8587,45.7358 161.3497,47.2268 163.1897,47.2268 C165.0297,47.2268 166.5207,45.7358 166.5207,43.8958" id="Fill-401" fill="#231F20"></path>
                    <path d="M146.5373,43.8958 C146.5373,42.0588 145.0463,40.5678 143.2093,40.5678 C141.3693,40.5678 139.8783,42.0588 139.8783,43.8958 C139.8783,45.7358 141.3693,47.2268 143.2093,47.2268 C145.0463,47.2268 146.5373,45.7358 146.5373,43.8958" id="Fill-403" fill="#231F20"></path>
                    <path d="M266.4318,33.9027 C266.4318,32.0627 264.9408,30.5717 263.1008,30.5717 C261.2608,30.5717 259.7698,32.0627 259.7698,33.9027 C259.7698,35.7427 261.2608,37.2337 263.1008,37.2337 C264.9408,37.2337 266.4318,35.7427 266.4318,33.9027" id="Fill-405" fill="#231F20"></path>
                    <path d="M256.4416,33.9027 C256.4416,32.0627 254.9506,30.5717 253.1106,30.5717 C251.2706,30.5717 249.7796,32.0627 249.7796,33.9027 C249.7796,35.7427 251.2706,37.2337 253.1106,37.2337 C254.9506,37.2337 256.4416,35.7427 256.4416,33.9027" id="Fill-407" fill="#231F20"></path>
                    <path d="M256.4416,23.9095 C256.4416,22.0725 254.9506,20.5815 253.1106,20.5815 C251.2706,20.5815 249.7796,22.0725 249.7796,23.9095 C249.7796,25.7495 251.2706,27.2405 253.1106,27.2405 C254.9506,27.2405 256.4416,25.7495 256.4416,23.9095" id="Fill-409" fill="#231F20"></path>
                    <path d="M266.4318,23.9095 C266.4318,22.0725 264.9408,20.5815 263.1008,20.5815 C261.2608,20.5815 259.7698,22.0725 259.7698,23.9095 C259.7698,25.7495 261.2608,27.2405 263.1008,27.2405 C264.9408,27.2405 266.4318,25.7495 266.4318,23.9095" id="Fill-411" fill="#231F20"></path>
                    <path d="M266.4318,73.8753 C266.4318,72.0353 264.9408,70.5443 263.1008,70.5443 C261.2608,70.5443 259.7698,72.0353 259.7698,73.8753 C259.7698,75.7153 261.2608,77.2063 263.1008,77.2063 C264.9408,77.2063 266.4318,75.7153 266.4318,73.8753" id="Fill-413" fill="#231F20"></path>
                    <path d="M256.4416,73.8753 C256.4416,72.0353 254.9506,70.5443 253.1106,70.5443 C251.2706,70.5443 249.7796,72.0353 249.7796,73.8753 C249.7796,75.7153 251.2706,77.2063 253.1106,77.2063 C254.9506,77.2063 256.4416,75.7153 256.4416,73.8753" id="Fill-415" fill="#231F20"></path>
                    <path d="M256.4416,63.8821 C256.4416,62.0451 254.9506,60.5541 253.1106,60.5541 C251.2706,60.5541 249.7796,62.0451 249.7796,63.8821 C249.7796,65.7221 251.2706,67.2131 253.1106,67.2131 C254.9506,67.2131 256.4416,65.7221 256.4416,63.8821" id="Fill-417" fill="#231F20"></path>
                    <path d="M266.4318,63.8821 C266.4318,62.0451 264.9408,60.5541 263.1008,60.5541 C261.2608,60.5541 259.7698,62.0451 259.7698,63.8821 C259.7698,65.7221 261.2608,67.2131 263.1008,67.2131 C264.9408,67.2131 266.4318,65.7221 266.4318,63.8821" id="Fill-419" fill="#231F20"></path>
                    <path d="M256.4416,53.889 C256.4416,52.052 254.9506,50.561 253.1106,50.561 C251.2706,50.561 249.7796,52.052 249.7796,53.889 C249.7796,55.729 251.2706,57.22 253.1106,57.22 C254.9506,57.22 256.4416,55.729 256.4416,53.889" id="Fill-421" fill="#231F20"></path>
                    <path d="M266.4318,53.889 C266.4318,52.052 264.9408,50.561 263.1008,50.561 C261.2608,50.561 259.7698,52.052 259.7698,53.889 C259.7698,55.729 261.2608,57.22 263.1008,57.22 C264.9408,57.22 266.4318,55.729 266.4318,53.889" id="Fill-423" fill="#231F20"></path>
                    <g id="Group-427" transform="translate(169.000000, 90.193300)">
                        <mask id="mask-2" fill="white">
                            <use xlink:href="#path-1"></use>
                        </mask>
                        <g id="Clip-426"></g>
                        <path d="M7.5109,3.6683 C7.5109,1.8293 6.0199,0.3383 4.1829,0.3383 C2.3429,0.3383 0.8519,1.8293 0.8519,3.6683 C0.8519,5.5093 2.3429,7.0003 4.1829,7.0003 C6.0199,7.0003 7.5109,5.5093 7.5109,3.6683" id="Fill-425" fill="#231F20" mask="url(#mask-2)"></path>
                    </g>
                    <g id="Group-430" transform="translate(129.000000, 90.193300)">
                        <mask id="mask-4" fill="white">
                            <use xlink:href="#path-3"></use>
                        </mask>
                        <g id="Clip-429"></g>
                        <path d="M7.5471,3.6683 C7.5471,1.8293 6.0561,0.3383 4.2161,0.3383 C2.3761,0.3383 0.8851,1.8293 0.8851,3.6683 C0.8851,5.5093 2.3761,7.0003 4.2161,7.0003 C6.0561,7.0003 7.5471,5.5093 7.5471,3.6683" id="Fill-428" fill="#231F20" mask="url(#mask-4)"></path>
                    </g>
                    <g id="Group-433" transform="translate(189.000000, 90.193300)">
                        <mask id="mask-6" fill="white">
                            <use xlink:href="#path-5"></use>
                        </mask>
                        <g id="Clip-432"></g>
                        <path d="M7.4943,3.6683 C7.4943,1.8293 6.0033,0.3383 4.1633,0.3383 C2.3233,0.3383 0.8323,1.8293 0.8323,3.6683 C0.8323,5.5093 2.3233,7.0003 4.1633,7.0003 C6.0033,7.0003 7.4943,5.5093 7.4943,3.6683" id="Fill-431" fill="#231F20" mask="url(#mask-6)"></path>
                    </g>
                    <g id="Group-436" transform="translate(159.000000, 90.193300)">
                        <mask id="mask-8" fill="white">
                            <use xlink:href="#path-7"></use>
                        </mask>
                        <g id="Clip-435"></g>
                        <path d="M7.5207,3.6683 C7.5207,1.8293 6.0297,0.3383 4.1897,0.3383 C2.3497,0.3383 0.8587,1.8293 0.8587,3.6683 C0.8587,5.5093 2.3497,7.0003 4.1897,7.0003 C6.0297,7.0003 7.5207,5.5093 7.5207,3.6683" id="Fill-434" fill="#231F20" mask="url(#mask-8)"></path>
                    </g>
                    <g id="Group-439" transform="translate(149.000000, 90.193300)">
                        <mask id="mask-10" fill="white">
                            <use xlink:href="#path-9"></use>
                        </mask>
                        <g id="Clip-438"></g>
                        <path d="M7.5305,3.6683 C7.5305,1.8293 6.0395,0.3383 4.1995,0.3383 C2.3595,0.3383 0.8685,1.8293 0.8685,3.6683 C0.8685,5.5093 2.3595,7.0003 4.1995,7.0003 C6.0395,7.0003 7.5305,5.5093 7.5305,3.6683" id="Fill-437" fill="#231F20" mask="url(#mask-10)"></path>
                    </g>
                    <g id="Group-442" transform="translate(139.000000, 90.193300)">
                        <mask id="mask-12" fill="white">
                            <use xlink:href="#path-11"></use>
                        </mask>
                        <g id="Clip-441"></g>
                        <path d="M7.5373,3.6683 C7.5373,1.8293 6.0463,0.3383 4.2093,0.3383 C2.3693,0.3383 0.8783,1.8293 0.8783,3.6683 C0.8783,5.5093 2.3693,7.0003 4.2093,7.0003 C6.0463,7.0003 7.5373,5.5093 7.5373,3.6683" id="Fill-440" fill="#231F20" mask="url(#mask-12)"></path>
                    </g>
                    <g id="Group-445" transform="translate(179.000000, 90.193300)">
                        <mask id="mask-14" fill="white">
                            <use xlink:href="#path-13"></use>
                        </mask>
                        <g id="Clip-444"></g>
                        <path d="M7.5041,3.6683 C7.5041,1.8293 6.0131,0.3383 4.1731,0.3383 C2.3331,0.3383 0.8421,1.8293 0.8421,3.6683 C0.8421,5.5093 2.3331,7.0003 4.1731,7.0003 C6.0131,7.0003 7.5041,5.5093 7.5041,3.6683" id="Fill-443" fill="#231F20" mask="url(#mask-14)"></path>
                    </g>
                    <g id="Group-448" transform="translate(199.000000, 90.193300)">
                        <mask id="mask-16" fill="white">
                            <use xlink:href="#path-15"></use>
                        </mask>
                        <g id="Clip-447"></g>
                        <path d="M7.4846,3.6683 C7.4846,1.8293 5.9936,0.3383 4.1566,0.3383 C2.3166,0.3383 0.8256,1.8293 0.8256,3.6683 C0.8256,5.5093 2.3166,7.0003 4.1566,7.0003 C5.9936,7.0003 7.4846,5.5093 7.4846,3.6683" id="Fill-446" fill="#231F20" mask="url(#mask-16)"></path>
                    </g>
                    <g id="Group-451" transform="translate(229.000000, 90.193300)">
                        <mask id="mask-18" fill="white">
                            <use xlink:href="#path-17"></use>
                        </mask>
                        <g id="Clip-450"></g>
                        <path d="M7.4582,3.6683 C7.4582,1.8293 5.9672,0.3383 4.1302,0.3383 C2.2902,0.3383 0.7992,1.8293 0.7992,3.6683 C0.7992,5.5093 2.2902,7.0003 4.1302,7.0003 C5.9672,7.0003 7.4582,5.5093 7.4582,3.6683" id="Fill-449" fill="#231F20" mask="url(#mask-18)"></path>
                    </g>
                    <g id="Group-454" transform="translate(219.000000, 90.193300)">
                        <mask id="mask-20" fill="white">
                            <use xlink:href="#path-19"></use>
                        </mask>
                        <g id="Clip-453"></g>
                        <path d="M7.468,3.6683 C7.468,1.8293 5.977,0.3383 4.137,0.3383 C2.297,0.3383 0.806,1.8293 0.806,3.6683 C0.806,5.5093 2.297,7.0003 4.137,7.0003 C5.977,7.0003 7.468,5.5093 7.468,3.6683" id="Fill-452" fill="#231F20" mask="url(#mask-20)"></path>
                    </g>
                    <g id="Group-457" transform="translate(209.000000, 90.193300)">
                        <mask id="mask-22" fill="white">
                            <use xlink:href="#path-21"></use>
                        </mask>
                        <g id="Clip-456"></g>
                        <path d="M7.4777,3.6683 C7.4777,1.8293 5.9867,0.3383 4.1467,0.3383 C2.3067,0.3383 0.8157,1.8293 0.8157,3.6683 C0.8157,5.5093 2.3067,7.0003 4.1467,7.0003 C5.9867,7.0003 7.4777,5.5093 7.4777,3.6683" id="Fill-455" fill="#231F20" mask="url(#mask-22)"></path>
                    </g>
                    <g id="Group-460" transform="translate(239.000000, 90.193300)">
                        <mask id="mask-24" fill="white">
                            <use xlink:href="#path-23"></use>
                        </mask>
                        <g id="Clip-459"></g>
                        <path d="M7.4514,3.6683 C7.4514,1.8293 5.9604,0.3383 4.1204,0.3383 C2.2804,0.3383 0.7894,1.8293 0.7894,3.6683 C0.7894,5.5093 2.2804,7.0003 4.1204,7.0003 C5.9604,7.0003 7.4514,5.5093 7.4514,3.6683" id="Fill-458" fill="#231F20" mask="url(#mask-24)"></path>
                    </g>
                    <g id="Group-463" transform="translate(19.000000, 90.193300)">
                        <mask id="mask-26" fill="white">
                            <use xlink:href="#path-25"></use>
                        </mask>
                        <g id="Clip-462"></g>
                        <path d="M7.6428,3.6683 C7.6428,1.8293 6.1548,0.3383 4.3148,0.3383 C2.4748,0.3383 0.9838,1.8293 0.9838,3.6683 C0.9838,5.5093 2.4748,7.0003 4.3148,7.0003 C6.1548,7.0003 7.6428,5.5093 7.6428,3.6683" id="Fill-461" fill="#231F20" mask="url(#mask-26)"></path>
                    </g>
                    <g id="Group-466" transform="translate(29.000000, 90.193300)">
                        <mask id="mask-28" fill="white">
                            <use xlink:href="#path-27"></use>
                        </mask>
                        <g id="Clip-465"></g>
                        <path d="M7.6359,3.6683 C7.6359,1.8293 6.1449,0.3383 4.3049,0.3383 C2.4649,0.3383 0.9739,1.8293 0.9739,3.6683 C0.9739,5.5093 2.4649,7.0003 4.3049,7.0003 C6.1449,7.0003 7.6359,5.5093 7.6359,3.6683" id="Fill-464" fill="#231F20" mask="url(#mask-28)"></path>
                    </g>
                    <g id="Group-469" transform="translate(49.000000, 90.193300)">
                        <mask id="mask-30" fill="white">
                            <use xlink:href="#path-29"></use>
                        </mask>
                        <g id="Clip-468"></g>
                        <path d="M7.6164,3.6683 C7.6164,1.8293 6.1284,0.3383 4.2884,0.3383 C2.4484,0.3383 0.9574,1.8293 0.9574,3.6683 C0.9574,5.5093 2.4484,7.0003 4.2884,7.0003 C6.1284,7.0003 7.6164,5.5093 7.6164,3.6683" id="Fill-467" fill="#231F20" mask="url(#mask-30)"></path>
                    </g>
                    <g id="Group-472" transform="translate(119.000000, 90.193300)">
                        <mask id="mask-32" fill="white">
                            <use xlink:href="#path-31"></use>
                        </mask>
                        <g id="Clip-471"></g>
                        <path d="M7.5568,3.6683 C7.5568,1.8293 6.0658,0.3383 4.2258,0.3383 C2.3858,0.3383 0.8948,1.8293 0.8948,3.6683 C0.8948,5.5093 2.3858,7.0003 4.2258,7.0003 C6.0658,7.0003 7.5568,5.5093 7.5568,3.6683" id="Fill-470" fill="#231F20" mask="url(#mask-32)"></path>
                    </g>
                    <g id="Group-475" transform="translate(9.000000, 90.193300)">
                        <mask id="mask-34" fill="white">
                            <use xlink:href="#path-33"></use>
                        </mask>
                        <g id="Clip-474"></g>
                        <path d="M7.6525,3.6683 C7.6525,1.8293 6.1615,0.3383 4.3215,0.3383 C2.4815,0.3383 0.9935,1.8293 0.9935,3.6683 C0.9935,5.5093 2.4815,7.0003 4.3215,7.0003 C6.1615,7.0003 7.6525,5.5093 7.6525,3.6683" id="Fill-473" fill="#231F20" mask="url(#mask-34)"></path>
                    </g>
                    <g id="Group-478" transform="translate(0.000000, 90.193300)">
                        <mask id="mask-36" fill="white">
                            <use xlink:href="#path-35"></use>
                        </mask>
                        <g id="Clip-477"></g>
                        <path d="M6.6623,3.6683 C6.6623,1.8293 5.1713,0.3383 3.3313,0.3383 C1.4913,0.3383 0.0003,1.8293 0.0003,3.6683 C0.0003,5.5093 1.4913,7.0003 3.3313,7.0003 C5.1713,7.0003 6.6623,5.5093 6.6623,3.6683" id="Fill-476" fill="#231F20" mask="url(#mask-36)"></path>
                    </g>
                    <g id="Group-481" transform="translate(39.000000, 90.193300)">
                        <mask id="mask-38" fill="white">
                            <use xlink:href="#path-37"></use>
                        </mask>
                        <g id="Clip-480"></g>
                        <path d="M7.6262,3.6683 C7.6262,1.8293 6.1352,0.3383 4.2952,0.3383 C2.4552,0.3383 0.9672,1.8293 0.9672,3.6683 C0.9672,5.5093 2.4552,7.0003 4.2952,7.0003 C6.1352,7.0003 7.6262,5.5093 7.6262,3.6683" id="Fill-479" fill="#231F20" mask="url(#mask-38)"></path>
                    </g>
                    <g id="Group-484" transform="translate(99.000000, 90.193300)">
                        <mask id="mask-40" fill="white">
                            <use xlink:href="#path-39"></use>
                        </mask>
                        <g id="Clip-483"></g>
                        <path d="M7.5734,3.6683 C7.5734,1.8293 6.0824,0.3383 4.2424,0.3383 C2.4024,0.3383 0.9114,1.8293 0.9114,3.6683 C0.9114,5.5093 2.4024,7.0003 4.2424,7.0003 C6.0824,7.0003 7.5734,5.5093 7.5734,3.6683" id="Fill-482" fill="#231F20" mask="url(#mask-40)"></path>
                    </g>
                    <g id="Group-487" transform="translate(89.000000, 90.193300)">
                        <mask id="mask-42" fill="white">
                            <use xlink:href="#path-41"></use>
                        </mask>
                        <g id="Clip-486"></g>
                        <path d="M7.5832,3.6683 C7.5832,1.8293 6.0922,0.3383 4.2522,0.3383 C2.4122,0.3383 0.9212,1.8293 0.9212,3.6683 C0.9212,5.5093 2.4122,7.0003 4.2522,7.0003 C6.0922,7.0003 7.5832,5.5093 7.5832,3.6683" id="Fill-485" fill="#231F20" mask="url(#mask-42)"></path>
                    </g>
                    <g id="Group-490" transform="translate(109.000000, 90.193300)">
                        <mask id="mask-44" fill="white">
                            <use xlink:href="#path-43"></use>
                        </mask>
                        <g id="Clip-489"></g>
                        <path d="M7.5637,3.6683 C7.5637,1.8293 6.0727,0.3383 4.2357,0.3383 C2.3957,0.3383 0.9047,1.8293 0.9047,3.6683 C0.9047,5.5093 2.3957,7.0003 4.2357,7.0003 C6.0727,7.0003 7.5637,5.5093 7.5637,3.6683" id="Fill-488" fill="#231F20" mask="url(#mask-44)"></path>
                    </g>
                    <g id="Group-493" transform="translate(69.000000, 90.193300)">
                        <mask id="mask-46" fill="white">
                            <use xlink:href="#path-45"></use>
                        </mask>
                        <g id="Clip-492"></g>
                        <path d="M7.5998,3.6683 C7.5998,1.8293 6.1088,0.3383 4.2688,0.3383 C2.4288,0.3383 0.9378,1.8293 0.9378,3.6683 C0.9378,5.5093 2.4288,7.0003 4.2688,7.0003 C6.1088,7.0003 7.5998,5.5093 7.5998,3.6683" id="Fill-491" fill="#231F20" mask="url(#mask-46)"></path>
                    </g>
                    <g id="Group-496" transform="translate(59.000000, 90.193300)">
                        <mask id="mask-48" fill="white">
                            <use xlink:href="#path-47"></use>
                        </mask>
                        <g id="Clip-495"></g>
                        <path d="M7.6096,3.6683 C7.6096,1.8293 6.1186,0.3383 4.2786,0.3383 C2.4386,0.3383 0.9476,1.8293 0.9476,3.6683 C0.9476,5.5093 2.4386,7.0003 4.2786,7.0003 C6.1186,7.0003 7.6096,5.5093 7.6096,3.6683" id="Fill-494" fill="#231F20" mask="url(#mask-48)"></path>
                    </g>
                    <path d="M46.6262,83.8694 C46.6262,82.0324 45.1352,80.5414 43.2952,80.5414 C41.4552,80.5414 39.9672,82.0324 39.9672,83.8694 C39.9672,85.7094 41.4552,87.1994 43.2952,87.1994 C45.1352,87.1994 46.6262,85.7094 46.6262,83.8694" id="Fill-497" fill="#231F20"></path>
                    <path d="M26.6428,83.8694 C26.6428,82.0324 25.1548,80.5414 23.3148,80.5414 C21.4748,80.5414 19.9838,82.0324 19.9838,83.8694 C19.9838,85.7094 21.4748,87.1994 23.3148,87.1994 C25.1548,87.1994 26.6428,85.7094 26.6428,83.8694" id="Fill-499" fill="#231F20"></path>
                    <path d="M36.6359,83.8694 C36.6359,82.0324 35.1449,80.5414 33.3049,80.5414 C31.4649,80.5414 29.9739,82.0324 29.9739,83.8694 C29.9739,85.7094 31.4649,87.1994 33.3049,87.1994 C35.1449,87.1994 36.6359,85.7094 36.6359,83.8694" id="Fill-501" fill="#231F20"></path>
                    <path d="M56.6164,83.8694 C56.6164,82.0324 55.1284,80.5414 53.2884,80.5414 C51.4484,80.5414 49.9574,82.0324 49.9574,83.8694 C49.9574,85.7094 51.4484,87.1994 53.2884,87.1994 C55.1284,87.1994 56.6164,85.7094 56.6164,83.8694" id="Fill-503" fill="#231F20"></path>
                    <path d="M16.6525,83.8694 C16.6525,82.0324 15.1615,80.5414 13.3215,80.5414 C11.4815,80.5414 9.9935,82.0324 9.9935,83.8694 C9.9935,85.7094 11.4815,87.1994 13.3215,87.1994 C15.1615,87.1994 16.6525,85.7094 16.6525,83.8694" id="Fill-505" fill="#231F20"></path>
                    <path d="M6.6623,83.8694 C6.6623,82.0324 5.1713,80.5414 3.3313,80.5414 C1.4913,80.5414 0.0003,82.0324 0.0003,83.8694 C0.0003,85.7094 1.4913,87.1994 3.3313,87.1994 C5.1713,87.1994 6.6623,85.7094 6.6623,83.8694" id="Fill-507" fill="#231F20"></path>
                    <path d="M236.4582,83.8694 C236.4582,82.0324 234.9672,80.5414 233.1302,80.5414 C231.2902,80.5414 229.7992,82.0324 229.7992,83.8694 C229.7992,85.7094 231.2902,87.1994 233.1302,87.1994 C234.9672,87.1994 236.4582,85.7094 236.4582,83.8694" id="Fill-509" fill="#231F20"></path>
                    <path d="M246.4514,83.8694 C246.4514,82.0324 244.9604,80.5414 243.1204,80.5414 C241.2804,80.5414 239.7894,82.0324 239.7894,83.8694 C239.7894,85.7094 241.2804,87.1994 243.1204,87.1994 C244.9604,87.1994 246.4514,85.7094 246.4514,83.8694" id="Fill-511" fill="#231F20"></path>
                    <path d="M226.468,83.8694 C226.468,82.0324 224.977,80.5414 223.137,80.5414 C221.297,80.5414 219.806,82.0324 219.806,83.8694 C219.806,85.7094 221.297,87.1994 223.137,87.1994 C224.977,87.1994 226.468,85.7094 226.468,83.8694" id="Fill-513" fill="#231F20"></path>
                    <path d="M216.4777,83.8694 C216.4777,82.0324 214.9867,80.5414 213.1467,80.5414 C211.3067,80.5414 209.8157,82.0324 209.8157,83.8694 C209.8157,85.7094 211.3067,87.1994 213.1467,87.1994 C214.9867,87.1994 216.4777,85.7094 216.4777,83.8694" id="Fill-515" fill="#231F20"></path>
                    <path d="M196.4943,83.8694 C196.4943,82.0324 195.0033,80.5414 193.1633,80.5414 C191.3233,80.5414 189.8323,82.0324 189.8323,83.8694 C189.8323,85.7094 191.3233,87.1994 193.1633,87.1994 C195.0033,87.1994 196.4943,85.7094 196.4943,83.8694" id="Fill-517" fill="#231F20"></path>
                    <path d="M206.4846,83.8694 C206.4846,82.0324 204.9936,80.5414 203.1566,80.5414 C201.3166,80.5414 199.8256,82.0324 199.8256,83.8694 C199.8256,85.7094 201.3166,87.1994 203.1566,87.1994 C204.9936,87.1994 206.4846,85.7094 206.4846,83.8694" id="Fill-519" fill="#231F20"></path>
                    <path d="M156.5305,83.8694 C156.5305,82.0324 155.0395,80.5414 153.1995,80.5414 C151.3595,80.5414 149.8685,82.0324 149.8685,83.8694 C149.8685,85.7094 151.3595,87.1994 153.1995,87.1994 C155.0395,87.1994 156.5305,85.7094 156.5305,83.8694" id="Fill-521" fill="#231F20"></path>
                    <path d="M186.5041,83.8694 C186.5041,82.0324 185.0131,80.5414 183.1731,80.5414 C181.3331,80.5414 179.8421,82.0324 179.8421,83.8694 C179.8421,85.7094 181.3331,87.1994 183.1731,87.1994 C185.0131,87.1994 186.5041,85.7094 186.5041,83.8694" id="Fill-523" fill="#231F20"></path>
                    <path d="M116.5637,83.8694 C116.5637,82.0324 115.0727,80.5414 113.2357,80.5414 C111.3957,80.5414 109.9047,82.0324 109.9047,83.8694 C109.9047,85.7094 111.3957,87.1994 113.2357,87.1994 C115.0727,87.1994 116.5637,85.7094 116.5637,83.8694" id="Fill-525" fill="#231F20"></path>
                    <path d="M96.5832,83.8694 C96.5832,82.0324 95.0922,80.5414 93.2522,80.5414 C91.4122,80.5414 89.9212,82.0324 89.9212,83.8694 C89.9212,85.7094 91.4122,87.1994 93.2522,87.1994 C95.0922,87.1994 96.5832,85.7094 96.5832,83.8694" id="Fill-527" fill="#231F20"></path>
                    <path d="M126.5568,83.8694 C126.5568,82.0324 125.0658,80.5414 123.2258,80.5414 C121.3858,80.5414 119.8948,82.0324 119.8948,83.8694 C119.8948,85.7094 121.3858,87.1994 123.2258,87.1994 C125.0658,87.1994 126.5568,85.7094 126.5568,83.8694" id="Fill-529" fill="#231F20"></path>
                    <path d="M76.5998,83.8694 C76.5998,82.0324 75.1088,80.5414 73.2688,80.5414 C71.4288,80.5414 69.9378,82.0324 69.9378,83.8694 C69.9378,85.7094 71.4288,87.1994 73.2688,87.1994 C75.1088,87.1994 76.5998,85.7094 76.5998,83.8694" id="Fill-531" fill="#231F20"></path>
                    <path d="M86.59,83.8694 C86.59,82.0324 85.099,80.5414 83.262,80.5414 C81.422,80.5414 79.931,82.0324 79.931,83.8694 C79.931,85.7094 81.422,87.1994 83.262,87.1994 C85.099,87.1994 86.59,85.7094 86.59,83.8694" id="Fill-533" fill="#231F20"></path>
                    <path d="M106.5734,83.8694 C106.5734,82.0324 105.0824,80.5414 103.2424,80.5414 C101.4024,80.5414 99.9114,82.0324 99.9114,83.8694 C99.9114,85.7094 101.4024,87.1994 103.2424,87.1994 C105.0824,87.1994 106.5734,85.7094 106.5734,83.8694" id="Fill-535" fill="#231F20"></path>
                    <path d="M176.5109,83.8694 C176.5109,82.0324 175.0199,80.5414 173.1829,80.5414 C171.3429,80.5414 169.8519,82.0324 169.8519,83.8694 C169.8519,85.7094 171.3429,87.1994 173.1829,87.1994 C175.0199,87.1994 176.5109,85.7094 176.5109,83.8694" id="Fill-537" fill="#231F20"></path>
                    <path d="M166.5207,83.8694 C166.5207,82.0324 165.0297,80.5414 163.1897,80.5414 C161.3497,80.5414 159.8587,82.0324 159.8587,83.8694 C159.8587,85.7094 161.3497,87.1994 163.1897,87.1994 C165.0297,87.1994 166.5207,85.7094 166.5207,83.8694" id="Fill-539" fill="#231F20"></path>
                    <path d="M146.5373,83.8694 C146.5373,82.0324 145.0463,80.5414 143.2093,80.5414 C141.3693,80.5414 139.8783,82.0324 139.8783,83.8694 C139.8783,85.7094 141.3693,87.1994 143.2093,87.1994 C145.0463,87.1994 146.5373,85.7094 146.5373,83.8694" id="Fill-541" fill="#231F20"></path>
                    <path d="M66.6096,83.8694 C66.6096,82.0324 65.1186,80.5414 63.2786,80.5414 C61.4386,80.5414 59.9476,82.0324 59.9476,83.8694 C59.9476,85.7094 61.4386,87.1994 63.2786,87.1994 C65.1186,87.1994 66.6096,85.7094 66.6096,83.8694" id="Fill-543" fill="#231F20"></path>
                    <path d="M136.5471,83.8694 C136.5471,82.0324 135.0561,80.5414 133.2161,80.5414 C131.3761,80.5414 129.8851,82.0324 129.8851,83.8694 C129.8851,85.7094 131.3761,87.1994 133.2161,87.1994 C135.0561,87.1994 136.5471,85.7094 136.5471,83.8694" id="Fill-545" fill="#231F20"></path>
                    <g id="Group-549" transform="translate(79.000000, 90.193300)">
                        <mask id="mask-50" fill="white">
                            <use xlink:href="#path-49"></use>
                        </mask>
                        <g id="Clip-548"></g>
                        <path d="M7.59,3.6683 C7.59,1.8293 6.099,0.3383 4.262,0.3383 C2.422,0.3383 0.931,1.8293 0.931,3.6683 C0.931,5.5093 2.422,7.0003 4.262,7.0003 C6.099,7.0003 7.59,5.5093 7.59,3.6683" id="Fill-547" fill="#231F20" mask="url(#mask-50)"></path>
                    </g>
                    <g id="Group-552" transform="translate(259.000000, 90.193300)">
                        <mask id="mask-52" fill="white">
                            <use xlink:href="#path-51"></use>
                        </mask>
                        <g id="Clip-551"></g>
                        <path d="M7.4318,3.6683 C7.4318,1.8293 5.9408,0.3383 4.1008,0.3383 C2.2608,0.3383 0.7698,1.8293 0.7698,3.6683 C0.7698,5.5093 2.2608,7.0003 4.1008,7.0003 C5.9408,7.0003 7.4318,5.5093 7.4318,3.6683" id="Fill-550" fill="#231F20" mask="url(#mask-52)"></path>
                    </g>
                    <g id="Group-555" transform="translate(249.000000, 90.193300)">
                        <mask id="mask-54" fill="white">
                            <use xlink:href="#path-53"></use>
                        </mask>
                        <g id="Clip-554"></g>
                        <path d="M7.4416,3.6683 C7.4416,1.8293 5.9506,0.3383 4.1106,0.3383 C2.2706,0.3383 0.7796,1.8293 0.7796,3.6683 C0.7796,5.5093 2.2706,7.0003 4.1106,7.0003 C5.9506,7.0003 7.4416,5.5093 7.4416,3.6683" id="Fill-553" fill="#231F20" mask="url(#mask-54)"></path>
                    </g>
                    <path d="M256.4416,83.8694 C256.4416,82.0324 254.9506,80.5414 253.1106,80.5414 C251.2706,80.5414 249.7796,82.0324 249.7796,83.8694 C249.7796,85.7094 251.2706,87.1994 253.1106,87.1994 C254.9506,87.1994 256.4416,85.7094 256.4416,83.8694" id="Fill-556" fill="#231F20"></path>
                    <path d="M266.4318,83.8694 C266.4318,82.0324 264.9408,80.5414 263.1008,80.5414 C261.2608,80.5414 259.7698,82.0324 259.7698,83.8694 C259.7698,85.7094 261.2608,87.1994 263.1008,87.1994 C264.9408,87.1994 266.4318,85.7094 266.4318,83.8694" id="Fill-558" fill="#231F20"></path>
                    <path d="M256.4416,43.8958 C256.4416,42.0588 254.9506,40.5678 253.1106,40.5678 C251.2706,40.5678 249.7796,42.0588 249.7796,43.8958 C249.7796,45.7358 251.2706,47.2268 253.1106,47.2268 C254.9506,47.2268 256.4416,45.7358 256.4416,43.8958" id="Fill-560" fill="#231F20"></path>
                    <path d="M266.4318,43.8958 C266.4318,42.0588 264.9408,40.5678 263.1008,40.5678 C261.2608,40.5678 259.7698,42.0588 259.7698,43.8958 C259.7698,45.7358 261.2608,47.2268 263.1008,47.2268 C264.9408,47.2268 266.4318,45.7358 266.4318,43.8958" id="Fill-562" fill="#231F20"></path>
                    <path d="M66.6096,43.8958 C66.6096,42.0588 65.1186,40.5678 63.2786,40.5678 C61.4386,40.5678 59.9476,42.0588 59.9476,43.8958 C59.9476,45.7358 61.4386,47.2268 63.2786,47.2268 C65.1186,47.2268 66.6096,45.7358 66.6096,43.8958" id="Fill-564" fill="#231F20"></path>
                    <path d="M136.5471,43.8958 C136.5471,42.0588 135.0561,40.5678 133.2161,40.5678 C131.3761,40.5678 129.8851,42.0588 129.8851,43.8958 C129.8851,45.7358 131.3761,47.2268 133.2161,47.2268 C135.0561,47.2268 136.5471,45.7358 136.5471,43.8958" id="Fill-566" fill="#231F20"></path>
                </g>
            </g>
        </g>
    </g>
</svg>