<svg id="Layer_1" data-name="Layer 1" xmlns="http://www.w3.org/2000/svg" viewBox="0 0 267.97 18.85"><defs><style>.cls-1{opacity:0.1;}.cls-2{fill:#231f20;}</style></defs><title>dots-line</title><g id="Home-_-Member-Directory" data-name="Home- -Member-Directory" class="cls-1"><g id="Home"><g id="Hero-_1170x450_" data-name="Hero- 1170x450 "><g id="Dots-_3-column_-98px_-Black-10_" data-name="Dots- 3-column -98px -Black-10 "><path id="Fill-1" class="cls-2" d="M177.35,14.71A3.33,3.33,0,1,0,174,18h0a3.33,3.33,0,0,0,3.33-3.33"/><path id="Fill-3" class="cls-2" d="M137.39,14.71A3.33,3.33,0,1,0,134,18h0a3.33,3.33,0,0,0,3.33-3.33"/><path id="Fill-5" class="cls-2" d="M197.33,14.71A3.33,3.33,0,1,0,194,18h0a3.33,3.33,0,0,0,3.33-3.33"/><path id="Fill-7" class="cls-2" d="M167.36,14.71A3.33,3.33,0,1,0,164,18h0a3.33,3.33,0,0,0,3.33-3.33"/><path id="Fill-9" class="cls-2" d="M157.37,14.71A3.33,3.33,0,1,0,154,18h0a3.33,3.33,0,0,0,3.33-3.33"/><path id="Fill-11" class="cls-2" d="M147.38,14.71A3.33,3.33,0,1,0,144,18h0a3.33,3.33,0,0,0,3.33-3.33"/><path id="Fill-13" class="cls-2" d="M187.34,14.71A3.33,3.33,0,1,0,184,18h0a3.33,3.33,0,0,0,3.33-3.33"/><path id="Fill-15" class="cls-2" d="M207.32,14.71A3.33,3.33,0,1,0,204,18H204a3.33,3.33,0,0,0,3.32-3.33"/><path id="Fill-17" class="cls-2" d="M237.3,14.71A3.33,3.33,0,1,0,233.93,18h0a3.33,3.33,0,0,0,3.33-3.33"/><path id="Fill-19" class="cls-2" d="M227.31,14.71A3.33,3.33,0,1,0,223.94,18h0a3.33,3.33,0,0,0,3.33-3.33"/><path id="Fill-21" class="cls-2" d="M217.32,14.71A3.33,3.33,0,1,0,214,18h0a3.33,3.33,0,0,0,3.33-3.33"/><path id="Fill-23" class="cls-2" d="M247.29,14.71A3.33,3.33,0,1,0,243.92,18h0a3.33,3.33,0,0,0,3.33-3.33"/><path id="Fill-25" class="cls-2" d="M27.48,14.71A3.33,3.33,0,1,0,24.11,18h.05a3.32,3.32,0,0,0,3.32-3.32h0"/><path id="Fill-27" class="cls-2" d="M37.48,14.71A3.34,3.34,0,1,0,34.09,18h.06a3.33,3.33,0,0,0,3.33-3.33h0"/><path id="Fill-29" class="cls-2" d="M57.46,14.71A3.33,3.33,0,1,0,54.09,18h0a3.33,3.33,0,0,0,3.33-3.33h0"/><path id="Fill-31" class="cls-2" d="M127.4,14.71A3.33,3.33,0,1,0,124,18h0a3.33,3.33,0,0,0,3.33-3.33h0"/><path id="Fill-33" class="cls-2" d="M17.49,14.71A3.33,3.33,0,1,0,14.12,18h0a3.33,3.33,0,0,0,3.33-3.33h0"/><path id="Fill-35" class="cls-2" d="M7.5,14.71A3.33,3.33,0,1,0,4.13,18h0A3.33,3.33,0,0,0,7.5,14.67h0"/><path id="Fill-37" class="cls-2" d="M47.47,14.71A3.33,3.33,0,1,0,44.1,18h0a3.33,3.33,0,0,0,3.33-3.33h0"/><path id="Fill-39" class="cls-2" d="M107.41,14.71A3.33,3.33,0,1,0,104,18h0a3.33,3.33,0,0,0,3.33-3.33h0"/><path id="Fill-41" class="cls-2" d="M97.42,14.71A3.33,3.33,0,1,0,94.05,18h0a3.33,3.33,0,0,0,3.33-3.33h0"/><path id="Fill-43" class="cls-2" d="M117.4,14.71A3.33,3.33,0,1,0,114,18h0a3.33,3.33,0,0,0,3.32-3.33"/><path id="Fill-45" class="cls-2" d="M77.44,14.71A3.33,3.33,0,1,0,74.07,18h0a3.33,3.33,0,0,0,3.33-3.33h0"/><path id="Fill-47" class="cls-2" d="M67.45,14.71A3.33,3.33,0,1,0,64.08,18h0a3.33,3.33,0,0,0,3.33-3.33h0"/><path id="Fill-49" class="cls-2" d="M47.47,4.72a3.33,3.33,0,1,0-3.33,3.33,3.33,3.33,0,0,0,3.33-3.33h0"/><path id="Fill-51" class="cls-2" d="M27.48,4.72a3.33,3.33,0,1,0-3.33,3.33h0a3.32,3.32,0,0,0,3.32-3.32h0"/><path id="Fill-53" class="cls-2" d="M37.48,4.72a3.34,3.34,0,1,0-3.35,3.33h0a3.33,3.33,0,0,0,3.33-3.33h0"/><path id="Fill-55" class="cls-2" d="M57.46,4.72a3.33,3.33,0,1,0-3.33,3.33,3.33,3.33,0,0,0,3.33-3.33h0"/><path id="Fill-57" class="cls-2" d="M17.49,4.72a3.33,3.33,0,1,0-3.33,3.33,3.33,3.33,0,0,0,3.33-3.33h0"/><path id="Fill-59" class="cls-2" d="M7.5,4.72A3.33,3.33,0,1,0,4.17,8.05,3.33,3.33,0,0,0,7.5,4.72h0"/><path id="Fill-61" class="cls-2" d="M237.3,4.72A3.33,3.33,0,1,0,234,8.05h0a3.33,3.33,0,0,0,3.33-3.33"/><path id="Fill-63" class="cls-2" d="M247.29,4.72A3.33,3.33,0,1,0,244,8.05h0a3.33,3.33,0,0,0,3.33-3.33"/><path id="Fill-65" class="cls-2" d="M227.31,4.72A3.33,3.33,0,1,0,224,8.05h0a3.33,3.33,0,0,0,3.33-3.33"/><path id="Fill-67" class="cls-2" d="M217.32,4.72A3.33,3.33,0,1,0,214,8.05h0a3.33,3.33,0,0,0,3.33-3.33"/><path id="Fill-69" class="cls-2" d="M197.33,4.72A3.33,3.33,0,1,0,194,8.05h0a3.33,3.33,0,0,0,3.33-3.33"/><path id="Fill-71" class="cls-2" d="M207.32,4.72A3.33,3.33,0,1,0,204,8.05h0a3.33,3.33,0,0,0,3.32-3.33"/><path id="Fill-73" class="cls-2" d="M157.37,4.72A3.33,3.33,0,1,0,154,8.05h0a3.33,3.33,0,0,0,3.33-3.33"/><path id="Fill-75" class="cls-2" d="M187.34,4.72A3.33,3.33,0,1,0,184,8.05h0a3.33,3.33,0,0,0,3.33-3.33"/><path id="Fill-77" class="cls-2" d="M117.4,4.72a3.33,3.33,0,1,0-3.33,3.33h0a3.33,3.33,0,0,0,3.32-3.33"/><path id="Fill-79" class="cls-2" d="M97.42,4.72a3.33,3.33,0,1,0-3.33,3.33,3.33,3.33,0,0,0,3.33-3.33h0"/><path id="Fill-81" class="cls-2" d="M127.4,4.72a3.33,3.33,0,1,0-3.33,3.33,3.33,3.33,0,0,0,3.33-3.33h0"/><path id="Fill-83" class="cls-2" d="M77.44,4.72a3.33,3.33,0,1,0-3.33,3.33,3.33,3.33,0,0,0,3.33-3.33h0"/><path id="Fill-85" class="cls-2" d="M87.43,4.72A3.33,3.33,0,1,0,84.1,8.05a3.33,3.33,0,0,0,3.33-3.33h0"/><path id="Fill-87" class="cls-2" d="M107.41,4.72a3.33,3.33,0,1,0-3.33,3.33,3.33,3.33,0,0,0,3.33-3.33h0"/><path id="Fill-89" class="cls-2" d="M177.35,4.72A3.33,3.33,0,1,0,174,8.05h0a3.33,3.33,0,0,0,3.33-3.33"/><path id="Fill-91" class="cls-2" d="M167.36,4.72A3.33,3.33,0,1,0,164,8.05h0a3.33,3.33,0,0,0,3.33-3.33"/><path id="Fill-93" class="cls-2" d="M147.38,4.72a3.33,3.33,0,1,0-3.33,3.33h0a3.33,3.33,0,0,0,3.33-3.33"/><path id="Fill-95" class="cls-2" d="M67.45,4.72a3.33,3.33,0,1,0-3.33,3.33,3.33,3.33,0,0,0,3.33-3.33h0"/><path id="Fill-97" class="cls-2" d="M137.39,4.72a3.33,3.33,0,1,0-3.33,3.33h0a3.33,3.33,0,0,0,3.33-3.33"/><path id="Fill-99" class="cls-2" d="M87.43,14.71A3.33,3.33,0,1,0,84.06,18h0a3.33,3.33,0,0,0,3.33-3.33h0"/><path id="Fill-101" class="cls-2" d="M267.27,14.71A3.33,3.33,0,1,0,263.9,18h0a3.33,3.33,0,0,0,3.33-3.33"/><path id="Fill-103" class="cls-2" d="M257.28,14.71A3.33,3.33,0,1,0,253.91,18h0a3.33,3.33,0,0,0,3.33-3.33"/><path id="Fill-105" class="cls-2" d="M257.28,4.72A3.33,3.33,0,1,0,254,8.05h0a3.33,3.33,0,0,0,3.33-3.33"/><path id="Fill-107" class="cls-2" d="M267.27,4.72a3.33,3.33,0,1,0-3.33,3.33h0a3.33,3.33,0,0,0,3.33-3.33"/></g></g></g></g></svg>