<svg id="Layer_1" data-name="Layer 1" xmlns="http://www.w3.org/2000/svg" xmlns:xlink="http://www.w3.org/1999/xlink" viewBox="0 0 266.43 97.19"><defs><style>.cls-1{fill:#fff;}.cls-2{opacity:0.1;}.cls-3{fill:#231f20;}.cls-4{mask:url(#mask);}.cls-5{mask:url(#mask-2-2);}.cls-6{mask:url(#mask-3);}.cls-7{mask:url(#mask-4-2);}.cls-8{mask:url(#mask-5);}.cls-9{mask:url(#mask-6-2);}.cls-10{mask:url(#mask-7);}.cls-11{mask:url(#mask-8-2);}.cls-12{mask:url(#mask-9);}.cls-13{mask:url(#mask-10-2);}.cls-14{mask:url(#mask-11);}.cls-15{mask:url(#mask-12-2);}.cls-16{mask:url(#mask-13);}.cls-17{mask:url(#mask-14-2);}.cls-18{mask:url(#mask-15);}.cls-19{mask:url(#mask-16-2);}.cls-20{mask:url(#mask-17);}.cls-21{mask:url(#mask-18-2);}.cls-22{mask:url(#mask-19);}.cls-23{mask:url(#mask-20-2);}.cls-24{mask:url(#mask-21);}.cls-25{mask:url(#mask-22-2);}.cls-26{mask:url(#mask-23);}.cls-27{mask:url(#mask-24-2);}.cls-28{mask:url(#mask-25);}.cls-29{mask:url(#mask-26-2);}.cls-30{mask:url(#mask-27);}</style><mask id="mask" x="169.85" y="90.53" width="6.66" height="6.66" maskUnits="userSpaceOnUse"><g transform="translate(0 0)"><g id="mask-2"><polygon id="path-1" class="cls-1" points="169.85 90.53 176.51 90.53 176.51 97.19 169.85 97.19 169.85 90.53"/></g></g></mask><mask id="mask-2-2" x="129.88" y="90.53" width="6.66" height="6.66" maskUnits="userSpaceOnUse"><g transform="translate(0 0)"><g id="mask-4"><polygon id="path-3" class="cls-1" points="129.88 90.53 136.55 90.53 136.55 97.19 129.88 97.19 129.88 90.53"/></g></g></mask><mask id="mask-3" x="189.83" y="90.53" width="6.66" height="6.66" maskUnits="userSpaceOnUse"><g transform="translate(0 0)"><g id="mask-6"><polygon id="path-5" class="cls-1" points="189.83 90.53 196.49 90.53 196.49 97.19 189.83 97.19 189.83 90.53"/></g></g></mask><mask id="mask-4-2" x="159.86" y="90.53" width="6.66" height="6.66" maskUnits="userSpaceOnUse"><g transform="translate(0 0)"><g id="mask-8"><polygon id="path-7" class="cls-1" points="159.86 90.53 166.52 90.53 166.52 97.19 159.86 97.19 159.86 90.53"/></g></g></mask><mask id="mask-5" x="149.87" y="90.53" width="6.66" height="6.66" maskUnits="userSpaceOnUse"><g transform="translate(0 0)"><g id="mask-10"><polygon id="path-9" class="cls-1" points="149.87 90.53 156.53 90.53 156.53 97.19 149.87 97.19 149.87 90.53"/></g></g></mask><mask id="mask-6-2" x="139.88" y="90.53" width="6.66" height="6.66" maskUnits="userSpaceOnUse"><g transform="translate(0 0)"><g id="mask-12"><polygon id="path-11" class="cls-1" points="139.88 90.53 146.54 90.53 146.54 97.19 139.88 97.19 139.88 90.53"/></g></g></mask><mask id="mask-7" x="179.84" y="90.53" width="6.66" height="6.66" maskUnits="userSpaceOnUse"><g transform="translate(0 0)"><g id="mask-14"><polygon id="path-13" class="cls-1" points="179.84 90.53 186.5 90.53 186.5 97.19 179.84 97.19 179.84 90.53"/></g></g></mask><mask id="mask-8-2" x="199.83" y="90.53" width="6.66" height="6.66" maskUnits="userSpaceOnUse"><g transform="translate(0 0)"><g id="mask-16"><polygon id="path-15" class="cls-1" points="199.83 90.53 206.49 90.53 206.49 97.19 199.83 97.19 199.83 90.53"/></g></g></mask><mask id="mask-9" x="229.8" y="90.53" width="6.66" height="6.66" maskUnits="userSpaceOnUse"><g transform="translate(0 0)"><g id="mask-18"><polygon id="path-17" class="cls-1" points="229.8 90.53 236.46 90.53 236.46 97.19 229.8 97.19 229.8 90.53"/></g></g></mask><mask id="mask-10-2" x="219.81" y="90.53" width="6.66" height="6.66" maskUnits="userSpaceOnUse"><g transform="translate(0 0)"><g id="mask-20"><polygon id="path-19" class="cls-1" points="219.81 90.53 226.47 90.53 226.47 97.19 219.81 97.19 219.81 90.53"/></g></g></mask><mask id="mask-11" x="209.82" y="90.53" width="6.66" height="6.66" maskUnits="userSpaceOnUse"><g transform="translate(0 0)"><g id="mask-22"><polygon id="path-21" class="cls-1" points="209.82 90.53 216.48 90.53 216.48 97.19 209.82 97.19 209.82 90.53"/></g></g></mask><mask id="mask-12-2" x="239.79" y="90.53" width="6.66" height="6.66" maskUnits="userSpaceOnUse"><g transform="translate(0 0)"><g id="mask-24"><polygon id="path-23" class="cls-1" points="239.79 90.53 246.45 90.53 246.45 97.19 239.79 97.19 239.79 90.53"/></g></g></mask><mask id="mask-13" x="19.98" y="90.53" width="6.66" height="6.66" maskUnits="userSpaceOnUse"><g transform="translate(0 0)"><g id="mask-26"><polygon id="path-25" class="cls-1" points="19.98 90.53 26.64 90.53 26.64 97.19 19.98 97.19 19.98 90.53"/></g></g></mask><mask id="mask-14-2" x="29.97" y="90.53" width="6.66" height="6.66" maskUnits="userSpaceOnUse"><g transform="translate(0 0)"><g id="mask-28"><polygon id="path-27" class="cls-1" points="29.97 90.53 36.64 90.53 36.64 97.19 29.97 97.19 29.97 90.53"/></g></g></mask><mask id="mask-15" x="49.96" y="90.53" width="6.66" height="6.66" maskUnits="userSpaceOnUse"><g transform="translate(0 0)"><g id="mask-30"><polygon id="path-29" class="cls-1" points="49.96 90.53 56.62 90.53 56.62 97.19 49.96 97.19 49.96 90.53"/></g></g></mask><mask id="mask-16-2" x="119.89" y="90.53" width="6.66" height="6.66" maskUnits="userSpaceOnUse"><g transform="translate(0 0)"><g id="mask-32"><polygon id="path-31" class="cls-1" points="119.89 90.53 126.56 90.53 126.56 97.19 119.89 97.19 119.89 90.53"/></g></g></mask><mask id="mask-17" x="9.99" y="90.53" width="6.66" height="6.66" maskUnits="userSpaceOnUse"><g transform="translate(0 0)"><g id="mask-34"><polygon id="path-33" class="cls-1" points="9.99 90.53 16.65 90.53 16.65 97.19 9.99 97.19 9.99 90.53"/></g></g></mask><mask id="mask-18-2" x="0" y="90.53" width="6.66" height="6.66" maskUnits="userSpaceOnUse"><g transform="translate(0 0)"><g id="mask-36"><polygon id="path-35" class="cls-1" points="0 90.53 6.66 90.53 6.66 97.19 0 97.19 0 90.53"/></g></g></mask><mask id="mask-19" x="39.97" y="90.53" width="6.66" height="6.66" maskUnits="userSpaceOnUse"><g transform="translate(0 0)"><g id="mask-38"><polygon id="path-37" class="cls-1" points="39.97 90.53 46.63 90.53 46.63 97.19 39.97 97.19 39.97 90.53"/></g></g></mask><mask id="mask-20-2" x="99.91" y="90.53" width="6.66" height="6.66" maskUnits="userSpaceOnUse"><g transform="translate(0 0)"><g id="mask-40"><polygon id="path-39" class="cls-1" points="99.91 90.53 106.57 90.53 106.57 97.19 99.91 97.19 99.91 90.53"/></g></g></mask><mask id="mask-21" x="89.92" y="90.53" width="6.66" height="6.66" maskUnits="userSpaceOnUse"><g transform="translate(0 0)"><g id="mask-42"><polygon id="path-41" class="cls-1" points="89.92 90.53 96.58 90.53 96.58 97.19 89.92 97.19 89.92 90.53"/></g></g></mask><mask id="mask-22-2" x="109.9" y="90.53" width="6.66" height="6.66" maskUnits="userSpaceOnUse"><g transform="translate(0 0)"><g id="mask-44"><polygon id="path-43" class="cls-1" points="109.91 90.53 116.56 90.53 116.56 97.19 109.91 97.19 109.91 90.53"/></g></g></mask><mask id="mask-23" x="69.94" y="90.53" width="6.66" height="6.66" maskUnits="userSpaceOnUse"><g transform="translate(0 0)"><g id="mask-46"><polygon id="path-45" class="cls-1" points="69.94 90.53 76.6 90.53 76.6 97.19 69.94 97.19 69.94 90.53"/></g></g></mask><mask id="mask-24-2" x="59.95" y="90.53" width="6.66" height="6.66" maskUnits="userSpaceOnUse"><g transform="translate(0 0)"><g id="mask-48"><polygon id="path-47" class="cls-1" points="59.95 90.53 66.61 90.53 66.61 97.19 59.95 97.19 59.95 90.53"/></g></g></mask><mask id="mask-25" x="79.93" y="90.53" width="6.66" height="6.66" maskUnits="userSpaceOnUse"><g transform="translate(0 0)"><g id="mask-50"><polygon id="path-49" class="cls-1" points="79.93 90.53 86.59 90.53 86.59 97.19 79.93 97.19 79.93 90.53"/></g></g></mask><mask id="mask-26-2" x="259.77" y="90.53" width="6.66" height="6.66" maskUnits="userSpaceOnUse"><g transform="translate(0 0)"><g id="mask-52"><polygon id="path-51" class="cls-1" points="259.77 90.53 266.43 90.53 266.43 97.19 259.77 97.19 259.77 90.53"/></g></g></mask><mask id="mask-27" x="249.78" y="90.53" width="6.66" height="6.66" maskUnits="userSpaceOnUse"><g transform="translate(0 0)"><g id="mask-54"><polygon id="path-53" class="cls-1" points="249.78 90.53 256.44 90.53 256.44 97.19 249.78 97.19 249.78 90.53"/></g></g></mask></defs><title>dots</title><g id="Home-_-Member-Directory" data-name="Home-&amp;-Member-Directory" class="cls-2"><g id="Home"><g id="Hero-_1170x450_" data-name="Hero-{1170x450}"><g id="Dots-_3-column_-98px_-Black-10_" data-name="Dots-{3-column;-98px;-Black-10%}"><path id="Fill-1" class="cls-3" d="M176.51,13.32a3.33,3.33,0,1,0-3.33,3.33,3.33,3.33,0,0,0,3.33-3.33" transform="translate(0 0)"/><path id="Fill-3" class="cls-3" d="M136.55,13.32a3.33,3.33,0,1,0-3.33,3.33,3.33,3.33,0,0,0,3.33-3.33" transform="translate(0 0)"/><path id="Fill-5" class="cls-3" d="M196.49,13.32a3.33,3.33,0,1,0-3.33,3.33,3.33,3.33,0,0,0,3.33-3.33" transform="translate(0 0)"/><path id="Fill-7" class="cls-3" d="M166.52,13.32a3.33,3.33,0,1,0-3.33,3.33,3.33,3.33,0,0,0,3.33-3.33" transform="translate(0 0)"/><path id="Fill-9" class="cls-3" d="M156.53,13.32a3.33,3.33,0,1,0-3.33,3.33,3.33,3.33,0,0,0,3.33-3.33" transform="translate(0 0)"/><path id="Fill-11" class="cls-3" d="M146.54,13.32a3.33,3.33,0,1,0-3.33,3.33,3.33,3.33,0,0,0,3.33-3.33" transform="translate(0 0)"/><path id="Fill-13" class="cls-3" d="M186.5,13.32a3.33,3.33,0,1,0-3.33,3.33,3.33,3.33,0,0,0,3.33-3.33" transform="translate(0 0)"/><path id="Fill-15" class="cls-3" d="M206.48,13.32a3.33,3.33,0,1,0-3.32,3.33,3.33,3.33,0,0,0,3.32-3.33" transform="translate(0 0)"/><path id="Fill-17" class="cls-3" d="M236.46,13.32a3.33,3.33,0,1,0-3.33,3.33,3.33,3.33,0,0,0,3.33-3.33" transform="translate(0 0)"/><path id="Fill-19" class="cls-3" d="M226.47,13.32a3.33,3.33,0,1,0-3.33,3.33,3.33,3.33,0,0,0,3.33-3.33" transform="translate(0 0)"/><path id="Fill-21" class="cls-3" d="M216.48,13.32a3.33,3.33,0,1,0-3.33,3.33,3.33,3.33,0,0,0,3.33-3.33" transform="translate(0 0)"/><path id="Fill-23" class="cls-3" d="M246.45,13.32a3.33,3.33,0,1,0-3.33,3.33,3.33,3.33,0,0,0,3.33-3.33" transform="translate(0 0)"/><path id="Fill-25" class="cls-3" d="M26.64,13.32a3.33,3.33,0,1,0-3.33,3.33,3.33,3.33,0,0,0,3.33-3.33" transform="translate(0 0)"/><path id="Fill-27" class="cls-3" d="M36.64,13.32a3.34,3.34,0,1,0-3.34,3.33,3.34,3.34,0,0,0,3.34-3.33" transform="translate(0 0)"/><path id="Fill-29" class="cls-3" d="M56.62,13.32a3.33,3.33,0,1,0-3.33,3.33,3.33,3.33,0,0,0,3.33-3.33" transform="translate(0 0)"/><path id="Fill-31" class="cls-3" d="M126.56,13.32a3.34,3.34,0,1,0-3.33,3.33,3.33,3.33,0,0,0,3.33-3.33" transform="translate(0 0)"/><path id="Fill-33" class="cls-3" d="M16.65,13.32a3.33,3.33,0,1,0-3.33,3.33,3.33,3.33,0,0,0,3.33-3.33" transform="translate(0 0)"/><path id="Fill-35" class="cls-3" d="M6.66,13.32a3.33,3.33,0,1,0-3.33,3.33,3.33,3.33,0,0,0,3.33-3.33" transform="translate(0 0)"/><path id="Fill-37" class="cls-3" d="M46.63,13.32a3.33,3.33,0,1,0-3.33,3.33,3.33,3.33,0,0,0,3.33-3.33" transform="translate(0 0)"/><path id="Fill-39" class="cls-3" d="M106.57,13.32a3.33,3.33,0,1,0-3.33,3.33,3.33,3.33,0,0,0,3.33-3.33" transform="translate(0 0)"/><path id="Fill-41" class="cls-3" d="M96.58,13.32a3.33,3.33,0,1,0-3.33,3.33,3.33,3.33,0,0,0,3.33-3.33" transform="translate(0 0)"/><path id="Fill-43" class="cls-3" d="M116.56,13.32a3.33,3.33,0,1,0-3.32,3.33,3.33,3.33,0,0,0,3.32-3.33" transform="translate(0 0)"/><path id="Fill-45" class="cls-3" d="M76.6,13.32a3.33,3.33,0,1,0-3.33,3.33,3.33,3.33,0,0,0,3.33-3.33" transform="translate(0 0)"/><path id="Fill-47" class="cls-3" d="M66.61,13.32a3.33,3.33,0,1,0-3.33,3.33,3.33,3.33,0,0,0,3.33-3.33" transform="translate(0 0)"/><path id="Fill-49" class="cls-3" d="M46.63,3.33A3.33,3.33,0,1,0,43.3,6.66a3.33,3.33,0,0,0,3.33-3.33" transform="translate(0 0)"/><path id="Fill-51" class="cls-3" d="M26.64,3.33a3.33,3.33,0,1,0-3.33,3.33,3.33,3.33,0,0,0,3.33-3.33" transform="translate(0 0)"/><path id="Fill-53" class="cls-3" d="M36.64,3.33A3.34,3.34,0,1,0,33.3,6.66a3.34,3.34,0,0,0,3.34-3.33" transform="translate(0 0)"/><path id="Fill-55" class="cls-3" d="M56.62,3.33a3.33,3.33,0,1,0-3.33,3.33,3.33,3.33,0,0,0,3.33-3.33" transform="translate(0 0)"/><path id="Fill-57" class="cls-3" d="M16.65,3.33a3.33,3.33,0,1,0-3.33,3.33,3.33,3.33,0,0,0,3.33-3.33" transform="translate(0 0)"/><path id="Fill-59" class="cls-3" d="M6.66,3.33A3.33,3.33,0,1,0,3.33,6.66,3.33,3.33,0,0,0,6.66,3.33" transform="translate(0 0)"/><path id="Fill-61" class="cls-3" d="M236.46,3.33a3.33,3.33,0,1,0-3.33,3.33,3.33,3.33,0,0,0,3.33-3.33" transform="translate(0 0)"/><path id="Fill-63" class="cls-3" d="M246.45,3.33a3.33,3.33,0,1,0-3.33,3.33,3.33,3.33,0,0,0,3.33-3.33" transform="translate(0 0)"/><path id="Fill-65" class="cls-3" d="M226.47,3.33a3.33,3.33,0,1,0-3.33,3.33,3.33,3.33,0,0,0,3.33-3.33" transform="translate(0 0)"/><path id="Fill-67" class="cls-3" d="M216.48,3.33a3.33,3.33,0,1,0-3.33,3.33,3.33,3.33,0,0,0,3.33-3.33" transform="translate(0 0)"/><path id="Fill-69" class="cls-3" d="M196.49,3.33a3.33,3.33,0,1,0-3.33,3.33,3.33,3.33,0,0,0,3.33-3.33" transform="translate(0 0)"/><path id="Fill-71" class="cls-3" d="M206.48,3.33a3.33,3.33,0,1,0-3.32,3.33,3.33,3.33,0,0,0,3.32-3.33" transform="translate(0 0)"/><path id="Fill-73" class="cls-3" d="M156.53,3.33a3.33,3.33,0,1,0-3.33,3.33,3.33,3.33,0,0,0,3.33-3.33" transform="translate(0 0)"/><path id="Fill-75" class="cls-3" d="M186.5,3.33a3.33,3.33,0,1,0-3.33,3.33,3.33,3.33,0,0,0,3.33-3.33" transform="translate(0 0)"/><path id="Fill-77" class="cls-3" d="M116.56,3.33a3.33,3.33,0,1,0-3.32,3.33,3.33,3.33,0,0,0,3.32-3.33" transform="translate(0 0)"/><path id="Fill-79" class="cls-3" d="M96.58,3.33a3.33,3.33,0,1,0-3.33,3.33,3.33,3.33,0,0,0,3.33-3.33" transform="translate(0 0)"/><path id="Fill-81" class="cls-3" d="M126.56,3.33a3.34,3.34,0,1,0-3.33,3.33,3.33,3.33,0,0,0,3.33-3.33" transform="translate(0 0)"/><path id="Fill-83" class="cls-3" d="M76.6,3.33a3.33,3.33,0,1,0-3.33,3.33A3.33,3.33,0,0,0,76.6,3.33" transform="translate(0 0)"/><path id="Fill-85" class="cls-3" d="M86.59,3.33a3.33,3.33,0,1,0-3.33,3.33,3.33,3.33,0,0,0,3.33-3.33" transform="translate(0 0)"/><path id="Fill-87" class="cls-3" d="M106.57,3.33a3.33,3.33,0,1,0-3.33,3.33,3.33,3.33,0,0,0,3.33-3.33" transform="translate(0 0)"/><path id="Fill-89" class="cls-3" d="M176.51,3.33a3.33,3.33,0,1,0-3.33,3.33,3.33,3.33,0,0,0,3.33-3.33" transform="translate(0 0)"/><path id="Fill-91" class="cls-3" d="M166.52,3.33a3.33,3.33,0,1,0-3.33,3.33,3.33,3.33,0,0,0,3.33-3.33" transform="translate(0 0)"/><path id="Fill-93" class="cls-3" d="M146.54,3.33a3.33,3.33,0,1,0-3.33,3.33,3.33,3.33,0,0,0,3.33-3.33" transform="translate(0 0)"/><path id="Fill-95" class="cls-3" d="M66.61,3.33a3.33,3.33,0,1,0-3.33,3.33,3.33,3.33,0,0,0,3.33-3.33" transform="translate(0 0)"/><path id="Fill-97" class="cls-3" d="M136.55,3.33a3.33,3.33,0,1,0-3.33,3.33,3.33,3.33,0,0,0,3.33-3.33" transform="translate(0 0)"/><path id="Fill-99" class="cls-3" d="M86.59,13.32a3.33,3.33,0,1,0-3.33,3.33,3.33,3.33,0,0,0,3.33-3.33" transform="translate(0 0)"/><path id="Fill-101" class="cls-3" d="M266.43,13.32a3.33,3.33,0,1,0-3.33,3.33,3.33,3.33,0,0,0,3.33-3.33" transform="translate(0 0)"/><path id="Fill-103" class="cls-3" d="M256.44,13.32a3.33,3.33,0,1,0-3.33,3.33,3.33,3.33,0,0,0,3.33-3.33" transform="translate(0 0)"/><path id="Fill-105" class="cls-3" d="M256.44,3.33a3.33,3.33,0,1,0-3.33,3.33,3.33,3.33,0,0,0,3.33-3.33" transform="translate(0 0)"/><path id="Fill-107" class="cls-3" d="M266.43,3.33a3.33,3.33,0,1,0-3.33,3.33,3.33,3.33,0,0,0,3.33-3.33" transform="translate(0 0)"/><path id="Fill-109" class="cls-3" d="M176.51,33.9a3.33,3.33,0,1,0-3.33,3.33,3.33,3.33,0,0,0,3.33-3.33" transform="translate(0 0)"/><path id="Fill-111" class="cls-3" d="M136.55,33.9a3.33,3.33,0,1,0-3.33,3.33,3.33,3.33,0,0,0,3.33-3.33" transform="translate(0 0)"/><path id="Fill-113" class="cls-3" d="M196.49,33.9a3.33,3.33,0,1,0-3.33,3.33,3.33,3.33,0,0,0,3.33-3.33" transform="translate(0 0)"/><path id="Fill-115" class="cls-3" d="M166.52,33.9a3.33,3.33,0,1,0-3.33,3.33,3.33,3.33,0,0,0,3.33-3.33" transform="translate(0 0)"/><path id="Fill-117" class="cls-3" d="M156.53,33.9a3.33,3.33,0,1,0-3.33,3.33,3.33,3.33,0,0,0,3.33-3.33" transform="translate(0 0)"/><path id="Fill-119" class="cls-3" d="M146.54,33.9a3.33,3.33,0,1,0-3.33,3.33,3.33,3.33,0,0,0,3.33-3.33" transform="translate(0 0)"/><path id="Fill-121" class="cls-3" d="M186.5,33.9a3.33,3.33,0,1,0-3.33,3.33,3.33,3.33,0,0,0,3.33-3.33" transform="translate(0 0)"/><path id="Fill-123" class="cls-3" d="M206.48,33.9a3.33,3.33,0,1,0-3.32,3.33,3.33,3.33,0,0,0,3.32-3.33" transform="translate(0 0)"/><path id="Fill-125" class="cls-3" d="M236.46,33.9a3.33,3.33,0,1,0-3.33,3.33,3.33,3.33,0,0,0,3.33-3.33" transform="translate(0 0)"/><path id="Fill-127" class="cls-3" d="M226.47,33.9a3.33,3.33,0,1,0-3.33,3.33,3.33,3.33,0,0,0,3.33-3.33" transform="translate(0 0)"/><path id="Fill-129" class="cls-3" d="M216.48,33.9a3.33,3.33,0,1,0-3.33,3.33,3.33,3.33,0,0,0,3.33-3.33" transform="translate(0 0)"/><path id="Fill-131" class="cls-3" d="M246.45,33.9a3.33,3.33,0,1,0-3.33,3.33,3.33,3.33,0,0,0,3.33-3.33" transform="translate(0 0)"/><path id="Fill-133" class="cls-3" d="M26.64,33.9a3.33,3.33,0,1,0-3.33,3.33,3.33,3.33,0,0,0,3.33-3.33" transform="translate(0 0)"/><path id="Fill-135" class="cls-3" d="M36.64,33.9a3.34,3.34,0,1,0-3.34,3.33,3.34,3.34,0,0,0,3.34-3.33" transform="translate(0 0)"/><path id="Fill-137" class="cls-3" d="M56.62,33.9a3.33,3.33,0,1,0-3.33,3.33,3.33,3.33,0,0,0,3.33-3.33" transform="translate(0 0)"/><path id="Fill-139" class="cls-3" d="M126.56,33.9a3.34,3.34,0,1,0-3.33,3.33,3.33,3.33,0,0,0,3.33-3.33" transform="translate(0 0)"/><path id="Fill-141" class="cls-3" d="M16.65,33.9a3.33,3.33,0,1,0-3.33,3.33,3.33,3.33,0,0,0,3.33-3.33" transform="translate(0 0)"/><path id="Fill-143" class="cls-3" d="M6.66,33.9a3.33,3.33,0,1,0-3.33,3.33A3.33,3.33,0,0,0,6.66,33.9" transform="translate(0 0)"/><path id="Fill-145" class="cls-3" d="M46.63,33.9a3.33,3.33,0,1,0-3.33,3.33,3.33,3.33,0,0,0,3.33-3.33" transform="translate(0 0)"/><path id="Fill-147" class="cls-3" d="M106.57,33.9a3.33,3.33,0,1,0-3.33,3.33,3.33,3.33,0,0,0,3.33-3.33" transform="translate(0 0)"/><path id="Fill-149" class="cls-3" d="M96.58,33.9a3.33,3.33,0,1,0-3.33,3.33,3.33,3.33,0,0,0,3.33-3.33" transform="translate(0 0)"/><path id="Fill-151" class="cls-3" d="M116.56,33.9a3.33,3.33,0,1,0-3.32,3.33,3.33,3.33,0,0,0,3.32-3.33" transform="translate(0 0)"/><path id="Fill-153" class="cls-3" d="M76.6,33.9a3.33,3.33,0,1,0-3.33,3.33A3.33,3.33,0,0,0,76.6,33.9" transform="translate(0 0)"/><path id="Fill-155" class="cls-3" d="M66.61,33.9a3.33,3.33,0,1,0-3.33,3.33,3.33,3.33,0,0,0,3.33-3.33" transform="translate(0 0)"/><path id="Fill-157" class="cls-3" d="M46.63,23.91a3.33,3.33,0,1,0-3.33,3.33,3.33,3.33,0,0,0,3.33-3.33" transform="translate(0 0)"/><path id="Fill-159" class="cls-3" d="M26.64,23.91a3.33,3.33,0,1,0-3.33,3.33,3.33,3.33,0,0,0,3.33-3.33" transform="translate(0 0)"/><path id="Fill-161" class="cls-3" d="M36.64,23.91a3.34,3.34,0,1,0-3.34,3.33,3.34,3.34,0,0,0,3.34-3.33" transform="translate(0 0)"/><path id="Fill-163" class="cls-3" d="M56.62,23.91a3.33,3.33,0,1,0-3.33,3.33,3.33,3.33,0,0,0,3.33-3.33" transform="translate(0 0)"/><path id="Fill-165" class="cls-3" d="M16.65,23.91a3.33,3.33,0,1,0-3.33,3.33,3.33,3.33,0,0,0,3.33-3.33" transform="translate(0 0)"/><path id="Fill-167" class="cls-3" d="M6.66,23.91a3.33,3.33,0,1,0-3.33,3.33,3.33,3.33,0,0,0,3.33-3.33" transform="translate(0 0)"/><path id="Fill-169" class="cls-3" d="M236.46,23.91a3.33,3.33,0,1,0-3.33,3.33,3.33,3.33,0,0,0,3.33-3.33" transform="translate(0 0)"/><path id="Fill-171" class="cls-3" d="M246.45,23.91a3.33,3.33,0,1,0-3.33,3.33,3.33,3.33,0,0,0,3.33-3.33" transform="translate(0 0)"/><path id="Fill-173" class="cls-3" d="M226.47,23.91a3.33,3.33,0,1,0-3.33,3.33,3.33,3.33,0,0,0,3.33-3.33" transform="translate(0 0)"/><path id="Fill-175" class="cls-3" d="M216.48,23.91a3.33,3.33,0,1,0-3.33,3.33,3.33,3.33,0,0,0,3.33-3.33" transform="translate(0 0)"/><path id="Fill-177" class="cls-3" d="M196.49,23.91a3.33,3.33,0,1,0-3.33,3.33,3.33,3.33,0,0,0,3.33-3.33" transform="translate(0 0)"/><path id="Fill-179" class="cls-3" d="M206.48,23.91a3.33,3.33,0,1,0-3.32,3.33,3.33,3.33,0,0,0,3.32-3.33" transform="translate(0 0)"/><path id="Fill-181" class="cls-3" d="M156.53,23.91a3.33,3.33,0,1,0-3.33,3.33,3.33,3.33,0,0,0,3.33-3.33" transform="translate(0 0)"/><path id="Fill-183" class="cls-3" d="M186.5,23.91a3.33,3.33,0,1,0-3.33,3.33,3.33,3.33,0,0,0,3.33-3.33" transform="translate(0 0)"/><path id="Fill-185" class="cls-3" d="M116.56,23.91a3.33,3.33,0,1,0-3.32,3.33,3.33,3.33,0,0,0,3.32-3.33" transform="translate(0 0)"/><path id="Fill-187" class="cls-3" d="M96.58,23.91a3.33,3.33,0,1,0-3.33,3.33,3.33,3.33,0,0,0,3.33-3.33" transform="translate(0 0)"/><path id="Fill-189" class="cls-3" d="M126.56,23.91a3.34,3.34,0,1,0-3.33,3.33,3.33,3.33,0,0,0,3.33-3.33" transform="translate(0 0)"/><path id="Fill-191" class="cls-3" d="M76.6,23.91a3.33,3.33,0,1,0-3.33,3.33,3.33,3.33,0,0,0,3.33-3.33" transform="translate(0 0)"/><path id="Fill-193" class="cls-3" d="M86.59,23.91a3.33,3.33,0,1,0-3.33,3.33,3.33,3.33,0,0,0,3.33-3.33" transform="translate(0 0)"/><path id="Fill-195" class="cls-3" d="M106.57,23.91a3.33,3.33,0,1,0-3.33,3.33,3.33,3.33,0,0,0,3.33-3.33" transform="translate(0 0)"/><path id="Fill-197" class="cls-3" d="M176.51,23.91a3.33,3.33,0,1,0-3.33,3.33,3.33,3.33,0,0,0,3.33-3.33" transform="translate(0 0)"/><path id="Fill-199" class="cls-3" d="M166.52,23.91a3.33,3.33,0,1,0-3.33,3.33,3.33,3.33,0,0,0,3.33-3.33" transform="translate(0 0)"/><path id="Fill-201" class="cls-3" d="M146.54,23.91a3.33,3.33,0,1,0-3.33,3.33,3.33,3.33,0,0,0,3.33-3.33" transform="translate(0 0)"/><path id="Fill-203" class="cls-3" d="M66.61,23.91a3.33,3.33,0,1,0-3.33,3.33,3.33,3.33,0,0,0,3.33-3.33" transform="translate(0 0)"/><path id="Fill-205" class="cls-3" d="M136.55,23.91a3.33,3.33,0,1,0-3.33,3.33,3.33,3.33,0,0,0,3.33-3.33" transform="translate(0 0)"/><path id="Fill-207" class="cls-3" d="M86.59,33.9a3.33,3.33,0,1,0-3.33,3.33,3.33,3.33,0,0,0,3.33-3.33" transform="translate(0 0)"/><path id="Fill-209" class="cls-3" d="M176.51,73.88a3.33,3.33,0,1,0-3.33,3.33,3.34,3.34,0,0,0,3.33-3.33" transform="translate(0 0)"/><path id="Fill-211" class="cls-3" d="M136.55,73.88a3.33,3.33,0,1,0-3.33,3.33,3.34,3.34,0,0,0,3.33-3.33" transform="translate(0 0)"/><path id="Fill-213" class="cls-3" d="M196.49,73.88a3.33,3.33,0,1,0-3.33,3.33,3.34,3.34,0,0,0,3.33-3.33" transform="translate(0 0)"/><path id="Fill-215" class="cls-3" d="M166.52,73.88a3.33,3.33,0,1,0-3.33,3.33,3.34,3.34,0,0,0,3.33-3.33" transform="translate(0 0)"/><path id="Fill-217" class="cls-3" d="M156.53,73.88a3.33,3.33,0,1,0-3.33,3.33,3.34,3.34,0,0,0,3.33-3.33" transform="translate(0 0)"/><path id="Fill-219" class="cls-3" d="M146.54,73.88a3.33,3.33,0,1,0-3.33,3.33,3.34,3.34,0,0,0,3.33-3.33" transform="translate(0 0)"/><path id="Fill-221" class="cls-3" d="M186.5,73.88a3.33,3.33,0,1,0-3.33,3.33,3.34,3.34,0,0,0,3.33-3.33" transform="translate(0 0)"/><path id="Fill-223" class="cls-3" d="M206.48,73.88a3.33,3.33,0,1,0-3.32,3.33,3.34,3.34,0,0,0,3.32-3.33" transform="translate(0 0)"/><path id="Fill-225" class="cls-3" d="M236.46,73.88a3.33,3.33,0,1,0-3.33,3.33,3.34,3.34,0,0,0,3.33-3.33" transform="translate(0 0)"/><path id="Fill-227" class="cls-3" d="M226.47,73.88a3.33,3.33,0,1,0-3.33,3.33,3.34,3.34,0,0,0,3.33-3.33" transform="translate(0 0)"/><path id="Fill-229" class="cls-3" d="M216.48,73.88a3.33,3.33,0,1,0-3.33,3.33,3.34,3.34,0,0,0,3.33-3.33" transform="translate(0 0)"/><path id="Fill-231" class="cls-3" d="M246.45,73.88a3.33,3.33,0,1,0-3.33,3.33,3.34,3.34,0,0,0,3.33-3.33" transform="translate(0 0)"/><path id="Fill-233" class="cls-3" d="M26.64,73.88a3.33,3.33,0,1,0-3.33,3.33,3.34,3.34,0,0,0,3.33-3.33" transform="translate(0 0)"/><path id="Fill-235" class="cls-3" d="M36.64,73.88a3.34,3.34,0,1,0-3.34,3.33,3.35,3.35,0,0,0,3.34-3.33" transform="translate(0 0)"/><path id="Fill-237" class="cls-3" d="M56.62,73.88a3.33,3.33,0,1,0-3.33,3.33,3.34,3.34,0,0,0,3.33-3.33" transform="translate(0 0)"/><path id="Fill-239" class="cls-3" d="M126.56,73.88a3.34,3.34,0,1,0-3.33,3.33,3.34,3.34,0,0,0,3.33-3.33" transform="translate(0 0)"/><path id="Fill-241" class="cls-3" d="M16.65,73.88a3.33,3.33,0,1,0-3.33,3.33,3.34,3.34,0,0,0,3.33-3.33" transform="translate(0 0)"/><path id="Fill-243" class="cls-3" d="M6.66,73.88a3.33,3.33,0,1,0-3.33,3.33,3.34,3.34,0,0,0,3.33-3.33" transform="translate(0 0)"/><path id="Fill-245" class="cls-3" d="M46.63,73.88a3.33,3.33,0,1,0-3.33,3.33,3.34,3.34,0,0,0,3.33-3.33" transform="translate(0 0)"/><path id="Fill-247" class="cls-3" d="M106.57,73.88a3.33,3.33,0,1,0-3.33,3.33,3.34,3.34,0,0,0,3.33-3.33" transform="translate(0 0)"/><path id="Fill-249" class="cls-3" d="M96.58,73.88a3.33,3.33,0,1,0-3.33,3.33,3.34,3.34,0,0,0,3.33-3.33" transform="translate(0 0)"/><path id="Fill-251" class="cls-3" d="M116.56,73.88a3.33,3.33,0,1,0-3.32,3.33,3.34,3.34,0,0,0,3.32-3.33" transform="translate(0 0)"/><path id="Fill-253" class="cls-3" d="M76.6,73.88a3.33,3.33,0,1,0-3.33,3.33,3.34,3.34,0,0,0,3.33-3.33" transform="translate(0 0)"/><path id="Fill-255" class="cls-3" d="M66.61,73.88a3.33,3.33,0,1,0-3.33,3.33,3.34,3.34,0,0,0,3.33-3.33" transform="translate(0 0)"/><path id="Fill-257" class="cls-3" d="M46.63,63.88a3.33,3.33,0,1,0-3.33,3.33,3.34,3.34,0,0,0,3.33-3.33" transform="translate(0 0)"/><path id="Fill-259" class="cls-3" d="M26.64,63.88a3.33,3.33,0,1,0-3.33,3.33,3.34,3.34,0,0,0,3.33-3.33" transform="translate(0 0)"/><path id="Fill-261" class="cls-3" d="M36.64,63.88a3.34,3.34,0,1,0-3.34,3.33,3.34,3.34,0,0,0,3.34-3.33" transform="translate(0 0)"/><path id="Fill-263" class="cls-3" d="M56.62,63.88a3.33,3.33,0,1,0-3.33,3.33,3.34,3.34,0,0,0,3.33-3.33" transform="translate(0 0)"/><path id="Fill-265" class="cls-3" d="M16.65,63.88a3.33,3.33,0,1,0-3.33,3.33,3.34,3.34,0,0,0,3.33-3.33" transform="translate(0 0)"/><path id="Fill-267" class="cls-3" d="M6.66,63.88a3.33,3.33,0,1,0-3.33,3.33,3.34,3.34,0,0,0,3.33-3.33" transform="translate(0 0)"/><path id="Fill-269" class="cls-3" d="M236.46,63.88a3.33,3.33,0,1,0-3.33,3.33,3.34,3.34,0,0,0,3.33-3.33" transform="translate(0 0)"/><path id="Fill-271" class="cls-3" d="M246.45,63.88a3.33,3.33,0,1,0-3.33,3.33,3.34,3.34,0,0,0,3.33-3.33" transform="translate(0 0)"/><path id="Fill-273" class="cls-3" d="M226.47,63.88a3.33,3.33,0,1,0-3.33,3.33,3.34,3.34,0,0,0,3.33-3.33" transform="translate(0 0)"/><path id="Fill-275" class="cls-3" d="M216.48,63.88a3.33,3.33,0,1,0-3.33,3.33,3.34,3.34,0,0,0,3.33-3.33" transform="translate(0 0)"/><path id="Fill-277" class="cls-3" d="M196.49,63.88a3.33,3.33,0,1,0-3.33,3.33,3.34,3.34,0,0,0,3.33-3.33" transform="translate(0 0)"/><path id="Fill-279" class="cls-3" d="M206.48,63.88a3.33,3.33,0,1,0-3.32,3.33,3.33,3.33,0,0,0,3.32-3.33" transform="translate(0 0)"/><path id="Fill-281" class="cls-3" d="M156.53,63.88a3.33,3.33,0,1,0-3.33,3.33,3.34,3.34,0,0,0,3.33-3.33" transform="translate(0 0)"/><path id="Fill-283" class="cls-3" d="M186.5,63.88a3.33,3.33,0,1,0-3.33,3.33,3.34,3.34,0,0,0,3.33-3.33" transform="translate(0 0)"/><path id="Fill-285" class="cls-3" d="M116.56,63.88a3.33,3.33,0,1,0-3.32,3.33,3.33,3.33,0,0,0,3.32-3.33" transform="translate(0 0)"/><path id="Fill-287" class="cls-3" d="M96.58,63.88a3.33,3.33,0,1,0-3.33,3.33,3.34,3.34,0,0,0,3.33-3.33" transform="translate(0 0)"/><path id="Fill-289" class="cls-3" d="M126.56,63.88a3.34,3.34,0,1,0-3.33,3.33,3.34,3.34,0,0,0,3.33-3.33" transform="translate(0 0)"/><path id="Fill-291" class="cls-3" d="M76.6,63.88a3.33,3.33,0,1,0-3.33,3.33,3.34,3.34,0,0,0,3.33-3.33" transform="translate(0 0)"/><path id="Fill-293" class="cls-3" d="M86.59,63.88a3.33,3.33,0,1,0-3.33,3.33,3.34,3.34,0,0,0,3.33-3.33" transform="translate(0 0)"/><path id="Fill-295" class="cls-3" d="M106.57,63.88a3.33,3.33,0,1,0-3.33,3.33,3.34,3.34,0,0,0,3.33-3.33" transform="translate(0 0)"/><path id="Fill-297" class="cls-3" d="M176.51,63.88a3.33,3.33,0,1,0-3.33,3.33,3.34,3.34,0,0,0,3.33-3.33" transform="translate(0 0)"/><path id="Fill-299" class="cls-3" d="M166.52,63.88a3.33,3.33,0,1,0-3.33,3.33,3.34,3.34,0,0,0,3.33-3.33" transform="translate(0 0)"/><path id="Fill-301" class="cls-3" d="M146.54,63.88a3.33,3.33,0,1,0-3.33,3.33,3.34,3.34,0,0,0,3.33-3.33" transform="translate(0 0)"/><path id="Fill-303" class="cls-3" d="M66.61,63.88a3.33,3.33,0,1,0-3.33,3.33,3.34,3.34,0,0,0,3.33-3.33" transform="translate(0 0)"/><path id="Fill-305" class="cls-3" d="M136.55,63.88a3.33,3.33,0,1,0-3.33,3.33,3.34,3.34,0,0,0,3.33-3.33" transform="translate(0 0)"/><path id="Fill-307" class="cls-3" d="M86.59,73.88a3.33,3.33,0,1,0-3.33,3.33,3.34,3.34,0,0,0,3.33-3.33" transform="translate(0 0)"/><path id="Fill-309" class="cls-3" d="M46.63,53.89a3.33,3.33,0,1,0-3.33,3.33,3.33,3.33,0,0,0,3.33-3.33" transform="translate(0 0)"/><path id="Fill-311" class="cls-3" d="M26.64,53.89a3.33,3.33,0,1,0-3.33,3.33,3.33,3.33,0,0,0,3.33-3.33" transform="translate(0 0)"/><path id="Fill-313" class="cls-3" d="M36.64,53.89a3.34,3.34,0,1,0-3.34,3.33,3.34,3.34,0,0,0,3.34-3.33" transform="translate(0 0)"/><path id="Fill-315" class="cls-3" d="M56.62,53.89a3.33,3.33,0,1,0-3.33,3.33,3.33,3.33,0,0,0,3.33-3.33" transform="translate(0 0)"/><path id="Fill-317" class="cls-3" d="M16.65,53.89a3.33,3.33,0,1,0-3.33,3.33,3.33,3.33,0,0,0,3.33-3.33" transform="translate(0 0)"/><path id="Fill-319" class="cls-3" d="M6.66,53.89a3.33,3.33,0,1,0-3.33,3.33,3.33,3.33,0,0,0,3.33-3.33" transform="translate(0 0)"/><path id="Fill-321" class="cls-3" d="M236.46,53.89a3.33,3.33,0,1,0-3.33,3.33,3.33,3.33,0,0,0,3.33-3.33" transform="translate(0 0)"/><path id="Fill-323" class="cls-3" d="M246.45,53.89a3.33,3.33,0,1,0-3.33,3.33,3.33,3.33,0,0,0,3.33-3.33" transform="translate(0 0)"/><path id="Fill-325" class="cls-3" d="M226.47,53.89a3.33,3.33,0,1,0-3.33,3.33,3.33,3.33,0,0,0,3.33-3.33" transform="translate(0 0)"/><path id="Fill-327" class="cls-3" d="M216.48,53.89a3.33,3.33,0,1,0-3.33,3.33,3.33,3.33,0,0,0,3.33-3.33" transform="translate(0 0)"/><path id="Fill-329" class="cls-3" d="M196.49,53.89a3.33,3.33,0,1,0-3.33,3.33,3.33,3.33,0,0,0,3.33-3.33" transform="translate(0 0)"/><path id="Fill-331" class="cls-3" d="M206.48,53.89a3.33,3.33,0,1,0-3.32,3.33,3.33,3.33,0,0,0,3.32-3.33" transform="translate(0 0)"/><path id="Fill-333" class="cls-3" d="M156.53,53.89a3.33,3.33,0,1,0-3.33,3.33,3.33,3.33,0,0,0,3.33-3.33" transform="translate(0 0)"/><path id="Fill-335" class="cls-3" d="M186.5,53.89a3.33,3.33,0,1,0-3.33,3.33,3.33,3.33,0,0,0,3.33-3.33" transform="translate(0 0)"/><path id="Fill-337" class="cls-3" d="M116.56,53.89a3.33,3.33,0,1,0-3.32,3.33,3.33,3.33,0,0,0,3.32-3.33" transform="translate(0 0)"/><path id="Fill-339" class="cls-3" d="M96.58,53.89a3.33,3.33,0,1,0-3.33,3.33,3.33,3.33,0,0,0,3.33-3.33" transform="translate(0 0)"/><path id="Fill-341" class="cls-3" d="M126.56,53.89a3.34,3.34,0,1,0-3.33,3.33,3.33,3.33,0,0,0,3.33-3.33" transform="translate(0 0)"/><path id="Fill-343" class="cls-3" d="M76.6,53.89a3.33,3.33,0,1,0-3.33,3.33,3.33,3.33,0,0,0,3.33-3.33" transform="translate(0 0)"/><path id="Fill-345" class="cls-3" d="M86.59,53.89a3.33,3.33,0,1,0-3.33,3.33,3.33,3.33,0,0,0,3.33-3.33" transform="translate(0 0)"/><path id="Fill-347" class="cls-3" d="M106.57,53.89a3.33,3.33,0,1,0-3.33,3.33,3.33,3.33,0,0,0,3.33-3.33" transform="translate(0 0)"/><path id="Fill-349" class="cls-3" d="M176.51,53.89a3.33,3.33,0,1,0-3.33,3.33,3.33,3.33,0,0,0,3.33-3.33" transform="translate(0 0)"/><path id="Fill-351" class="cls-3" d="M166.52,53.89a3.33,3.33,0,1,0-3.33,3.33,3.33,3.33,0,0,0,3.33-3.33" transform="translate(0 0)"/><path id="Fill-353" class="cls-3" d="M146.54,53.89a3.33,3.33,0,1,0-3.33,3.33,3.33,3.33,0,0,0,3.33-3.33" transform="translate(0 0)"/><path id="Fill-355" class="cls-3" d="M66.61,53.89a3.33,3.33,0,1,0-3.33,3.33,3.33,3.33,0,0,0,3.33-3.33" transform="translate(0 0)"/><path id="Fill-357" class="cls-3" d="M136.55,53.89a3.33,3.33,0,1,0-3.33,3.33,3.33,3.33,0,0,0,3.33-3.33" transform="translate(0 0)"/><path id="Fill-359" class="cls-3" d="M46.63,43.9a3.33,3.33,0,1,0-3.33,3.33,3.33,3.33,0,0,0,3.33-3.33" transform="translate(0 0)"/><path id="Fill-361" class="cls-3" d="M26.64,43.9a3.33,3.33,0,1,0-3.33,3.33,3.33,3.33,0,0,0,3.33-3.33" transform="translate(0 0)"/><path id="Fill-363" class="cls-3" d="M36.64,43.9a3.34,3.34,0,1,0-3.34,3.33,3.34,3.34,0,0,0,3.34-3.33" transform="translate(0 0)"/><path id="Fill-365" class="cls-3" d="M56.62,43.9a3.33,3.33,0,1,0-3.33,3.33,3.33,3.33,0,0,0,3.33-3.33" transform="translate(0 0)"/><path id="Fill-367" class="cls-3" d="M16.65,43.9a3.33,3.33,0,1,0-3.33,3.33,3.33,3.33,0,0,0,3.33-3.33" transform="translate(0 0)"/><path id="Fill-369" class="cls-3" d="M6.66,43.9a3.33,3.33,0,1,0-3.33,3.33A3.33,3.33,0,0,0,6.66,43.9" transform="translate(0 0)"/><path id="Fill-371" class="cls-3" d="M236.46,43.9a3.33,3.33,0,1,0-3.33,3.33,3.33,3.33,0,0,0,3.33-3.33" transform="translate(0 0)"/><path id="Fill-373" class="cls-3" d="M246.45,43.9a3.33,3.33,0,1,0-3.33,3.33,3.33,3.33,0,0,0,3.33-3.33" transform="translate(0 0)"/><path id="Fill-375" class="cls-3" d="M226.47,43.9a3.33,3.33,0,1,0-3.33,3.33,3.33,3.33,0,0,0,3.33-3.33" transform="translate(0 0)"/><path id="Fill-377" class="cls-3" d="M216.48,43.9a3.33,3.33,0,1,0-3.33,3.33,3.33,3.33,0,0,0,3.33-3.33" transform="translate(0 0)"/><path id="Fill-379" class="cls-3" d="M196.49,43.9a3.33,3.33,0,1,0-3.33,3.33,3.33,3.33,0,0,0,3.33-3.33" transform="translate(0 0)"/><path id="Fill-381" class="cls-3" d="M206.48,43.9a3.33,3.33,0,1,0-3.32,3.33,3.33,3.33,0,0,0,3.32-3.33" transform="translate(0 0)"/><path id="Fill-383" class="cls-3" d="M156.53,43.9a3.33,3.33,0,1,0-3.33,3.33,3.33,3.33,0,0,0,3.33-3.33" transform="translate(0 0)"/><path id="Fill-385" class="cls-3" d="M186.5,43.9a3.33,3.33,0,1,0-3.33,3.33,3.33,3.33,0,0,0,3.33-3.33" transform="translate(0 0)"/><path id="Fill-387" class="cls-3" d="M116.56,43.9a3.33,3.33,0,1,0-3.32,3.33,3.33,3.33,0,0,0,3.32-3.33" transform="translate(0 0)"/><path id="Fill-389" class="cls-3" d="M96.58,43.9a3.33,3.33,0,1,0-3.33,3.33,3.33,3.33,0,0,0,3.33-3.33" transform="translate(0 0)"/><path id="Fill-391" class="cls-3" d="M126.56,43.9a3.34,3.34,0,1,0-3.33,3.33,3.33,3.33,0,0,0,3.33-3.33" transform="translate(0 0)"/><path id="Fill-393" class="cls-3" d="M76.6,43.9a3.33,3.33,0,1,0-3.33,3.33A3.33,3.33,0,0,0,76.6,43.9" transform="translate(0 0)"/><path id="Fill-395" class="cls-3" d="M86.59,43.9a3.33,3.33,0,1,0-3.33,3.33,3.33,3.33,0,0,0,3.33-3.33" transform="translate(0 0)"/><path id="Fill-397" class="cls-3" d="M106.57,43.9a3.33,3.33,0,1,0-3.33,3.33,3.33,3.33,0,0,0,3.33-3.33" transform="translate(0 0)"/><path id="Fill-399" class="cls-3" d="M176.51,43.9a3.33,3.33,0,1,0-3.33,3.33,3.33,3.33,0,0,0,3.33-3.33" transform="translate(0 0)"/><path id="Fill-401" class="cls-3" d="M166.52,43.9a3.33,3.33,0,1,0-3.33,3.33,3.33,3.33,0,0,0,3.33-3.33" transform="translate(0 0)"/><path id="Fill-403" class="cls-3" d="M146.54,43.9a3.33,3.33,0,1,0-3.33,3.33,3.33,3.33,0,0,0,3.33-3.33" transform="translate(0 0)"/><path id="Fill-405" class="cls-3" d="M266.43,33.9a3.33,3.33,0,1,0-3.33,3.33,3.33,3.33,0,0,0,3.33-3.33" transform="translate(0 0)"/><path id="Fill-407" class="cls-3" d="M256.44,33.9a3.33,3.33,0,1,0-3.33,3.33,3.33,3.33,0,0,0,3.33-3.33" transform="translate(0 0)"/><path id="Fill-409" class="cls-3" d="M256.44,23.91a3.33,3.33,0,1,0-3.33,3.33,3.33,3.33,0,0,0,3.33-3.33" transform="translate(0 0)"/><path id="Fill-411" class="cls-3" d="M266.43,23.91a3.33,3.33,0,1,0-3.33,3.33,3.33,3.33,0,0,0,3.33-3.33" transform="translate(0 0)"/><path id="Fill-413" class="cls-3" d="M266.43,73.88a3.33,3.33,0,1,0-3.33,3.33,3.34,3.34,0,0,0,3.33-3.33" transform="translate(0 0)"/><path id="Fill-415" class="cls-3" d="M256.44,73.88a3.33,3.33,0,1,0-3.33,3.33,3.34,3.34,0,0,0,3.33-3.33" transform="translate(0 0)"/><path id="Fill-417" class="cls-3" d="M256.44,63.88a3.33,3.33,0,1,0-3.33,3.33,3.34,3.34,0,0,0,3.33-3.33" transform="translate(0 0)"/><path id="Fill-419" class="cls-3" d="M266.43,63.88a3.33,3.33,0,1,0-3.33,3.33,3.34,3.34,0,0,0,3.33-3.33" transform="translate(0 0)"/><path id="Fill-421" class="cls-3" d="M256.44,53.89a3.33,3.33,0,1,0-3.33,3.33,3.33,3.33,0,0,0,3.33-3.33" transform="translate(0 0)"/><path id="Fill-423" class="cls-3" d="M266.43,53.89a3.33,3.33,0,1,0-3.33,3.33,3.33,3.33,0,0,0,3.33-3.33" transform="translate(0 0)"/><g id="Group-427"><g class="cls-4"><path id="Fill-425" class="cls-3" d="M176.51,93.86a3.33,3.33,0,1,0-3.33,3.33,3.33,3.33,0,0,0,3.33-3.33" transform="translate(0 0)"/></g></g><g id="Group-430"><g class="cls-5"><path id="Fill-428" class="cls-3" d="M136.55,93.86a3.33,3.33,0,1,0-3.33,3.33,3.33,3.33,0,0,0,3.33-3.33" transform="translate(0 0)"/></g></g><g id="Group-433"><g class="cls-6"><path id="Fill-431" class="cls-3" d="M196.49,93.86a3.33,3.33,0,1,0-3.33,3.33,3.33,3.33,0,0,0,3.33-3.33" transform="translate(0 0)"/></g></g><g id="Group-436"><g class="cls-7"><path id="Fill-434" class="cls-3" d="M166.52,93.86a3.33,3.33,0,1,0-3.33,3.33,3.33,3.33,0,0,0,3.33-3.33" transform="translate(0 0)"/></g></g><g id="Group-439"><g class="cls-8"><path id="Fill-437" class="cls-3" d="M156.53,93.86a3.33,3.33,0,1,0-3.33,3.33,3.33,3.33,0,0,0,3.33-3.33" transform="translate(0 0)"/></g></g><g id="Group-442"><g class="cls-9"><path id="Fill-440" class="cls-3" d="M146.54,93.86a3.33,3.33,0,1,0-3.33,3.33,3.33,3.33,0,0,0,3.33-3.33" transform="translate(0 0)"/></g></g><g id="Group-445"><g class="cls-10"><path id="Fill-443" class="cls-3" d="M186.5,93.86a3.33,3.33,0,1,0-3.33,3.33,3.33,3.33,0,0,0,3.33-3.33" transform="translate(0 0)"/></g></g><g id="Group-448"><g class="cls-11"><path id="Fill-446" class="cls-3" d="M206.48,93.86a3.33,3.33,0,1,0-3.32,3.33,3.33,3.33,0,0,0,3.32-3.33" transform="translate(0 0)"/></g></g><g id="Group-451"><g class="cls-12"><path id="Fill-449" class="cls-3" d="M236.46,93.86a3.33,3.33,0,1,0-3.33,3.33,3.33,3.33,0,0,0,3.33-3.33" transform="translate(0 0)"/></g></g><g id="Group-454"><g class="cls-13"><path id="Fill-452" class="cls-3" d="M226.47,93.86a3.33,3.33,0,1,0-3.33,3.33,3.33,3.33,0,0,0,3.33-3.33" transform="translate(0 0)"/></g></g><g id="Group-457"><g class="cls-14"><path id="Fill-455" class="cls-3" d="M216.48,93.86a3.33,3.33,0,1,0-3.33,3.33,3.33,3.33,0,0,0,3.33-3.33" transform="translate(0 0)"/></g></g><g id="Group-460"><g class="cls-15"><path id="Fill-458" class="cls-3" d="M246.45,93.86a3.33,3.33,0,1,0-3.33,3.33,3.33,3.33,0,0,0,3.33-3.33" transform="translate(0 0)"/></g></g><g id="Group-463"><g class="cls-16"><path id="Fill-461" class="cls-3" d="M26.64,93.86a3.33,3.33,0,1,0-3.33,3.33,3.33,3.33,0,0,0,3.33-3.33" transform="translate(0 0)"/></g></g><g id="Group-466"><g class="cls-17"><path id="Fill-464" class="cls-3" d="M36.64,93.86a3.34,3.34,0,1,0-3.34,3.33,3.34,3.34,0,0,0,3.34-3.33" transform="translate(0 0)"/></g></g><g id="Group-469"><g class="cls-18"><path id="Fill-467" class="cls-3" d="M56.62,93.86a3.33,3.33,0,1,0-3.33,3.33,3.33,3.33,0,0,0,3.33-3.33" transform="translate(0 0)"/></g></g><g id="Group-472"><g class="cls-19"><path id="Fill-470" class="cls-3" d="M126.56,93.86a3.34,3.34,0,1,0-3.33,3.33,3.33,3.33,0,0,0,3.33-3.33" transform="translate(0 0)"/></g></g><g id="Group-475"><g class="cls-20"><path id="Fill-473" class="cls-3" d="M16.65,93.86a3.33,3.33,0,1,0-3.33,3.33,3.33,3.33,0,0,0,3.33-3.33" transform="translate(0 0)"/></g></g><g id="Group-478"><g class="cls-21"><path id="Fill-476" class="cls-3" d="M6.66,93.86a3.33,3.33,0,1,0-3.33,3.33,3.33,3.33,0,0,0,3.33-3.33" transform="translate(0 0)"/></g></g><g id="Group-481"><g class="cls-22"><path id="Fill-479" class="cls-3" d="M46.63,93.86a3.33,3.33,0,1,0-3.33,3.33,3.33,3.33,0,0,0,3.33-3.33" transform="translate(0 0)"/></g></g><g id="Group-484"><g class="cls-23"><path id="Fill-482" class="cls-3" d="M106.57,93.86a3.33,3.33,0,1,0-3.33,3.33,3.33,3.33,0,0,0,3.33-3.33" transform="translate(0 0)"/></g></g><g id="Group-487"><g class="cls-24"><path id="Fill-485" class="cls-3" d="M96.58,93.86a3.33,3.33,0,1,0-3.33,3.33,3.33,3.33,0,0,0,3.33-3.33" transform="translate(0 0)"/></g></g><g id="Group-490"><g class="cls-25"><path id="Fill-488" class="cls-3" d="M116.56,93.86a3.33,3.33,0,1,0-3.32,3.33,3.33,3.33,0,0,0,3.32-3.33" transform="translate(0 0)"/></g></g><g id="Group-493"><g class="cls-26"><path id="Fill-491" class="cls-3" d="M76.6,93.86a3.33,3.33,0,1,0-3.33,3.33,3.33,3.33,0,0,0,3.33-3.33" transform="translate(0 0)"/></g></g><g id="Group-496"><g class="cls-27"><path id="Fill-494" class="cls-3" d="M66.61,93.86a3.33,3.33,0,1,0-3.33,3.33,3.33,3.33,0,0,0,3.33-3.33" transform="translate(0 0)"/></g></g><path id="Fill-497" class="cls-3" d="M46.63,83.87A3.33,3.33,0,1,0,43.3,87.2a3.33,3.33,0,0,0,3.33-3.33" transform="translate(0 0)"/><path id="Fill-499" class="cls-3" d="M26.64,83.87a3.33,3.33,0,1,0-3.33,3.33,3.33,3.33,0,0,0,3.33-3.33" transform="translate(0 0)"/><path id="Fill-501" class="cls-3" d="M36.64,83.87A3.34,3.34,0,1,0,33.3,87.2a3.34,3.34,0,0,0,3.34-3.33" transform="translate(0 0)"/><path id="Fill-503" class="cls-3" d="M56.62,83.87a3.33,3.33,0,1,0-3.33,3.33,3.33,3.33,0,0,0,3.33-3.33" transform="translate(0 0)"/><path id="Fill-505" class="cls-3" d="M16.65,83.87a3.33,3.33,0,1,0-3.33,3.33,3.33,3.33,0,0,0,3.33-3.33" transform="translate(0 0)"/><path id="Fill-507" class="cls-3" d="M6.66,83.87A3.33,3.33,0,1,0,3.33,87.2a3.33,3.33,0,0,0,3.33-3.33" transform="translate(0 0)"/><path id="Fill-509" class="cls-3" d="M236.46,83.87a3.33,3.33,0,1,0-3.33,3.33,3.33,3.33,0,0,0,3.33-3.33" transform="translate(0 0)"/><path id="Fill-511" class="cls-3" d="M246.45,83.87a3.33,3.33,0,1,0-3.33,3.33,3.33,3.33,0,0,0,3.33-3.33" transform="translate(0 0)"/><path id="Fill-513" class="cls-3" d="M226.47,83.87a3.33,3.33,0,1,0-3.33,3.33,3.33,3.33,0,0,0,3.33-3.33" transform="translate(0 0)"/><path id="Fill-515" class="cls-3" d="M216.48,83.87a3.33,3.33,0,1,0-3.33,3.33,3.33,3.33,0,0,0,3.33-3.33" transform="translate(0 0)"/><path id="Fill-517" class="cls-3" d="M196.49,83.87a3.33,3.33,0,1,0-3.33,3.33,3.33,3.33,0,0,0,3.33-3.33" transform="translate(0 0)"/><path id="Fill-519" class="cls-3" d="M206.48,83.87a3.33,3.33,0,1,0-3.32,3.33,3.33,3.33,0,0,0,3.32-3.33" transform="translate(0 0)"/><path id="Fill-521" class="cls-3" d="M156.53,83.87a3.33,3.33,0,1,0-3.33,3.33,3.33,3.33,0,0,0,3.33-3.33" transform="translate(0 0)"/><path id="Fill-523" class="cls-3" d="M186.5,83.87a3.33,3.33,0,1,0-3.33,3.33,3.33,3.33,0,0,0,3.33-3.33" transform="translate(0 0)"/><path id="Fill-525" class="cls-3" d="M116.56,83.87a3.33,3.33,0,1,0-3.32,3.33,3.33,3.33,0,0,0,3.32-3.33" transform="translate(0 0)"/><path id="Fill-527" class="cls-3" d="M96.58,83.87a3.33,3.33,0,1,0-3.33,3.33,3.33,3.33,0,0,0,3.33-3.33" transform="translate(0 0)"/><path id="Fill-529" class="cls-3" d="M126.56,83.87a3.34,3.34,0,1,0-3.33,3.33,3.33,3.33,0,0,0,3.33-3.33" transform="translate(0 0)"/><path id="Fill-531" class="cls-3" d="M76.6,83.87a3.33,3.33,0,1,0-3.33,3.33,3.33,3.33,0,0,0,3.33-3.33" transform="translate(0 0)"/><path id="Fill-533" class="cls-3" d="M86.59,83.87a3.33,3.33,0,1,0-3.33,3.33,3.33,3.33,0,0,0,3.33-3.33" transform="translate(0 0)"/><path id="Fill-535" class="cls-3" d="M106.57,83.87a3.33,3.33,0,1,0-3.33,3.33,3.33,3.33,0,0,0,3.33-3.33" transform="translate(0 0)"/><path id="Fill-537" class="cls-3" d="M176.51,83.87a3.33,3.33,0,1,0-3.33,3.33,3.33,3.33,0,0,0,3.33-3.33" transform="translate(0 0)"/><path id="Fill-539" class="cls-3" d="M166.52,83.87a3.33,3.33,0,1,0-3.33,3.33,3.33,3.33,0,0,0,3.33-3.33" transform="translate(0 0)"/><path id="Fill-541" class="cls-3" d="M146.54,83.87a3.33,3.33,0,1,0-3.33,3.33,3.33,3.33,0,0,0,3.33-3.33" transform="translate(0 0)"/><path id="Fill-543" class="cls-3" d="M66.61,83.87a3.33,3.33,0,1,0-3.33,3.33,3.33,3.33,0,0,0,3.33-3.33" transform="translate(0 0)"/><path id="Fill-545" class="cls-3" d="M136.55,83.87a3.33,3.33,0,1,0-3.33,3.33,3.33,3.33,0,0,0,3.33-3.33" transform="translate(0 0)"/><g id="Group-549"><g class="cls-28"><path id="Fill-547" class="cls-3" d="M86.59,93.86a3.33,3.33,0,1,0-3.33,3.33,3.33,3.33,0,0,0,3.33-3.33" transform="translate(0 0)"/></g></g><g id="Group-552"><g class="cls-29"><path id="Fill-550" class="cls-3" d="M266.43,93.86a3.33,3.33,0,1,0-3.33,3.33,3.33,3.33,0,0,0,3.33-3.33" transform="translate(0 0)"/></g></g><g id="Group-555"><g class="cls-30"><path id="Fill-553" class="cls-3" d="M256.44,93.86a3.33,3.33,0,1,0-3.33,3.33,3.33,3.33,0,0,0,3.33-3.33" transform="translate(0 0)"/></g></g><path id="Fill-556" class="cls-3" d="M256.44,83.87a3.33,3.33,0,1,0-3.33,3.33,3.33,3.33,0,0,0,3.33-3.33" transform="translate(0 0)"/><path id="Fill-558" class="cls-3" d="M266.43,83.87a3.33,3.33,0,1,0-3.33,3.33,3.33,3.33,0,0,0,3.33-3.33" transform="translate(0 0)"/><path id="Fill-560" class="cls-3" d="M256.44,43.9a3.33,3.33,0,1,0-3.33,3.33,3.33,3.33,0,0,0,3.33-3.33" transform="translate(0 0)"/><path id="Fill-562" class="cls-3" d="M266.43,43.9a3.33,3.33,0,1,0-3.33,3.33,3.33,3.33,0,0,0,3.33-3.33" transform="translate(0 0)"/><path id="Fill-564" class="cls-3" d="M66.61,43.9a3.33,3.33,0,1,0-3.33,3.33,3.33,3.33,0,0,0,3.33-3.33" transform="translate(0 0)"/><path id="Fill-566" class="cls-3" d="M136.55,43.9a3.33,3.33,0,1,0-3.33,3.33,3.33,3.33,0,0,0,3.33-3.33" transform="translate(0 0)"/></g></g></g></g></svg>